<svg width="27" height="19" viewBox="0 0 27 19" fill="none" xmlns="http://www.w3.org/2000/svg">
<path fill-rule="evenodd" clip-rule="evenodd" d="M16.8724 0.558778L16.8136 0.579921L16.835 0.558778H16.8724ZM3.26787 2.79453C6.53573 0.44426 9.56471 0.557017 9.56471 0.557017L9.80895 0.794862C5.81014 1.73744 3.99703 3.50278 3.99703 3.50278C3.99703 3.50278 4.48195 3.26846 5.32878 2.91081C10.7146 0.817767 16.5961 0.969282 22.0407 3.61906C22.0407 3.61906 20.2241 1.96823 16.4713 0.911142L16.8029 0.588729C17.3217 0.590491 20.0672 0.68563 23.0052 2.80862C23.0052 2.80862 26.2927 8.35836 26.2927 15.1766C26.273 15.1531 26.1939 15.2338 26.0482 15.3825C25.3872 16.0572 23.3556 18.1309 19.2845 18.2175C19.2845 18.2175 18.443 17.2767 17.844 16.4557C20.75 15.6312 21.8375 13.9821 21.8375 13.9821C21.1467 14.4121 20.4999 14.7155 19.9275 14.984L19.9275 14.984C19.7095 15.0862 19.5024 15.1834 19.3077 15.2806C18.247 15.7418 17.1847 15.9744 16.124 16.2067L16.0487 16.2231C11.2471 16.9931 8.41231 15.8409 5.83681 14.7941C5.65449 14.72 5.47346 14.6464 5.29312 14.5741L4.36072 14.1054C4.36072 14.1054 5.44645 15.7545 8.23652 16.579C7.50379 17.4053 6.77819 18.3444 6.77819 18.3444C1.81132 18.2281 0 15.1625 0 15.1625C0 8.33369 3.26787 2.79453 3.26787 2.79453ZM17.1933 13.0465C18.4609 13.0465 19.4931 11.9894 19.4931 10.6857C19.4931 9.39076 18.4662 8.33368 17.1933 8.33368V8.33896C15.9311 8.33896 14.8971 9.39253 14.8935 10.6963C14.8935 11.9894 15.9257 13.0465 17.1933 13.0465ZM11.2601 10.6857C11.2601 11.9894 10.2279 13.0465 8.96032 13.0465C7.69275 13.0465 6.66051 11.9894 6.66051 10.6963C6.66051 9.39253 7.69275 8.33896 8.96032 8.33896L8.96746 8.33368C10.235 8.33368 11.2601 9.39076 11.2601 10.6857Z" fill="currentColor"/>
</svg>
