<svg width="21" height="19" viewBox="0 0 21 19" fill="none" xmlns="http://www.w3.org/2000/svg">
<path d="M0.36516 8.88232L5.12882 10.6393L6.97265 16.4993C7.09063 16.8746 7.55503 17.0134 7.86328 16.7643L10.5186 14.6251C10.797 14.401 11.1934 14.3898 11.4843 14.5985L16.2736 18.0347C16.6033 18.2716 17.0705 18.093 17.1532 17.6992L20.6616 1.02163C20.7519 0.591498 20.3242 0.232669 19.9098 0.391074L0.359579 7.84424C-0.122879 8.02811 -0.118676 8.70314 0.36516 8.88232ZM6.6755 9.70404L15.9855 4.03746C16.1528 3.93592 16.3249 4.1595 16.1812 4.29121L8.49782 11.3493C8.22776 11.5978 8.05354 11.9302 8.0042 12.2911L7.74247 14.2079C7.70781 14.4638 7.34402 14.4892 7.27256 14.2415L6.26595 10.7462C6.15066 10.3475 6.31867 9.92169 6.6755 9.70404Z" fill="currentColor"/>
</svg>
