<svg viewBox="0 0 23 19" fill="none" xmlns="http://www.w3.org/2000/svg">
<path d="M22.1538 2.45876C21.33 2.8159 20.4522 3.05262 19.5369 3.16756C20.4785 2.61202 21.1971 1.73902 21.5349 0.686778C20.6571 1.20401 19.6878 1.56935 18.6549 1.77323C17.8214 0.896131 16.6334 0.352905 15.3374 0.352905C12.8229 0.352905 10.7986 2.36982 10.7986 4.84239C10.7986 5.19816 10.8291 5.54024 10.9038 5.8659C7.128 5.68391 3.78692 3.89551 1.54246 1.17117C1.15062 1.84301 0.920769 2.61202 0.920769 3.43985C0.920769 4.99427 1.73077 6.37218 2.93815 7.16992C2.20846 7.15623 1.49261 6.94688 0.886153 6.61711C0.886153 6.6308 0.886153 6.64858 0.886153 6.66637C0.886153 8.84749 2.46046 10.6592 4.52492 11.0765C4.15523 11.1764 3.75231 11.2243 3.33415 11.2243C3.04338 11.2243 2.74985 11.2079 2.47431 11.1476C3.06277 12.9251 4.73262 14.2319 6.71815 14.2743C5.17292 15.4688 3.21092 16.1886 1.08692 16.1886C0.714461 16.1886 0.357231 16.1722 0 16.127C2.01185 17.4091 4.39615 18.1412 6.96738 18.1412C15.3249 18.1412 19.8942 11.2995 19.8942 5.3692C19.8942 5.17079 19.8872 4.97922 19.8775 4.78903C20.7789 4.15686 21.5363 3.36733 22.1538 2.45876Z" fill="currentColor"/>
</svg>
