<svg viewBox="0 0 17 16" fill="none" xmlns="http://www.w3.org/2000/svg">
    <path fill-rule="evenodd" clip-rule="evenodd" d="M1.91357 -0.000671387C0.947076 -0.000671387 0.163574 0.782829 0.163574 1.74933V15.2507V16.0007H0.913574H9.07058H9.82058V15.2507V8.53028H11.1495V13.4929C11.1495 14.8779 12.2723 16.0007 13.6573 16.0007C15.0422 16.0007 16.165 14.8779 16.165 13.4929V4.32131C16.165 3.78988 15.9356 3.28431 15.5356 2.93436L12.3934 0.184896L11.4056 1.31376L13.0798 2.77862C12.2092 3.10225 11.5889 3.94066 11.5889 4.92394C11.5889 6.18758 12.6133 7.21196 13.8769 7.21196C14.1539 7.21196 14.4193 7.16276 14.665 7.07262V13.4929C14.665 14.0495 14.2138 14.5007 13.6573 14.5007C13.1007 14.5007 12.6495 14.0495 12.6495 13.4929V7.92676C12.6495 7.43165 12.2482 7.03028 11.753 7.03028H9.82058V1.74933C9.82058 0.78283 9.03707 -0.000671387 8.07058 -0.000671387H1.91357ZM1.66357 1.74933C1.66357 1.61126 1.7755 1.49933 1.91357 1.49933H8.07058C8.20865 1.49933 8.32058 1.61126 8.32058 1.74933V6.37114H1.66357V1.74933ZM1.66357 7.87114V14.5007H8.32058V7.87114H1.66357ZM13.8769 4.13592C13.4417 4.13592 13.0889 4.48873 13.0889 4.92394C13.0889 5.35915 13.4417 5.71196 13.8769 5.71196C14.3121 5.71196 14.665 5.35915 14.665 4.92394C14.665 4.48873 14.3121 4.13592 13.8769 4.13592Z" fill="currentColor"/>
</svg>
