<svg  viewBox="0 0 241 235" fill="none" xmlns="http://www.w3.org/2000/svg">
<path fill-rule="evenodd" clip-rule="evenodd" d="M230.074 116.241C230.074 128.971 227.786 141.399 223.252 153.245H233.785C237.923 141.306 240.019 128.867 240.019 116.241C240.019 52.1459 186.403 0 120.5 0C54.5968 0 0.980469 52.1459 0.980469 116.241C0.980469 128.867 3.07632 141.306 7.21463 153.245H17.7475C13.2243 141.399 10.9252 128.971 10.9252 116.241C10.9252 57.4811 60.0825 9.67203 120.5 9.67203C180.917 9.67203 230.074 57.4811 230.074 116.241ZM17.7196 173.547H20.8304C20.731 172.704 20.5037 171.956 20.1486 171.303C19.7982 170.649 19.3437 170.098 18.785 169.648C18.2263 169.193 17.5847 168.848 16.8603 168.611C16.1406 168.374 15.3593 168.256 14.5165 168.256C13.2381 168.256 12.0875 168.549 11.0648 169.136C10.0421 169.719 9.23242 170.566 8.63583 171.679C8.03924 172.792 7.74094 174.141 7.74094 175.727C7.74094 177.309 8.03451 178.656 8.62163 179.768C9.21349 180.881 10.0184 181.731 11.0364 182.318C12.0591 182.905 13.2192 183.199 14.5165 183.199C15.4493 183.199 16.285 183.059 17.0236 182.78C17.767 182.496 18.4062 182.112 18.9412 181.629C19.481 181.142 19.9095 180.59 20.2267 179.974C20.5487 179.354 20.7499 178.71 20.8304 178.043L17.7196 178.028C17.6486 178.417 17.5208 178.762 17.3361 179.065C17.1562 179.368 16.9289 179.626 16.6543 179.839C16.3797 180.048 16.0648 180.206 15.7097 180.315C15.3593 180.424 14.9782 180.479 14.5662 180.479C13.8323 180.479 13.186 180.299 12.6273 179.939C12.0686 179.579 11.633 179.046 11.3205 178.341C11.0127 177.635 10.8588 176.764 10.8588 175.727C10.8588 174.719 11.0127 173.862 11.3205 173.156C11.6283 172.446 12.0615 171.906 12.6202 171.537C13.1789 171.163 13.8347 170.976 14.5875 170.976C15.0042 170.976 15.3901 171.035 15.7452 171.153C16.1051 171.272 16.4223 171.442 16.6969 171.665C16.9715 171.887 17.1964 172.157 17.3716 172.474C17.5468 172.787 17.6628 173.144 17.7196 173.547ZM25.0456 182.51C25.8506 182.979 26.8046 183.213 27.9078 183.213C29.0111 183.213 29.9628 182.979 30.763 182.51C31.5679 182.036 32.1881 181.378 32.6238 180.536C33.0594 179.688 33.2772 178.706 33.2772 177.588C33.2772 176.461 33.0594 175.476 32.6238 174.634C32.1881 173.786 31.5679 173.128 30.763 172.659C29.9628 172.186 29.0111 171.949 27.9078 171.949C26.8046 171.949 25.8506 172.186 25.0456 172.659C24.2454 173.128 23.6275 173.786 23.1919 174.634C22.7563 175.476 22.5385 176.461 22.5385 177.588C22.5385 178.706 22.7563 179.688 23.1919 180.536C23.6275 181.378 24.2454 182.036 25.0456 182.51ZM29.1792 180.443C28.843 180.727 28.424 180.869 27.9221 180.869C27.4154 180.869 26.9893 180.727 26.6436 180.443C26.3027 180.154 26.0447 179.761 25.8695 179.264C25.699 178.767 25.6138 178.201 25.6138 177.567C25.6138 176.932 25.699 176.366 25.8695 175.869C26.0447 175.372 26.3027 174.979 26.6436 174.69C26.9893 174.402 27.4154 174.257 27.9221 174.257C28.424 174.257 28.843 174.402 29.1792 174.69C29.5153 174.979 29.7686 175.372 29.9391 175.869C30.1143 176.366 30.2019 176.932 30.2019 177.567C30.2019 178.201 30.1143 178.767 29.9391 179.264C29.7686 179.761 29.5153 180.154 29.1792 180.443ZM35.2445 172.091V183H38.2701V176.452C38.2701 176.049 38.3482 175.699 38.5044 175.401C38.6607 175.098 38.8714 174.863 39.1365 174.697C39.4064 174.527 39.7095 174.442 40.0456 174.442C40.5428 174.442 40.9429 174.6 41.2459 174.918C41.5537 175.235 41.7076 175.661 41.7076 176.196V183H44.6408V176.338C44.6408 175.77 44.7947 175.313 45.1024 174.967C45.4102 174.617 45.8387 174.442 46.388 174.442C46.8709 174.442 47.2734 174.593 47.5954 174.896C47.9173 175.199 48.0783 175.654 48.0783 176.26V183H51.0968V175.663C51.0968 174.48 50.7772 173.566 50.138 172.922C49.5035 172.273 48.6773 171.949 47.6593 171.949C46.8591 171.949 46.1654 172.138 45.5783 172.517C44.9959 172.891 44.5935 173.391 44.3709 174.016H44.2573C44.0821 173.381 43.7317 172.879 43.2061 172.51C42.6806 172.136 42.0437 171.949 41.2956 171.949C40.557 171.949 39.9225 172.134 39.3922 172.503C38.8619 172.872 38.4831 173.376 38.2559 174.016H38.128V172.091H35.2445ZM55.5605 182.531C56.3702 182.986 57.3361 183.213 58.4583 183.213C59.3579 183.213 60.151 183.076 60.8375 182.801C61.5288 182.522 62.0923 182.134 62.5279 181.636C62.9682 181.134 63.2594 180.547 63.4015 179.875L60.6032 179.69C60.499 179.965 60.3475 180.197 60.1486 180.386C59.9498 180.576 59.7106 180.718 59.4313 180.812C59.1519 180.907 58.8442 180.955 58.508 180.955C58.0014 180.955 57.5634 180.848 57.1941 180.635C56.8248 180.422 56.5383 180.119 56.3347 179.726C56.1358 179.333 56.0364 178.866 56.0364 178.327V178.32H63.4654V177.489C63.4654 176.561 63.3352 175.751 63.0748 175.06C62.8143 174.364 62.4498 173.786 61.981 173.327C61.517 172.867 60.9725 172.524 60.3475 172.297C59.7272 172.065 59.0572 171.949 58.3375 171.949C57.2675 171.949 56.3347 172.186 55.5392 172.659C54.7485 173.133 54.1354 173.793 53.6998 174.641C53.2641 175.488 53.0463 176.473 53.0463 177.595C53.0463 178.746 53.2641 179.742 53.6998 180.585C54.1354 181.423 54.7556 182.072 55.5605 182.531ZM56.0392 176.445C56.0575 176.053 56.1583 175.695 56.3418 175.372C56.5407 175.017 56.8153 174.735 57.1657 174.527C57.5208 174.314 57.928 174.207 58.3873 174.207C58.8276 174.207 59.2135 174.304 59.5449 174.499C59.8811 174.688 60.1439 174.951 60.3333 175.287C60.5227 175.623 60.6174 176.009 60.6174 176.445H56.0392ZM70.1255 168.455V183H73.1085V181.253H73.2434C73.3807 181.556 73.5796 181.857 73.84 182.155C74.1004 182.448 74.4342 182.692 74.8414 182.886C75.2534 183.081 75.7529 183.178 76.34 183.178C77.1686 183.178 77.9167 182.964 78.5843 182.538C79.2567 182.107 79.787 181.475 80.1752 180.642C80.5682 179.804 80.7647 178.777 80.7647 177.56C80.7647 176.31 80.5635 175.27 80.161 174.442C79.7586 173.608 79.2212 172.986 78.5488 172.574C77.8765 172.157 77.1426 171.949 76.3471 171.949C75.7363 171.949 75.225 172.053 74.813 172.261C74.4058 172.465 74.0744 172.721 73.8187 173.028C73.5678 173.331 73.376 173.63 73.2434 173.923H73.1511V168.455H70.1255ZM73.3571 179.243C73.1771 178.76 73.0872 178.194 73.0872 177.545C73.0872 176.897 73.1771 176.333 73.3571 175.855C73.537 175.377 73.795 175.008 74.1312 174.747C74.4721 174.487 74.8888 174.357 75.3812 174.357C75.8784 174.357 76.2974 174.491 76.6383 174.761C76.9792 175.031 77.2373 175.405 77.4125 175.884C77.5877 176.362 77.6752 176.916 77.6752 177.545C77.6752 178.18 77.5853 178.741 77.4054 179.229C77.2302 179.712 76.9721 180.09 76.6312 180.365C76.2903 180.635 75.8736 180.77 75.3812 180.77C74.8935 180.77 74.4792 180.637 74.1383 180.372C73.7974 180.102 73.537 179.726 73.3571 179.243ZM84.0336 182.844C84.5781 183.085 85.1983 183.206 85.8943 183.206C86.4341 183.206 86.91 183.135 87.3219 182.993C87.7338 182.846 88.0866 182.645 88.3801 182.389C88.6737 182.129 88.9081 181.828 89.0833 181.487H89.1685V183H92.0378V175.642C92.0378 174.993 91.9124 174.437 91.6614 173.973C91.4104 173.504 91.0672 173.121 90.6316 172.822C90.2007 172.524 89.7059 172.304 89.1472 172.162C88.5932 172.02 88.0132 171.949 87.4071 171.949C86.5359 171.949 85.7689 172.081 85.106 172.347C84.4479 172.607 83.9104 172.981 83.4938 173.469C83.0771 173.952 82.7978 174.525 82.6557 175.188L85.454 175.415C85.5582 175.055 85.7712 174.757 86.0932 174.52C86.4152 174.278 86.8484 174.158 87.3929 174.158C87.909 174.158 88.3068 174.281 88.5861 174.527C88.8702 174.773 89.0123 175.121 89.0123 175.571V175.614C89.0123 175.846 88.9247 176.021 88.7495 176.139C88.5743 176.258 88.2926 176.348 87.9043 176.409C87.516 176.466 87.0047 176.527 86.3702 176.594C85.8304 176.646 85.3143 176.736 84.8219 176.864C84.3342 176.991 83.8986 177.181 83.5151 177.432C83.1316 177.683 82.8285 178.014 82.606 178.426C82.3835 178.838 82.2722 179.347 82.2722 179.953C82.2722 180.673 82.4285 181.274 82.741 181.757C83.0582 182.235 83.489 182.598 84.0336 182.844ZM87.9398 180.855C87.5989 181.03 87.2059 181.118 86.7608 181.118C86.2968 181.118 85.9133 181.011 85.6103 180.798C85.312 180.581 85.1628 180.266 85.1628 179.854C85.1628 179.57 85.2362 179.333 85.383 179.143C85.5298 178.949 85.7357 178.795 86.0009 178.682C86.266 178.568 86.5762 178.485 86.9313 178.433C87.097 178.41 87.2817 178.384 87.4853 178.355C87.6889 178.322 87.8925 178.286 88.0961 178.249C88.2997 178.206 88.4819 178.161 88.6429 178.114C88.8087 178.062 88.9389 178.005 89.0336 177.943V179.101C89.0336 179.484 88.9365 179.828 88.7424 180.131C88.5482 180.434 88.2807 180.675 87.9398 180.855ZM96.4306 182.503C97.2355 182.976 98.1967 183.213 99.3141 183.213C100.285 183.213 101.125 183.036 101.835 182.68C102.546 182.325 103.102 181.833 103.504 181.203C103.912 180.569 104.139 179.835 104.186 179.001H101.331C101.274 179.385 101.154 179.714 100.969 179.989C100.789 180.259 100.559 180.464 100.28 180.607C100.005 180.749 99.6953 180.82 99.3496 180.82C98.8809 180.82 98.4713 180.692 98.1209 180.436C97.7705 180.18 97.4983 179.809 97.3042 179.321C97.1148 178.833 97.0201 178.241 97.0201 177.545C97.0201 176.859 97.1171 176.274 97.3113 175.791C97.5054 175.308 97.7753 174.941 98.1209 174.69C98.4713 174.435 98.8809 174.307 99.3496 174.307C99.9036 174.307 100.351 174.475 100.692 174.811C101.038 175.143 101.251 175.581 101.331 176.125H104.186C104.144 175.282 103.914 174.548 103.497 173.923C103.081 173.298 102.515 172.813 101.8 172.467C101.085 172.122 100.252 171.949 99.2999 171.949C98.1967 171.949 97.245 172.188 96.4448 172.666C95.6446 173.14 95.0267 173.8 94.5911 174.648C94.1602 175.491 93.9448 176.471 93.9448 177.588C93.9448 178.691 94.1579 179.667 94.584 180.514C95.0149 181.362 95.6304 182.025 96.4306 182.503ZM109.149 179.536V183H106.123V168.455H109.149V176.232H109.312L112.807 172.091H116.28L112.234 176.816L116.486 183H112.942L109.969 178.6L109.149 179.536ZM124.46 182.51C125.265 182.979 126.219 183.213 127.322 183.213C128.425 183.213 129.377 182.979 130.177 182.51C130.982 182.036 131.602 181.378 132.038 180.536C132.473 179.688 132.691 178.706 132.691 177.588C132.691 176.461 132.473 175.476 132.038 174.634C131.602 173.786 130.982 173.128 130.177 172.659C129.377 172.186 128.425 171.949 127.322 171.949C126.219 171.949 125.265 172.186 124.46 172.659C123.66 173.128 123.042 173.786 122.606 174.634C122.17 175.476 121.953 176.461 121.953 177.588C121.953 178.706 122.17 179.688 122.606 180.536C123.042 181.378 123.66 182.036 124.46 182.51ZM128.593 180.443C128.257 180.727 127.838 180.869 127.336 180.869C126.829 180.869 126.403 180.727 126.058 180.443C125.717 180.154 125.459 179.761 125.284 179.264C125.113 178.767 125.028 178.201 125.028 177.567C125.028 176.932 125.113 176.366 125.284 175.869C125.459 175.372 125.717 174.979 126.058 174.69C126.403 174.402 126.829 174.257 127.336 174.257C127.838 174.257 128.257 174.402 128.593 174.69C128.929 174.979 129.183 175.372 129.353 175.869C129.528 176.366 129.616 176.932 129.616 177.567C129.616 178.201 129.528 178.767 129.353 179.264C129.183 179.761 128.929 180.154 128.593 180.443ZM137.684 183V176.693C137.689 176.224 137.776 175.824 137.947 175.493C138.122 175.157 138.364 174.901 138.671 174.726C138.984 174.551 139.344 174.463 139.751 174.463C140.357 174.463 140.833 174.652 141.178 175.031C141.524 175.405 141.695 175.926 141.69 176.594V183H144.715V176.054C144.715 175.206 144.559 174.477 144.247 173.866C143.934 173.251 143.496 172.777 142.933 172.446C142.369 172.115 141.709 171.949 140.951 171.949C140.142 171.949 139.453 172.136 138.884 172.51C138.316 172.879 137.911 173.381 137.67 174.016H137.542V172.091H134.659V183H137.684ZM153.497 182.538C154.17 182.964 154.92 183.178 155.749 183.178C156.336 183.178 156.833 183.081 157.24 182.886C157.652 182.692 157.986 182.448 158.242 182.155C158.502 181.857 158.703 181.556 158.845 181.253H158.973V183H161.956V168.455H158.938V173.923H158.845C158.713 173.63 158.519 173.331 158.263 173.028C158.012 172.721 157.681 172.465 157.269 172.261C156.861 172.053 156.352 171.949 155.742 171.949C154.941 171.949 154.205 172.157 153.533 172.574C152.865 172.986 152.33 173.608 151.928 174.442C151.525 175.27 151.324 176.31 151.324 177.56C151.324 178.777 151.518 179.804 151.906 180.642C152.299 181.475 152.83 182.107 153.497 182.538ZM157.943 180.372C157.607 180.637 157.195 180.77 156.708 180.77C156.21 180.77 155.791 180.635 155.45 180.365C155.114 180.09 154.856 179.712 154.676 179.229C154.501 178.741 154.414 178.18 154.414 177.545C154.414 176.916 154.501 176.362 154.676 175.884C154.852 175.405 155.11 175.031 155.45 174.761C155.791 174.491 156.21 174.357 156.708 174.357C157.195 174.357 157.61 174.487 157.95 174.747C158.291 175.008 158.552 175.377 158.732 175.855C158.912 176.333 159.002 176.897 159.002 177.545C159.002 178.194 158.909 178.76 158.725 179.243C158.545 179.726 158.284 180.102 157.943 180.372ZM166.518 182.531C167.327 182.986 168.293 183.213 169.415 183.213C170.315 183.213 171.108 183.076 171.795 182.801C172.486 182.522 173.049 182.134 173.485 181.636C173.925 181.134 174.216 180.547 174.358 179.875L171.56 179.69C171.456 179.965 171.305 180.197 171.106 180.386C170.907 180.576 170.668 180.718 170.388 180.812C170.109 180.907 169.801 180.955 169.465 180.955C168.958 180.955 168.52 180.848 168.151 180.635C167.782 180.422 167.495 180.119 167.292 179.726C167.093 179.333 166.993 178.866 166.993 178.327V178.32H174.422V177.489C174.422 176.561 174.292 175.751 174.032 175.06C173.771 174.364 173.407 173.786 172.938 173.327C172.474 172.867 171.93 172.524 171.305 172.297C170.684 172.065 170.014 171.949 169.295 171.949C168.224 171.949 167.292 172.186 166.496 172.659C165.706 173.133 165.092 173.793 164.657 174.641C164.221 175.488 164.003 176.473 164.003 177.595C164.003 178.746 164.221 179.742 164.657 180.585C165.092 181.423 165.713 182.072 166.518 182.531ZM166.996 176.445C167.015 176.053 167.115 175.695 167.299 175.372C167.498 175.017 167.772 174.735 168.123 174.527C168.478 174.314 168.885 174.207 169.344 174.207C169.785 174.207 170.171 174.304 170.502 174.499C170.838 174.688 171.101 174.951 171.29 175.287C171.48 175.623 171.574 176.009 171.574 176.445H166.996ZM182.704 175.372L185.474 175.202C185.341 174.198 184.877 173.405 184.082 172.822C183.291 172.24 182.207 171.949 180.829 171.949C179.896 171.949 179.082 172.086 178.385 172.361C177.694 172.635 177.157 173.026 176.773 173.533C176.394 174.039 176.205 174.643 176.205 175.344C176.205 176.158 176.463 176.828 176.979 177.354C177.5 177.879 178.293 178.249 179.358 178.462L181.248 178.838C181.721 178.933 182.072 179.07 182.299 179.25C182.526 179.425 182.642 179.65 182.647 179.925C182.642 180.251 182.476 180.519 182.15 180.727C181.828 180.931 181.402 181.033 180.871 181.033C180.332 181.033 179.889 180.919 179.543 180.692C179.198 180.46 178.98 180.124 178.89 179.683L175.914 179.839C176.061 180.881 176.56 181.705 177.412 182.311C178.269 182.912 179.42 183.213 180.864 183.213C181.811 183.213 182.647 183.064 183.371 182.766C184.1 182.463 184.673 182.041 185.09 181.501C185.511 180.962 185.722 180.334 185.722 179.619C185.722 178.833 185.462 178.199 184.941 177.716C184.42 177.233 183.629 176.883 182.569 176.665L180.594 176.267C180.088 176.158 179.73 176.014 179.522 175.834C179.314 175.654 179.209 175.434 179.209 175.173C179.209 174.847 179.37 174.586 179.692 174.392C180.014 174.193 180.41 174.094 180.878 174.094C181.229 174.094 181.529 174.153 181.78 174.271C182.036 174.385 182.242 174.539 182.398 174.733C182.555 174.922 182.656 175.135 182.704 175.372ZM190.653 179.536V183H187.627V168.455H190.653V176.232H190.816L194.311 172.091H197.784L193.738 176.816L197.99 183H194.445L191.473 178.6L190.653 179.536ZM205.07 174.364V172.091H203.018V169.477H199.992V172.091H198.501V174.364H199.992V180.045C199.988 180.76 200.137 181.352 200.44 181.821C200.743 182.29 201.167 182.635 201.711 182.858C202.26 183.081 202.9 183.178 203.629 183.149C204.022 183.135 204.356 183.095 204.63 183.028C204.905 182.967 205.118 182.912 205.269 182.865L204.793 180.614C204.718 180.628 204.609 180.649 204.467 180.678C204.325 180.701 204.183 180.713 204.041 180.713C203.837 180.713 203.657 180.682 203.501 180.621C203.349 180.559 203.231 180.453 203.146 180.301C203.061 180.145 203.018 179.927 203.018 179.648V174.364H205.07ZM208.991 182.51C209.796 182.979 210.75 183.213 211.853 183.213C212.956 183.213 213.908 182.979 214.708 182.51C215.513 182.036 216.133 181.378 216.569 180.536C217.005 179.688 217.222 178.706 217.222 177.588C217.222 176.461 217.005 175.476 216.569 174.634C216.133 173.786 215.513 173.128 214.708 172.659C213.908 172.186 212.956 171.949 211.853 171.949C210.75 171.949 209.796 172.186 208.991 172.659C208.191 173.128 207.573 173.786 207.137 174.634C206.702 175.476 206.484 176.461 206.484 177.588C206.484 178.706 206.702 179.688 207.137 180.536C207.573 181.378 208.191 182.036 208.991 182.51ZM213.124 180.443C212.788 180.727 212.369 180.869 211.867 180.869C211.361 180.869 210.935 180.727 210.589 180.443C210.248 180.154 209.99 179.761 209.815 179.264C209.644 178.767 209.559 178.201 209.559 177.567C209.559 176.932 209.644 176.366 209.815 175.869C209.99 175.372 210.248 174.979 210.589 174.69C210.935 174.402 211.361 174.257 211.867 174.257C212.369 174.257 212.788 174.402 213.124 174.69C213.461 174.979 213.714 175.372 213.884 175.869C214.06 176.366 214.147 176.932 214.147 177.567C214.147 178.201 214.06 178.767 213.884 179.264C213.714 179.761 213.461 180.154 213.124 180.443ZM219.19 172.091V187.091H222.215V181.253H222.308C222.445 181.556 222.644 181.857 222.904 182.155C223.165 182.448 223.499 182.692 223.906 182.886C224.318 183.081 224.817 183.178 225.404 183.178C226.233 183.178 226.981 182.964 227.649 182.538C228.321 182.107 228.851 181.475 229.24 180.642C229.633 179.804 229.829 178.777 229.829 177.56C229.829 176.31 229.628 175.27 229.225 174.442C228.823 173.608 228.285 172.986 227.613 172.574C226.941 172.157 226.207 171.949 225.411 171.949C224.801 171.949 224.289 172.053 223.877 172.261C223.47 172.465 223.139 172.721 222.883 173.028C222.632 173.331 222.44 173.63 222.308 173.923H222.173V172.091H219.19ZM222.421 179.243C222.241 178.76 222.151 178.194 222.151 177.545C222.151 176.897 222.241 176.333 222.421 175.855C222.601 175.377 222.859 175.008 223.195 174.747C223.536 174.487 223.953 174.357 224.445 174.357C224.943 174.357 225.362 174.491 225.703 174.761C226.043 175.031 226.302 175.405 226.477 175.884C226.652 176.362 226.74 176.916 226.74 177.545C226.74 178.18 226.65 178.741 226.47 179.229C226.294 179.712 226.036 180.09 225.695 180.365C225.355 180.635 224.938 180.77 224.445 180.77C223.958 180.77 223.543 180.637 223.203 180.372C222.862 180.102 222.601 179.726 222.421 179.243ZM8.40589 198.364V196.091H6.2326V195.359C6.2326 194.99 6.3202 194.704 6.49538 194.5C6.67057 194.292 6.98071 194.188 7.42578 194.188C7.60571 194.188 7.78089 194.204 7.95135 194.237C8.12654 194.27 8.27332 194.306 8.39169 194.344L8.93147 192.071C8.74207 192.014 8.45325 191.95 8.06499 191.879C7.68147 191.808 7.2577 191.773 6.79368 191.773C6.10712 191.773 5.49397 191.903 4.95419 192.163C4.41442 192.424 3.98828 192.814 3.67578 193.335C3.36802 193.856 3.21413 194.512 3.21413 195.303V196.091H1.67294V198.364H3.21413V207H6.2326V198.364H8.40589ZM11.9304 206.51C12.7353 206.979 13.6894 207.213 14.7926 207.213C15.8958 207.213 16.8475 206.979 17.6477 206.51C18.4527 206.036 19.0729 205.378 19.5085 204.536C19.9441 203.688 20.1619 202.706 20.1619 201.588C20.1619 200.461 19.9441 199.476 19.5085 198.634C19.0729 197.786 18.4527 197.128 17.6477 196.659C16.8475 196.186 15.8958 195.949 14.7926 195.949C13.6894 195.949 12.7353 196.186 11.9304 196.659C11.1302 197.128 10.5123 197.786 10.0767 198.634C9.6411 199.476 9.42329 200.461 9.42329 201.588C9.42329 202.706 9.6411 203.688 10.0767 204.536C10.5123 205.378 11.1302 206.036 11.9304 206.51ZM16.0639 204.443C15.7277 204.727 15.3087 204.869 14.8068 204.869C14.3002 204.869 13.8741 204.727 13.5284 204.443C13.1875 204.154 12.9295 203.761 12.7543 203.264C12.5838 202.767 12.4986 202.201 12.4986 201.567C12.4986 200.932 12.5838 200.366 12.7543 199.869C12.9295 199.372 13.1875 198.979 13.5284 198.69C13.8741 198.402 14.3002 198.257 14.8068 198.257C15.3087 198.257 15.7277 198.402 16.0639 198.69C16.4001 198.979 16.6534 199.372 16.8239 199.869C16.9991 200.366 17.0866 200.932 17.0866 201.567C17.0866 202.201 16.9991 202.767 16.8239 203.264C16.6534 203.761 16.4001 204.154 16.0639 204.443ZM22.1293 196.091V207H25.1548V200.828C25.1548 200.383 25.2543 199.99 25.4531 199.649C25.6567 199.308 25.9313 199.043 26.277 198.854C26.6274 198.66 27.0251 198.562 27.4702 198.562C27.6785 198.562 27.9081 198.579 28.1591 198.612C28.41 198.645 28.6065 198.683 28.7486 198.726V196.041C28.616 196.008 28.4621 195.982 28.2869 195.963C28.1117 195.944 27.9484 195.935 27.7969 195.935C27.1861 195.935 26.6463 196.11 26.1776 196.46C25.7088 196.806 25.375 197.317 25.1761 197.994H25.0625V196.091H22.1293ZM40.7443 198.364V196.091H38.6918V193.477H35.6662V196.091H34.1747V198.364H35.6662V204.045C35.6615 204.76 35.8106 205.352 36.1136 205.821C36.4167 206.29 36.8404 206.635 37.3849 206.858C37.9342 207.081 38.5734 207.178 39.3026 207.149C39.6956 207.135 40.0294 207.095 40.304 207.028C40.5786 206.967 40.7917 206.912 40.9432 206.865L40.4673 204.614C40.3916 204.628 40.2827 204.649 40.1406 204.678C39.9986 204.701 39.8565 204.713 39.7145 204.713C39.5109 204.713 39.331 204.682 39.1747 204.621C39.0232 204.559 38.9048 204.453 38.8196 204.301C38.7344 204.145 38.6918 203.927 38.6918 203.648V198.364H40.7443ZM45.9751 207V200.693C45.9799 200.224 46.0698 199.824 46.245 199.493C46.425 199.157 46.6712 198.901 46.9837 198.726C47.3009 198.551 47.6655 198.463 48.0774 198.463C48.6929 198.463 49.1712 198.65 49.5121 199.024C49.8577 199.398 50.0282 199.921 50.0234 200.594V207H53.049V200.054C53.0537 199.202 52.8975 198.47 52.5803 197.859C52.2678 197.244 51.8274 196.773 51.2592 196.446C50.6958 196.115 50.0353 195.949 49.2777 195.949C48.4491 195.949 47.7602 196.134 47.2109 196.503C46.6617 196.867 46.264 197.372 46.0178 198.016H45.8899V192.455H42.9496V207H45.9751ZM57.5039 206.531C58.3136 206.986 59.2795 207.213 60.4016 207.213C61.3013 207.213 62.0943 207.076 62.7809 206.801C63.4722 206.522 64.0356 206.134 64.4712 205.636C64.9116 205.134 65.2028 204.547 65.3448 203.875L62.5465 203.69C62.4424 203.965 62.2908 204.197 62.092 204.386C61.8931 204.576 61.654 204.718 61.3746 204.812C61.0953 204.907 60.7875 204.955 60.4514 204.955C59.9447 204.955 59.5067 204.848 59.1374 204.635C58.7681 204.422 58.4817 204.119 58.2781 203.726C58.0792 203.333 57.9798 202.866 57.9798 202.327V202.32H65.4087V201.489C65.4087 200.561 65.2785 199.751 65.0181 199.06C64.7577 198.364 64.3931 197.786 63.9244 197.327C63.4603 196.867 62.9158 196.524 62.2908 196.297C61.6706 196.065 61.0006 195.949 60.2809 195.949C59.2108 195.949 58.2781 196.186 57.4826 196.659C56.6919 197.133 56.0787 197.793 55.6431 198.641C55.2075 199.488 54.9897 200.473 54.9897 201.595C54.9897 202.746 55.2075 203.742 55.6431 204.585C56.0787 205.423 56.699 206.072 57.5039 206.531ZM57.9826 200.445C58.0009 200.053 58.1017 199.695 58.2852 199.372C58.484 199.017 58.7586 198.735 59.109 198.527C59.4641 198.314 59.8713 198.207 60.3306 198.207C60.771 198.207 61.1568 198.304 61.4883 198.499C61.8245 198.688 62.0872 198.951 62.2766 199.287C62.466 199.623 62.5607 200.009 62.5607 200.445H57.9826ZM77.8786 198.364V196.091H75.7053V195.359C75.7053 194.99 75.7928 194.704 75.968 194.5C76.1432 194.292 76.4534 194.188 76.8984 194.188C77.0784 194.188 77.2536 194.204 77.424 194.237C77.5992 194.27 77.746 194.306 77.8643 194.344L78.4041 192.071C78.2147 192.014 77.9259 191.95 77.5376 191.879C77.1541 191.808 76.7303 191.773 76.2663 191.773C75.5798 191.773 74.9666 191.903 74.4268 192.163C73.8871 192.424 73.4609 192.814 73.1484 193.335C72.8407 193.856 72.6868 194.512 72.6868 195.303V196.091H71.1456V198.364H72.6868V207H75.7053V198.364H77.8786ZM86.7227 196.091V202.355C86.7274 202.843 86.6303 203.252 86.4315 203.584C86.2373 203.915 85.9817 204.166 85.6644 204.337C85.3472 204.502 85.0063 204.585 84.6417 204.585C84.0688 204.585 83.6119 204.398 83.271 204.024C82.93 203.65 82.7572 203.141 82.7525 202.497V196.091H79.7269V203.037C79.7317 203.889 79.8879 204.621 80.1957 205.232C80.5082 205.842 80.9414 206.313 81.4954 206.645C82.0494 206.976 82.6909 207.142 83.4201 207.142C84.2392 207.142 84.9329 206.948 85.5011 206.56C86.074 206.171 86.4836 205.658 86.7298 205.018H86.8434V207H89.7482V196.091H86.7227ZM95.1939 207V192.455H92.1683V207H95.1939ZM100.643 207V192.455H97.6175V207H100.643ZM109.77 206.531C110.579 206.986 111.545 207.213 112.667 207.213C113.567 207.213 114.36 207.076 115.047 206.801C115.738 206.522 116.301 206.134 116.737 205.636C117.177 205.134 117.468 204.547 117.61 203.875L114.812 203.69C114.708 203.965 114.556 204.197 114.358 204.386C114.159 204.576 113.92 204.718 113.64 204.812C113.361 204.907 113.053 204.955 112.717 204.955C112.21 204.955 111.772 204.848 111.403 204.635C111.034 204.422 110.747 204.119 110.544 203.726C110.345 203.333 110.245 202.866 110.245 202.327V202.32H117.674V201.489C117.674 200.561 117.544 199.751 117.284 199.06C117.023 198.364 116.659 197.786 116.19 197.327C115.726 196.867 115.181 196.524 114.556 196.297C113.936 196.065 113.266 195.949 112.547 195.949C111.476 195.949 110.544 196.186 109.748 196.659C108.958 197.133 108.344 197.793 107.909 198.641C107.473 199.488 107.255 200.473 107.255 201.595C107.255 202.746 107.473 203.742 107.909 204.585C108.344 205.423 108.965 206.072 109.77 206.531ZM110.248 200.445C110.266 200.053 110.367 199.695 110.551 199.372C110.75 199.017 111.024 198.735 111.375 198.527C111.73 198.314 112.137 198.207 112.596 198.207C113.037 198.207 113.422 198.304 113.754 198.499C114.09 198.688 114.353 198.951 114.542 199.287C114.732 199.623 114.826 200.009 114.826 200.445H110.248ZM123.985 199.905L121.982 196.091H118.857L121.982 201.545L118.743 207H121.868L123.985 203.229L126.137 207H129.226L125.98 201.545L129.141 196.091H126.037L123.985 199.905ZM130.938 196.091V211.091H133.963V205.253H134.056C134.193 205.556 134.392 205.857 134.652 206.155C134.913 206.448 135.247 206.692 135.654 206.886C136.066 207.081 136.565 207.178 137.152 207.178C137.981 207.178 138.729 206.964 139.397 206.538C140.069 206.107 140.599 205.475 140.988 204.642C141.381 203.804 141.577 202.777 141.577 201.56C141.577 200.31 141.376 199.27 140.973 198.442C140.571 197.608 140.033 196.986 139.361 196.574C138.689 196.157 137.955 195.949 137.159 195.949C136.549 195.949 136.037 196.053 135.625 196.261C135.218 196.465 134.887 196.721 134.631 197.028C134.38 197.331 134.188 197.63 134.056 197.923H133.921V196.091H130.938ZM134.169 203.243C133.989 202.76 133.9 202.194 133.9 201.545C133.9 200.897 133.989 200.333 134.169 199.855C134.349 199.377 134.607 199.008 134.944 198.747C135.284 198.487 135.701 198.357 136.194 198.357C136.691 198.357 137.11 198.491 137.451 198.761C137.792 199.031 138.05 199.405 138.225 199.884C138.4 200.362 138.488 200.916 138.488 201.545C138.488 202.18 138.398 202.741 138.218 203.229C138.042 203.712 137.784 204.09 137.444 204.365C137.103 204.635 136.686 204.77 136.194 204.77C135.706 204.77 135.292 204.637 134.951 204.372C134.61 204.102 134.349 203.726 134.169 203.243ZM145.668 206.531C146.478 206.986 147.444 207.213 148.566 207.213C149.465 207.213 150.258 207.076 150.945 206.801C151.636 206.522 152.2 206.134 152.635 205.636C153.076 205.134 153.367 204.547 153.509 203.875L150.711 203.69C150.606 203.965 150.455 204.197 150.256 204.386C150.057 204.576 149.818 204.718 149.539 204.812C149.259 204.907 148.952 204.955 148.615 204.955C148.109 204.955 147.671 204.848 147.301 204.635C146.932 204.422 146.646 204.119 146.442 203.726C146.243 203.333 146.144 202.866 146.144 202.327V202.32H153.573V201.489C153.573 200.561 153.443 199.751 153.182 199.06C152.922 198.364 152.557 197.786 152.088 197.327C151.624 196.867 151.08 196.524 150.455 196.297C149.835 196.065 149.165 195.949 148.445 195.949C147.375 195.949 146.442 196.186 145.647 196.659C144.856 197.133 144.243 197.793 143.807 198.641C143.372 199.488 143.154 200.473 143.154 201.595C143.154 202.746 143.372 203.742 143.807 204.585C144.243 205.423 144.863 206.072 145.668 206.531ZM146.147 200.445C146.165 200.053 146.266 199.695 146.449 199.372C146.648 199.017 146.923 198.735 147.273 198.527C147.628 198.314 148.035 198.207 148.495 198.207C148.935 198.207 149.321 198.304 149.652 198.499C149.989 198.688 150.251 198.951 150.441 199.287C150.63 199.623 150.725 200.009 150.725 200.445H146.147ZM155.547 196.091V207H158.573V200.828C158.573 200.383 158.672 199.99 158.871 199.649C159.075 199.308 159.349 199.043 159.695 198.854C160.045 198.66 160.443 198.562 160.888 198.562C161.096 198.562 161.326 198.579 161.577 198.612C161.828 198.645 162.025 198.683 162.167 198.726V196.041C162.034 196.008 161.88 195.982 161.705 195.963C161.53 195.944 161.366 195.935 161.215 195.935C160.604 195.935 160.064 196.11 159.596 196.46C159.127 196.806 158.793 197.317 158.594 197.994H158.48V196.091H155.547ZM163.731 196.091V207H166.756V196.091H163.731ZM164.093 194.237C164.415 194.536 164.801 194.685 165.251 194.685C165.701 194.685 166.084 194.536 166.401 194.237C166.723 193.934 166.884 193.572 166.884 193.151C166.884 192.734 166.723 192.376 166.401 192.078C166.084 191.775 165.701 191.624 165.251 191.624C164.801 191.624 164.415 191.775 164.093 192.078C163.776 192.376 163.617 192.734 163.617 193.151C163.617 193.572 163.776 193.934 164.093 194.237ZM171.254 206.531C172.064 206.986 173.029 207.213 174.152 207.213C175.051 207.213 175.844 207.076 176.531 206.801C177.222 206.522 177.786 206.134 178.221 205.636C178.662 205.134 178.953 204.547 179.095 203.875L176.297 203.69C176.192 203.965 176.041 204.197 175.842 204.386C175.643 204.576 175.404 204.718 175.125 204.812C174.845 204.907 174.538 204.955 174.201 204.955C173.695 204.955 173.257 204.848 172.887 204.635C172.518 204.422 172.232 204.119 172.028 203.726C171.829 203.333 171.73 202.866 171.73 202.327V202.32H179.159V201.489C179.159 200.561 179.029 199.751 178.768 199.06C178.508 198.364 178.143 197.786 177.674 197.327C177.21 196.867 176.666 196.524 176.041 196.297C175.421 196.065 174.751 195.949 174.031 195.949C172.961 195.949 172.028 196.186 171.233 196.659C170.442 197.133 169.829 197.793 169.393 198.641C168.958 199.488 168.74 200.473 168.74 201.595C168.74 202.746 168.958 203.742 169.393 204.585C169.829 205.423 170.449 206.072 171.254 206.531ZM171.733 200.445C171.751 200.053 171.852 199.695 172.035 199.372C172.234 199.017 172.509 198.735 172.859 198.527C173.214 198.314 173.621 198.207 174.081 198.207C174.521 198.207 174.907 198.304 175.238 198.499C175.574 198.688 175.837 198.951 176.027 199.287C176.216 199.623 176.311 200.009 176.311 200.445H171.733ZM184.159 207V200.693C184.163 200.224 184.251 199.824 184.422 199.493C184.597 199.157 184.838 198.901 185.146 198.726C185.458 198.551 185.818 198.463 186.225 198.463C186.832 198.463 187.307 198.652 187.653 199.031C187.999 199.405 188.169 199.926 188.164 200.594V207H191.19V200.054C191.19 199.206 191.034 198.477 190.721 197.866C190.409 197.251 189.971 196.777 189.407 196.446C188.844 196.115 188.183 195.949 187.426 195.949C186.616 195.949 185.927 196.136 185.359 196.51C184.791 196.879 184.386 197.381 184.145 198.016H184.017V196.091H181.133V207H184.159ZM195.62 206.503C196.425 206.976 197.386 207.213 198.504 207.213C199.474 207.213 200.315 207.036 201.025 206.68C201.735 206.325 202.291 205.833 202.694 205.203C203.101 204.569 203.328 203.835 203.376 203.001H200.521C200.464 203.385 200.343 203.714 200.158 203.989C199.978 204.259 199.749 204.464 199.469 204.607C199.195 204.749 198.885 204.82 198.539 204.82C198.07 204.82 197.661 204.692 197.31 204.436C196.96 204.18 196.688 203.809 196.494 203.321C196.304 202.833 196.21 202.241 196.21 201.545C196.21 200.859 196.307 200.274 196.501 199.791C196.695 199.308 196.965 198.941 197.31 198.69C197.661 198.435 198.07 198.307 198.539 198.307C199.093 198.307 199.54 198.475 199.881 198.811C200.227 199.143 200.44 199.581 200.521 200.125H203.376C203.333 199.282 203.103 198.548 202.687 197.923C202.27 197.298 201.704 196.813 200.989 196.467C200.274 196.122 199.441 195.949 198.489 195.949C197.386 195.949 196.434 196.188 195.634 196.666C194.834 197.14 194.216 197.8 193.781 198.648C193.35 199.491 193.134 200.471 193.134 201.588C193.134 202.691 193.347 203.667 193.773 204.514C194.204 205.362 194.82 206.025 195.62 206.503ZM207.387 206.531C208.196 206.986 209.162 207.213 210.284 207.213C211.184 207.213 211.977 207.076 212.664 206.801C213.355 206.522 213.918 206.134 214.354 205.636C214.794 205.134 215.086 204.547 215.228 203.875L212.429 203.69C212.325 203.965 212.174 204.197 211.975 204.386C211.776 204.576 211.537 204.718 211.257 204.812C210.978 204.907 210.67 204.955 210.334 204.955C209.828 204.955 209.39 204.848 209.02 204.635C208.651 204.422 208.364 204.119 208.161 203.726C207.962 203.333 207.863 202.866 207.863 202.327V202.32H215.292V201.489C215.292 200.561 215.161 199.751 214.901 199.06C214.641 198.364 214.276 197.786 213.807 197.327C213.343 196.867 212.799 196.524 212.174 196.297C211.553 196.065 210.883 195.949 210.164 195.949C209.094 195.949 208.161 196.186 207.365 196.659C206.575 197.133 205.962 197.793 205.526 198.641C205.09 199.488 204.873 200.473 204.873 201.595C204.873 202.746 205.09 203.742 205.526 204.585C205.962 205.423 206.582 206.072 207.387 206.531ZM207.865 200.445C207.884 200.053 207.985 199.695 208.168 199.372C208.367 199.017 208.641 198.735 208.992 198.527C209.347 198.314 209.754 198.207 210.213 198.207C210.654 198.207 211.04 198.304 211.371 198.499C211.707 198.688 211.97 198.951 212.159 199.287C212.349 199.623 212.444 200.009 212.444 200.445H207.865ZM223.962 206.51C224.767 206.979 225.721 207.213 226.824 207.213C227.927 207.213 228.879 206.979 229.679 206.51C230.484 206.036 231.104 205.378 231.54 204.536C231.975 203.688 232.193 202.706 232.193 201.588C232.193 200.461 231.975 199.476 231.54 198.634C231.104 197.786 230.484 197.128 229.679 196.659C228.879 196.186 227.927 195.949 226.824 195.949C225.721 195.949 224.767 196.186 223.962 196.659C223.161 197.128 222.544 197.786 222.108 198.634C221.672 199.476 221.455 200.461 221.455 201.588C221.455 202.706 221.672 203.688 222.108 204.536C222.544 205.378 223.161 206.036 223.962 206.51ZM228.095 204.443C227.759 204.727 227.34 204.869 226.838 204.869C226.331 204.869 225.905 204.727 225.56 204.443C225.219 204.154 224.961 203.761 224.786 203.264C224.615 202.767 224.53 202.201 224.53 201.567C224.53 200.932 224.615 200.366 224.786 199.869C224.961 199.372 225.219 198.979 225.56 198.69C225.905 198.402 226.331 198.257 226.838 198.257C227.34 198.257 227.759 198.402 228.095 198.69C228.431 198.979 228.685 199.372 228.855 199.869C229.03 200.366 229.118 200.932 229.118 201.567C229.118 202.201 229.03 202.767 228.855 203.264C228.685 203.761 228.431 204.154 228.095 204.443ZM240.027 198.364V196.091H237.854V195.359C237.854 194.99 237.941 194.704 238.116 194.5C238.292 194.292 238.602 194.188 239.047 194.188C239.227 194.188 239.402 194.204 239.572 194.237C239.629 194.248 239.683 194.259 239.734 194.27C239.761 194.276 239.787 194.282 239.813 194.288C239.887 194.306 239.953 194.325 240.013 194.344L240.553 192.071C240.363 192.014 240.074 191.95 239.686 191.879C239.303 191.808 238.879 191.773 238.415 191.773C237.728 191.773 237.115 191.903 236.575 192.163C236.036 192.424 235.609 192.814 235.297 193.335C234.989 193.856 234.835 194.512 234.835 195.303V196.091H233.294V198.364H234.835V207H237.854V198.364H240.027ZM114.752 234.353C118.026 234.353 123.981 233.726 123.981 229.502L123.982 229.504C123.982 227.015 121.916 226.074 118.269 225.751L111.86 225.182C110.229 225.036 108.012 224.702 108.012 222.879C108.012 220.205 112.817 219.607 114.671 219.607C117.069 219.607 119.861 219.989 121.553 220.91V219.597C119.659 218.774 117.06 218.431 114.661 218.431C111.85 218.431 106.803 219.382 106.803 222.801C106.803 225.721 109.725 226.182 112.142 226.397L118.691 226.975C121.099 227.191 122.772 227.808 122.772 229.474C122.772 232.824 117.19 233.177 114.752 233.177C112.101 233.177 109.19 232.442 106.973 230.992V232.373C109.28 233.677 112.142 234.353 114.752 234.353ZM141.757 220.109H133.748V233.809H132.539V220.109H124.529V218.934H141.759V220.109H141.757ZM144.48 218.93V227.396C144.48 232.481 149.316 234.324 153.105 234.324C156.894 234.324 161.729 232.481 161.729 227.396V218.93H160.52V227.396C160.52 231.413 156.763 233.148 153.126 233.148C149.488 233.148 145.689 231.452 145.689 227.396V218.93H144.48ZM183.405 226.371C183.405 232.446 178.256 233.809 173.501 233.809H164.342V218.934H173.501C178.256 218.934 183.405 220.286 183.405 226.371ZM182.196 226.38C182.196 221.256 177.903 220.108 173.501 220.108H165.551V232.632H173.501C177.914 232.632 182.196 231.505 182.196 226.38ZM186.43 233.809V218.934H185.221V233.809H186.43ZM211.836 233.741C212.296 232.538 212.529 231.276 212.529 229.983C212.529 224.014 207.535 219.158 201.398 219.158C195.261 219.158 190.268 224.014 190.268 229.983C190.268 231.276 190.501 232.538 190.961 233.741H189.891C189.471 232.529 189.258 231.265 189.258 229.983C189.258 223.472 194.704 218.175 201.398 218.175C208.092 218.175 213.539 223.472 213.539 229.983C213.539 231.265 213.326 232.529 212.905 233.741H211.836ZM205.962 223.48C207.241 223.157 208.737 224.616 209.302 226.739C209.868 228.86 209.292 230.843 208.013 231.165C206.735 231.487 205.239 230.028 204.673 227.906C204.107 225.785 204.684 223.802 205.962 223.48ZM199.265 224.853C197.944 225.186 197.337 227.192 197.908 229.332C198.479 231.472 200.012 232.938 201.333 232.604C202.654 232.271 203.261 230.265 202.69 228.125C202.118 225.984 200.586 224.519 199.265 224.853ZM50.9526 233.338V218.429H46.0549L39.7333 229.223L33.4116 218.429H28.4629V233.338H32.2494V223.986L37.7206 233.338H41.6841L47.1151 224.067V233.338H50.9526ZM60.9952 221.69H61.0158C64.5199 221.69 67.1963 222.76 67.9534 224.508C68.1652 225 68.2358 225.559 68.2358 226.698V233.338H64.8023L64.6003 231.855C63.7118 232.965 61.207 233.848 58.2884 233.848C55.3698 233.848 52.4512 232.934 52.4512 230.184C52.4512 228.445 53.6025 227.483 55.0266 226.973C57.1577 226.197 60.7519 226.118 64.6003 226.118V226.01C64.6003 225.039 63.2273 224.429 60.6216 224.429C58.3188 224.429 56.0172 224.911 54.0175 225.725V222.799C55.6229 222.18 58.6023 221.689 60.9952 221.689V221.69ZM64.6003 228.378H63.8226C62.3584 228.378 58.1982 228.378 56.885 229.153C56.6124 229.32 56.2996 229.615 56.2996 230.057C56.2996 230.999 57.754 231.167 58.4904 231.167C62.1661 231.167 64.6003 229.821 64.6003 228.378ZM86.7557 233.338V227.966C86.7557 222.917 83.5036 221.69 79.9289 221.69C77.8239 221.69 75.5635 222.457 74.0515 223.864L73.8495 222.2H70.416V233.338H74.0515V227.77C74.0515 225.845 76.4249 224.489 79.2425 224.489C80.8174 224.489 83.1202 225.265 83.1202 227.966V233.338H86.7557ZM104.961 227.835L104.891 228.807H92.2778C92.9741 230.752 95.7308 231.115 97.5589 231.115C99.6292 231.115 101.598 230.654 103.537 230.055V233.099C101.518 233.649 99.387 233.915 97.3471 233.915C93.0349 233.915 88.4805 232.736 88.4805 227.845C88.4805 222.953 93.3477 221.755 96.7204 221.755C100.093 221.755 104.96 222.797 104.96 227.835H104.961ZM92.3082 226.745H101.144C101.144 226.057 100.407 224.555 96.7215 224.555C93.036 224.555 92.3082 226.058 92.3082 226.745ZM198.309 84.3041C192.738 63.4104 178.013 49.0479 165.427 52.2199C152.841 55.392 147.163 74.9128 152.734 95.7961C158.305 116.69 173.03 131.052 185.616 127.88C198.202 124.708 203.88 105.187 198.309 84.3041ZM86.1411 109.835C80.5164 88.7641 86.494 69.0145 99.4971 65.7385C112.5 62.4521 127.588 76.8769 133.213 97.9474C138.838 119.018 132.86 138.768 119.857 142.044C106.854 145.33 91.7658 130.905 86.1411 109.835Z" fill="white"/>
</svg>