<svg viewBox="0 0 9 9" fill="none" xmlns="http://www.w3.org/2000/svg">
<g>
<g clip-path="url(#clip0_821_670)">
<path d="M1.33425 8.18279C1.16822 8.18279 1.02295 8.12053 0.89843 7.99601C0.77391 7.87149 0.711651 7.72622 0.711651 7.56019V1.33423C0.711651 1.1682 0.77391 1.02293 0.89843 0.898411C1.02295 0.773892 1.16822 0.711632 1.33425 0.711632H3.91802C4.00795 0.711632 4.08232 0.741033 4.14112 0.799833C4.19992 0.858634 4.22932 0.933 4.22932 1.02293C4.22932 1.11286 4.19992 1.18723 4.14112 1.24603C4.08232 1.30483 4.00795 1.33423 3.91802 1.33423H1.33425V7.56019H7.56021V4.97642C7.56021 4.88649 7.58961 4.81212 7.64841 4.75332C7.70721 4.69452 7.78158 4.66512 7.87151 4.66512C7.96144 4.66512 8.0358 4.69452 8.0946 4.75332C8.1534 4.81212 8.1828 4.88649 8.1828 4.97642V7.56019C8.1828 7.72622 8.12054 7.87149 7.99603 7.99601C7.87151 8.12053 7.72623 8.18279 7.56021 8.18279H1.33425ZM3.21241 5.68202C3.15707 5.61977 3.12767 5.54713 3.12421 5.46412C3.12075 5.3811 3.15015 5.30847 3.21241 5.24621L7.12439 1.33423H5.16321C5.07328 1.33423 4.99892 1.30483 4.94012 1.24603C4.88132 1.18723 4.85192 1.11286 4.85192 1.02293C4.85192 0.933 4.88132 0.858634 4.94012 0.799833C4.99892 0.741033 5.07328 0.711632 5.16321 0.711632H7.87151C7.96144 0.711632 8.0358 0.741033 8.0946 0.799833C8.1534 0.858634 8.1828 0.933 8.1828 1.02293V3.73122C8.1828 3.82115 8.1534 3.89552 8.0946 3.95432C8.0358 4.01312 7.96144 4.04252 7.87151 4.04252C7.78158 4.04252 7.70721 4.01312 7.64841 3.95432C7.58961 3.89552 7.56021 3.82115 7.56021 3.73122V1.78042L3.64823 5.6924C3.59289 5.74774 3.52198 5.77541 3.43551 5.77541C3.34904 5.77541 3.27467 5.74428 3.21241 5.68202Z" fill="currentColor"/>
</g>
</g>
<defs>
<clipPath id="clip0_821_670">
<rect width="8.53846" height="8.53846" fill="currentColor"/>
</clipPath>
</defs>
</svg>
