<svg width="52" height="44" viewBox="0 0 52 44" fill="none" xmlns="http://www.w3.org/2000/svg">
<path opacity="0.117647" d="M7.33341 0H3.66675V3.66667H7.33341V0Z" fill="#222034"/>
<path d="M10.9999 0H7.33325V3.66667H10.9999V0Z" fill="#222034"/>
<path d="M14.6667 0H11V3.66667H14.6667V0Z" fill="#222034"/>
<path d="M18.3334 0H14.6667V3.66667H18.3334V0Z" fill="#222034"/>
<path d="M21.9999 0H18.3333V3.66667H21.9999V0Z" fill="#222034"/>
<path d="M25.6667 0H22V3.66667H25.6667V0Z" fill="#222034"/>
<path d="M29.3334 0H25.6667V3.66667H29.3334V0Z" fill="#222034"/>
<path d="M32.9999 0H29.3333V3.66667H32.9999V0Z" fill="#222034"/>
<path d="M36.6667 0H33V3.66667H36.6667V0Z" fill="#222034"/>
<path opacity="0.117647" d="M40.3334 0H36.6667V3.66667H40.3334V0Z" fill="#222034"/>
<path opacity="0.117647" d="M3.66667 3.66675H0V7.33341H3.66667V3.66675Z" fill="#222034"/>
<path d="M7.33341 3.66675H3.66675V7.33341H7.33341V3.66675Z" fill="#222034"/>
<path d="M10.9999 3.66675H7.33325V7.33341H10.9999V3.66675Z" fill="white"/>
<path d="M14.6667 3.66675H11V7.33341H14.6667V3.66675Z" fill="white"/>
<path d="M18.3334 3.66675H14.6667V7.33341H18.3334V3.66675Z" fill="white"/>
<path d="M21.9999 3.66675H18.3333V7.33341H21.9999V3.66675Z" fill="white"/>
<path d="M25.6667 3.66675H22V7.33341H25.6667V3.66675Z" fill="white"/>
<path d="M29.3334 3.66675H25.6667V7.33341H29.3334V3.66675Z" fill="white"/>
<path d="M32.9999 3.66675H29.3333V7.33341H32.9999V3.66675Z" fill="white"/>
<path d="M36.6667 3.66675H33V7.33341H36.6667V3.66675Z" fill="white"/>
<path d="M40.3334 3.66675H36.6667V7.33341H40.3334V3.66675Z" fill="#222034"/>
<path opacity="0.117647" d="M43.9999 3.66675H40.3333V7.33341H43.9999V3.66675Z" fill="#222034"/>
<path d="M3.66667 7.33325H0V10.9999H3.66667V7.33325Z" fill="#222034"/>
<path d="M7.33341 7.33325H3.66675V10.9999H7.33341V7.33325Z" fill="white"/>
<path d="M10.9999 7.33325H7.33325V10.9999H10.9999V7.33325Z" fill="white"/>
<path d="M14.6667 7.33325H11V10.9999H14.6667V7.33325Z" fill="white"/>
<path d="M18.3334 7.33325H14.6667V10.9999H18.3334V7.33325Z" fill="white"/>
<path d="M21.9999 7.33325H18.3333V10.9999H21.9999V7.33325Z" fill="white"/>
<path d="M25.6667 7.33325H22V10.9999H25.6667V7.33325Z" fill="white"/>
<path d="M29.3334 7.33325H25.6667V10.9999H29.3334V7.33325Z" fill="white"/>
<path d="M32.9999 7.33325H29.3333V10.9999H32.9999V7.33325Z" fill="white"/>
<path d="M36.6667 7.33325H33V10.9999H36.6667V7.33325Z" fill="white"/>
<path d="M40.3334 7.33325H36.6667V10.9999H40.3334V7.33325Z" fill="white"/>
<path d="M43.9999 7.33325H40.3333V10.9999H43.9999V7.33325Z" fill="#222034"/>
<path d="M3.66667 11H0V14.6667H3.66667V11Z" fill="#222034"/>
<path d="M7.33341 11H3.66675V14.6667H7.33341V11Z" fill="white"/>
<path d="M10.9999 11H7.33325V14.6667H10.9999V11Z" fill="white"/>
<path d="M14.6667 11H11V14.6667H14.6667V11Z" fill="white"/>
<path d="M18.3334 11H14.6667V14.6667H18.3334V11Z" fill="white"/>
<path d="M21.9999 11H18.3333V14.6667H21.9999V11Z" fill="white"/>
<path d="M25.6667 11H22V14.6667H25.6667V11Z" fill="white"/>
<path d="M29.3334 11H25.6667V14.6667H29.3334V11Z" fill="#222034"/>
<path d="M32.9999 11H29.3333V14.6667H32.9999V11Z" fill="white"/>
<path d="M36.6667 11H33V14.6667H36.6667V11Z" fill="white"/>
<path d="M40.3334 11H36.6667V14.6667H40.3334V11Z" fill="white"/>
<path d="M43.9999 11H40.3333V14.6667H43.9999V11Z" fill="#222034"/>
<path d="M3.66667 14.6667H0V18.3334H3.66667V14.6667Z" fill="#222034"/>
<path d="M7.33341 14.6667H3.66675V18.3334H7.33341V14.6667Z" fill="white"/>
<path d="M10.9999 14.6667H7.33325V18.3334H10.9999V14.6667Z" fill="white"/>
<path d="M14.6667 14.6667H11V18.3334H14.6667V14.6667Z" fill="white"/>
<path d="M18.3334 14.6667H14.6667V18.3334H18.3334V14.6667Z" fill="#222034"/>
<path d="M21.9999 14.6667H18.3333V18.3334H21.9999V14.6667Z" fill="white"/>
<path d="M25.6667 14.6667H22V18.3334H25.6667V14.6667Z" fill="white"/>
<path d="M29.3334 14.6667H25.6667V18.3334H29.3334V14.6667Z" fill="#222034"/>
<path d="M32.9999 14.6667H29.3333V18.3334H32.9999V14.6667Z" fill="white"/>
<path d="M36.6667 14.6667H33V18.3334H36.6667V14.6667Z" fill="white"/>
<path d="M40.3334 14.6667H36.6667V18.3334H40.3334V14.6667Z" fill="white"/>
<path d="M43.9999 14.6667H40.3333V18.3334H43.9999V14.6667Z" fill="#222034"/>
<path d="M3.66667 18.3333H0V21.9999H3.66667V18.3333Z" fill="#222034"/>
<path d="M7.33341 18.3333H3.66675V21.9999H7.33341V18.3333Z" fill="#F3A2C4"/>
<path d="M10.9999 18.3333H7.33325V21.9999H10.9999V18.3333Z" fill="white"/>
<path d="M14.6667 18.3333H11V21.9999H14.6667V18.3333Z" fill="white"/>
<path d="M18.3334 18.3333H14.6667V21.9999H18.3334V18.3333Z" fill="white"/>
<path d="M21.9999 18.3333H18.3333V21.9999H21.9999V18.3333Z" fill="white"/>
<path d="M25.6667 18.3333H22V21.9999H25.6667V18.3333Z" fill="white"/>
<path d="M29.3334 18.3333H25.6667V21.9999H29.3334V18.3333Z" fill="white"/>
<path d="M32.9999 18.3333H29.3333V21.9999H32.9999V18.3333Z" fill="white"/>
<path d="M36.6667 18.3333H33V21.9999H36.6667V18.3333Z" fill="white"/>
<path d="M40.3334 18.3333H36.6667V21.9999H40.3334V18.3333Z" fill="#F3A2C4"/>
<path d="M43.9999 18.3333H40.3333V21.9999H43.9999V18.3333Z" fill="#222034"/>
<path d="M3.66667 22H0V25.6667H3.66667V22Z" fill="#222034"/>
<path d="M7.33341 22H3.66675V25.6667H7.33341V22Z" fill="white"/>
<path d="M10.9999 22H7.33325V25.6667H10.9999V22Z" fill="white"/>
<path d="M14.6667 22H11V25.6667H14.6667V22Z" fill="#222034"/>
<path d="M18.3334 22H14.6667V25.6667H18.3334V22Z" fill="white"/>
<path d="M21.9999 22H18.3333V25.6667H21.9999V22Z" fill="white"/>
<path d="M25.6667 22H22V25.6667H25.6667V22Z" fill="white"/>
<path d="M29.3334 22H25.6667V25.6667H29.3334V22Z" fill="white"/>
<path d="M32.9999 22H29.3333V25.6667H32.9999V22Z" fill="#222034"/>
<path d="M36.6667 22H33V25.6667H36.6667V22Z" fill="white"/>
<path d="M40.3334 22H36.6667V25.6667H40.3334V22Z" fill="white"/>
<path d="M43.9999 22H40.3333V25.6667H43.9999V22Z" fill="#222034"/>
<path d="M3.66667 25.6667H0V29.3334H3.66667V25.6667Z" fill="#222034"/>
<path d="M7.33341 25.6667H3.66675V29.3334H7.33341V25.6667Z" fill="white"/>
<path d="M10.9999 25.6667H7.33325V29.3334H10.9999V25.6667Z" fill="white"/>
<path d="M14.6667 25.6667H11V29.3334H14.6667V25.6667Z" fill="#222034"/>
<path d="M18.3334 25.6667H14.6667V29.3334H18.3334V25.6667Z" fill="#222034"/>
<path d="M21.9999 25.6667H18.3333V29.3334H21.9999V25.6667Z" fill="#222034"/>
<path d="M25.6667 25.6667H22V29.3334H25.6667V25.6667Z" fill="#222034"/>
<path d="M29.3334 25.6667H25.6667V29.3334H29.3334V25.6667Z" fill="#222034"/>
<path d="M32.9999 25.6667H29.3333V29.3334H32.9999V25.6667Z" fill="#222034"/>
<path d="M36.6667 25.6667H33V29.3334H36.6667V25.6667Z" fill="white"/>
<path d="M40.3334 25.6667H36.6667V29.3334H40.3334V25.6667Z" fill="white"/>
<path d="M43.9999 25.6667H40.3333V29.3334H43.9999V25.6667Z" fill="#222034"/>
<path d="M3.66667 29.3333H0V32.9999H3.66667V29.3333Z" fill="#222034"/>
<path d="M7.33341 29.3333H3.66675V32.9999H7.33341V29.3333Z" fill="white"/>
<path d="M10.9999 29.3333H7.33325V32.9999H10.9999V29.3333Z" fill="white"/>
<path d="M14.6667 29.3333H11V32.9999H14.6667V29.3333Z" fill="white"/>
<path d="M18.3334 29.3333H14.6667V32.9999H18.3334V29.3333Z" fill="#222034"/>
<path d="M21.9999 29.3333H18.3333V32.9999H21.9999V29.3333Z" fill="#222034"/>
<path d="M25.6667 29.3333H22V32.9999H25.6667V29.3333Z" fill="#222034"/>
<path d="M29.3334 29.3333H25.6667V32.9999H29.3334V29.3333Z" fill="#222034"/>
<path d="M32.9999 29.3333H29.3333V32.9999H32.9999V29.3333Z" fill="white"/>
<path d="M36.6667 29.3333H33V32.9999H36.6667V29.3333Z" fill="white"/>
<path d="M40.3334 29.3333H36.6667V32.9999H40.3334V29.3333Z" fill="white"/>
<path d="M43.9999 29.3333H40.3333V32.9999H43.9999V29.3333Z" fill="#222034"/>
<path d="M3.66667 33H0V36.6667H3.66667V33Z" fill="#222034"/>
<path d="M7.33341 33H3.66675V36.6667H7.33341V33Z" fill="#9BADB7"/>
<path d="M10.9999 33H7.33325V36.6667H10.9999V33Z" fill="white"/>
<path d="M14.6667 33H11V36.6667H14.6667V33Z" fill="white"/>
<path d="M18.3334 33H14.6667V36.6667H18.3334V33Z" fill="white"/>
<path d="M21.9999 33H18.3333V36.6667H21.9999V33Z" fill="white"/>
<path d="M25.6667 33H22V36.6667H25.6667V33Z" fill="white"/>
<path d="M29.3334 33H25.6667V36.6667H29.3334V33Z" fill="white"/>
<path d="M32.9999 33H29.3333V36.6667H32.9999V33Z" fill="white"/>
<path d="M36.6667 33H33V36.6667H36.6667V33Z" fill="white"/>
<path d="M40.3334 33H36.6667V36.6667H40.3334V33Z" fill="#9BADB7"/>
<path d="M43.9999 33H40.3333V36.6667H43.9999V33Z" fill="#222034"/>
<path opacity="0.117647" d="M3.66667 36.6667H0V40.3334H3.66667V36.6667Z" fill="#222034"/>
<path d="M7.33341 36.6667H3.66675V40.3334H7.33341V36.6667Z" fill="#222034"/>
<path d="M10.9999 36.6667H7.33325V40.3334H10.9999V36.6667Z" fill="#9BADB7"/>
<path d="M14.6667 36.6667H11V40.3334H14.6667V36.6667Z" fill="#9BADB7"/>
<path d="M18.3334 36.6667H14.6667V40.3334H18.3334V36.6667Z" fill="#9BADB7"/>
<path d="M21.9999 36.6667H18.3333V40.3334H21.9999V36.6667Z" fill="#9BADB7"/>
<path d="M25.6667 36.6667H22V40.3334H25.6667V36.6667Z" fill="#9BADB7"/>
<path d="M29.3334 36.6667H25.6667V40.3334H29.3334V36.6667Z" fill="#9BADB7"/>
<path d="M32.9999 36.6667H29.3333V40.3334H32.9999V36.6667Z" fill="#9BADB7"/>
<path d="M36.6667 36.6667H33V40.3334H36.6667V36.6667Z" fill="#9BADB7"/>
<path d="M40.3334 36.6667H36.6667V40.3334H40.3334V36.6667Z" fill="#222034"/>
<path opacity="0.117647" d="M43.9999 36.6667H40.3333V40.3334H43.9999V36.6667Z" fill="#222034"/>
<path opacity="0.117647" d="M7.33341 40.3333H3.66675V43.9999H7.33341V40.3333Z" fill="#222034"/>
<path d="M10.9999 40.3333H7.33325V43.9999H10.9999V40.3333Z" fill="#222034"/>
<path d="M14.6667 40.3333H11V43.9999H14.6667V40.3333Z" fill="#222034"/>
<path d="M18.3334 40.3333H14.6667V43.9999H18.3334V40.3333Z" fill="#222034"/>
<path d="M21.9999 40.3333H18.3333V43.9999H21.9999V40.3333Z" fill="#222034"/>
<path d="M25.6667 40.3333H22V43.9999H25.6667V40.3333Z" fill="#222034"/>
<path d="M29.3334 40.3333H25.6667V43.9999H29.3334V40.3333Z" fill="#222034"/>
<path d="M32.9999 40.3333H29.3333V43.9999H32.9999V40.3333Z" fill="#222034"/>
<path d="M36.6667 40.3333H33V43.9999H36.6667V40.3333Z" fill="#222034"/>
<path opacity="0.117647" d="M40.3334 40.3333H36.6667V43.9999H40.3334V40.3333Z" fill="#222034"/>
<path d="M50.5 32V30.5V29H49V27.5H47.5H46V26H44.5H43H41.5H40V27.5H38.5H37V29H35.5V30.5V32H34V33.5V35V36.5V38H35.5V39.5V41H37V42.5H38.5H40V44H41.5H43H44.5H46V42.5H47.5H49V41H50.5V39.5V38H52V36.5V35V33.5V32H50.5Z" fill="#6ABE30"/>
<path d="M49 33.5H47.5V35H49V33.5Z" fill="#63AE2D"/>
<path d="M38.5 35H37V36.5H38.5V35Z" fill="#63AE2D"/>
<path d="M47.5 35H46V36.5H47.5V35Z" fill="#63AE2D"/>
<path d="M40 36.5H38.5V38H40V36.5Z" fill="#63AE2D"/>
<path d="M46 36.5H44.5V38H46V36.5Z" fill="#63AE2D"/>
<path d="M41.5 38H40V39.5H41.5V38Z" fill="#63AE2D"/>
<path d="M44.5 38H43V39.5H44.5V38Z" fill="#63AE2D"/>
<path d="M43 39.5H41.5V41H43V39.5Z" fill="#63AE2D"/>
<path d="M47.5 30.5V32H46V33.5H44.5V35H43V36.5H41.5V35H40V33.5H38.5H37V35H38.5V36.5H40V38H41.5V39.5H43V38H44.5V36.5H46V35H47.5V33.5H49V32V30.5H47.5Z" fill="white"/>
</svg>
