<svg width="24" height="24" viewBox="0 0 24 24" fill="none" xmlns="http://www.w3.org/2000/svg">
<path d="M10 0H8V2H10V0Z" fill="white"/>
<path d="M12 0H10V2H12V0Z" fill="white"/>
<path d="M14 0H12V2H14V0Z" fill="white"/>
<path d="M16 0H14V2H16V0Z" fill="white"/>
<path d="M6 2H4V4H6V2Z" fill="white"/>
<path d="M8 2H6V4H8V2Z" fill="white"/>
<path d="M10 2H8V4H10V2Z" fill="white"/>
<path d="M12 2H10V4H12V2Z" fill="white"/>
<path d="M14 2H12V4H14V2Z" fill="white"/>
<path d="M16 2H14V4H16V2Z" fill="white"/>
<path d="M18 2H16V4H18V2Z" fill="white"/>
<path d="M20 2H18V4H20V2Z" fill="white"/>
<path d="M4 4H2V6H4V4Z" fill="white"/>
<path d="M6 4H4V6H6V4Z" fill="white"/>
<path d="M8 4H6V6H8V4Z" fill="white"/>
<path d="M10 4H8V6H10V4Z" fill="white"/>
<path d="M12 4H10V6H12V4Z" fill="white"/>
<path d="M14 4H12V6H14V4Z" fill="white"/>
<path d="M16 4H14V6H16V4Z" fill="white"/>
<path d="M18 4H16V6H18V4Z" fill="white"/>
<path d="M20 4H18V6H20V4Z" fill="white"/>
<path d="M22 4H20V6H22V4Z" fill="white"/>
<path d="M4 6H2V8H4V6Z" fill="white"/>
<path d="M6 6H4V8H6V6Z" fill="white"/>
<path d="M8 6H6V8H8V6Z" fill="white"/>
<path d="M10 6H8V8H10V6Z" fill="white"/>
<path d="M14 6H12V8H14V6Z" fill="white"/>
<path d="M16 6H14V8H16V6Z" fill="white"/>
<path d="M18 6H16V8H18V6Z" fill="white"/>
<path d="M20 6H18V8H20V6Z" fill="white"/>
<path d="M22 6H20V8H22V6Z" fill="white"/>
<path d="M2 8H0V10H2V8Z" fill="white"/>
<path d="M4 8H2V10H4V8Z" fill="white"/>
<path d="M6 8H4V10H6V8Z" fill="white"/>
<path d="M8 8H6V10H8V8Z" fill="white"/>
<path d="M10 8H8V10H10V8Z" fill="white"/>
<path d="M14 8H12V10H14V8Z" fill="white"/>
<path d="M16 8H14V10H16V8Z" fill="white"/>
<path d="M18 8H16V10H18V8Z" fill="white"/>
<path d="M20 8H18V10H20V8Z" fill="white"/>
<path d="M22 8H20V10H22V8Z" fill="white"/>
<path d="M24 8H22V10H24V8Z" fill="white"/>
<path d="M2 10H0V12H2V10Z" fill="white"/>
<path d="M4 10H2V12H4V10Z" fill="white"/>
<path d="M6 10H4V12H6V10Z" fill="white"/>
<path d="M8 10H6V12H8V10Z" fill="white"/>
<path d="M10 10H8V12H10V10Z" fill="white"/>
<path d="M14 10H12V12H14V10Z" fill="white"/>
<path d="M16 10H14V12H16V10Z" fill="white"/>
<path d="M18 10H16V12H18V10Z" fill="white"/>
<path d="M20 10H18V12H20V10Z" fill="white"/>
<path d="M22 10H20V12H22V10Z" fill="white"/>
<path d="M24 10H22V12H24V10Z" fill="white"/>
<path d="M2 12H0V14H2V12Z" fill="white"/>
<path d="M4 12H2V14H4V12Z" fill="white"/>
<path d="M6 12H4V14H6V12Z" fill="white"/>
<path d="M8 12H6V14H8V12Z" fill="white"/>
<path d="M10 12H8V14H10V12Z" fill="white"/>
<path d="M20 12H18V14H20V12Z" fill="white"/>
<path d="M22 12H20V14H22V12Z" fill="white"/>
<path d="M24 12H22V14H24V12Z" fill="white"/>
<path d="M2 14H0V16H2V14Z" fill="white"/>
<path d="M4 14H2V16H4V14Z" fill="white"/>
<path d="M6 14H4V16H6V14Z" fill="white"/>
<path d="M8 14H6V16H8V14Z" fill="white"/>
<path d="M10 14H8V16H10V14Z" fill="white"/>
<path d="M12 14H10V16H12V14Z" fill="white"/>
<path d="M14 14H12V16H14V14Z" fill="white"/>
<path d="M16 14H14V16H16V14Z" fill="white"/>
<path d="M18 14H16V16H18V14Z" fill="white"/>
<path d="M20 14H18V16H20V14Z" fill="white"/>
<path d="M22 14H20V16H22V14Z" fill="white"/>
<path d="M24 14H22V16H24V14Z" fill="white"/>
<path d="M4 16H2V18H4V16Z" fill="white"/>
<path d="M6 16H4V18H6V16Z" fill="white"/>
<path d="M8 16H6V18H8V16Z" fill="white"/>
<path d="M10 16H8V18H10V16Z" fill="white"/>
<path d="M12 16H10V18H12V16Z" fill="white"/>
<path d="M14 16H12V18H14V16Z" fill="white"/>
<path d="M16 16H14V18H16V16Z" fill="white"/>
<path d="M18 16H16V18H18V16Z" fill="white"/>
<path d="M20 16H18V18H20V16Z" fill="white"/>
<path d="M22 16H20V18H22V16Z" fill="white"/>
<path d="M4 18H2V20H4V18Z" fill="white"/>
<path d="M6 18H4V20H6V18Z" fill="white"/>
<path d="M8 18H6V20H8V18Z" fill="white"/>
<path d="M10 18H8V20H10V18Z" fill="white"/>
<path d="M12 18H10V20H12V18Z" fill="white"/>
<path d="M14 18H12V20H14V18Z" fill="white"/>
<path d="M16 18H14V20H16V18Z" fill="white"/>
<path d="M18 18H16V20H18V18Z" fill="white"/>
<path d="M20 18H18V20H20V18Z" fill="white"/>
<path d="M22 18H20V20H22V18Z" fill="white"/>
<path d="M6 20H4V22H6V20Z" fill="white"/>
<path d="M8 20H6V22H8V20Z" fill="white"/>
<path d="M10 20H8V22H10V20Z" fill="white"/>
<path d="M12 20H10V22H12V20Z" fill="white"/>
<path d="M14 20H12V22H14V20Z" fill="white"/>
<path d="M16 20H14V22H16V20Z" fill="white"/>
<path d="M18 20H16V22H18V20Z" fill="white"/>
<path d="M20 20H18V22H20V20Z" fill="white"/>
<path d="M10 22H8V24H10V22Z" fill="white"/>
<path d="M12 22H10V24H12V22Z" fill="white"/>
<path d="M14 22H12V24H14V22Z" fill="white"/>
<path d="M16 22H14V24H16V22Z" fill="white"/>
</svg>
