<svg viewBox="0 0 165 20" fill="none" xmlns="http://www.w3.org/2000/svg">
<path fill-rule="evenodd" clip-rule="evenodd" d="M164.1 10.3607C164.098 10.3313 164.089 10.303 164.072 10.2786C164.056 10.2542 164.033 10.2346 164.007 10.2219C163.986 10.211 163.963 10.2049 163.939 10.2041L163.892 10.2027C163.762 10.1988 163.638 10.195 163.516 10.211C163.196 10.2536 162.878 10.3127 162.562 10.3828C162.176 10.4684 161.792 10.5587 161.407 10.6491L161.407 10.6492L161.406 10.6495C161.241 10.6881 161.077 10.7267 160.913 10.765C160.871 10.7749 160.829 10.7846 160.787 10.7942L160.769 10.7983C160.568 11.416 160.201 11.8565 159.706 11.985C159.197 12.117 158.647 11.8962 158.162 11.4299C158.112 11.4403 158.063 11.4509 158.013 11.4616C157.981 11.4677 157.95 11.4747 157.918 11.4818L157.903 11.485C157.777 11.5128 157.651 11.5436 157.525 11.5744L157.525 11.5745C157.464 11.5893 157.403 11.6042 157.343 11.6187C157.351 11.6005 157.362 11.5843 157.377 11.5712C157.392 11.5581 157.41 11.5486 157.429 11.5431C157.573 11.4917 157.717 11.4402 157.862 11.3888L157.927 11.3657L158.053 11.3204C157.748 10.9974 157.473 10.5765 157.257 10.086L157.153 10.1107C156.882 10.1739 156.612 10.2376 156.342 10.3018C156.133 10.3513 155.927 10.4062 155.722 10.4622C155.691 10.4703 155.661 10.4793 155.63 10.4885L155.612 10.4938C155.576 10.504 155.54 10.5144 155.503 10.525C155.567 11.8717 155.076 12.9773 154.218 13.2C153.134 13.4815 151.874 12.2442 151.405 10.4365C151.16 9.49401 151.179 8.5825 151.406 7.88598C151.357 7.90001 151.308 7.91394 151.259 7.92778C151.163 7.95613 151.068 7.98422 150.972 8.01234L150.968 8.0134C150.866 8.04334 150.764 8.07334 150.662 8.10376C150.658 8.10399 150.653 8.10493 150.65 8.10652C150.632 8.11196 150.615 8.11748 150.599 8.123L150.581 8.1271C150.577 8.12848 150.574 8.1302 150.57 8.13192C150.566 8.13363 150.562 8.13535 150.559 8.13673C150.549 8.13934 150.54 8.14255 150.531 8.14635L150.529 8.14744C150.517 8.15276 150.503 8.15909 150.49 8.16417C150.489 8.16417 150.487 8.16487 150.485 8.16557C150.484 8.16625 150.482 8.16693 150.48 8.16693C150.46 8.17522 150.441 8.18342 150.421 8.19304C150.373 8.21505 150.336 8.23153 150.305 8.24392C150.296 8.24668 150.288 8.24944 150.281 8.25221C150.279 8.25325 150.276 8.25421 150.273 8.25507C150.268 8.25678 150.263 8.25812 150.258 8.25907C150.249 8.26281 150.239 8.26512 150.229 8.26593C150.214 8.26967 150.198 8.27196 150.182 8.27279C150.15 8.27438 150.118 8.27393 150.086 8.27145L150.08 8.27112C150.059 8.26981 150.037 8.26847 150.01 8.26593C150.031 8.25294 150.05 8.24063 150.067 8.22933C150.098 8.20838 150.125 8.19096 150.153 8.17932C150.535 8.02677 150.921 7.87832 151.313 7.74912C151.367 7.73096 151.421 7.7132 151.476 7.69584C151.695 7.15633 152.053 6.77459 152.519 6.65361C152.973 6.53588 153.457 6.68376 153.901 7.02789L153.953 7.01369C153.988 7.00394 154.023 6.99413 154.059 6.98478C154.596 6.84043 155.133 6.69884 155.68 6.57926C155.668 6.58426 155.657 6.58956 155.645 6.59485C155.621 6.60559 155.598 6.61632 155.573 6.62461C155.451 6.66414 155.329 6.70431 155.207 6.74446L155.207 6.74453C154.93 6.83561 154.654 6.92657 154.375 7.00955C154.302 7.03147 154.229 7.05214 154.156 7.07272C154.107 7.08703 154.057 7.10119 154.008 7.11525C154.383 7.43742 154.725 7.89997 154.988 8.45908L155.091 8.42097L155.332 8.33048C155.597 8.23114 155.862 8.13174 156.127 8.0347C156.273 7.98124 156.484 7.90996 156.673 7.85052C156.697 7.84283 156.72 7.83544 156.743 7.82835C156.756 7.82408 156.77 7.81991 156.783 7.81584C156.799 6.63004 157.258 5.69196 158.021 5.4939C158.791 5.29406 159.657 5.90315 160.247 6.94892C160.269 6.94539 160.29 6.94195 160.312 6.93861C160.328 6.93609 160.344 6.93363 160.36 6.93122C160.611 6.89095 160.862 6.85674 161.114 6.82251C161.196 6.8113 161.279 6.80009 161.361 6.78866C161.382 6.78597 161.404 6.78296 161.425 6.77995L161.425 6.77994C161.434 6.77859 161.444 6.77725 161.453 6.77593C161.466 6.77416 161.479 6.77243 161.492 6.77084C161.694 6.74287 161.896 6.71586 162.099 6.68882C162.385 6.65071 162.671 6.61252 162.957 6.57151C163 6.56459 163.042 6.55404 163.083 6.53997C163.098 6.53469 163.111 6.52622 163.122 6.51519C163.136 6.50164 163.145 6.48402 163.149 6.46483C163.152 6.44565 163.15 6.42586 163.141 6.40827L163.125 6.37247L163.125 6.37204C163.078 6.26777 163.034 6.17136 162.979 6.08384C162.92 5.99313 162.858 5.90509 162.796 5.81714C162.759 5.76537 162.722 5.71394 162.684 5.66253L162.682 5.65862C162.615 5.56669 162.548 5.47484 162.483 5.38133C162.426 5.30167 162.37 5.24527 162.257 5.28332C162.257 5.28326 162.256 5.28328 162.256 5.28336C162.256 5.2834 162.255 5.28347 162.255 5.28356C162.254 5.28381 162.254 5.28421 162.253 5.28474C162.232 5.29024 162.21 5.29154 162.189 5.28857C162.167 5.2856 162.147 5.27841 162.128 5.26741C162.11 5.25642 162.093 5.24185 162.08 5.22452C162.067 5.2072 162.058 5.18748 162.052 5.1665C162.04 5.12115 162.02 5.09228 161.974 5.05788C161.914 5.01529 161.927 4.92182 161.996 4.89428C161.997 4.89377 161.997 4.89339 161.998 4.89316C161.998 4.89306 161.999 4.89299 161.999 4.89295C161.999 4.89289 162 4.89289 162 4.89295C162.014 4.88724 162.026 4.87862 162.035 4.86771C162.045 4.8568 162.052 4.84388 162.056 4.8299C162.06 4.81592 162.06 4.80123 162.058 4.78692C162.055 4.7726 162.05 4.75902 162.041 4.74717C162.026 4.72644 162.012 4.70563 161.997 4.68499C161.862 4.49495 161.738 4.31959 161.452 4.3568C161.439 4.32793 161.428 4.30459 161.417 4.28124C161.321 4.07363 161.163 3.97329 160.931 4.00216C160.906 4.0035 160.874 4.0035 160.854 3.99254C160.723 3.9119 160.581 3.91929 160.44 3.92661C160.394 3.929 160.348 3.93138 160.303 3.9307C160.144 3.92651 159.986 3.95271 159.832 3.9912C159.588 4.05487 159.346 4.12286 159.103 4.19083L159.103 4.1909L159.102 4.19117C158.903 4.24675 158.705 4.30232 158.506 4.35547L158.387 4.38714C157.968 4.49952 157.547 4.6122 157.113 4.66733C156.962 4.6878 156.811 4.72127 156.661 4.75478L156.661 4.75481C156.539 4.78199 156.417 4.8092 156.294 4.8295C155.853 4.90071 155.411 4.96808 154.97 5.03543C154.712 5.07469 154.455 5.11394 154.198 5.15394C154.078 5.17257 153.958 5.19237 153.839 5.21215L153.838 5.21219C153.729 5.23022 153.621 5.24824 153.512 5.26532L153.431 5.27845L153.283 5.30238C153.28 5.2887 153.277 5.27509 153.275 5.2624L153.274 5.25837L153.308 5.24138C153.347 5.2221 153.386 5.20291 153.426 5.18708C153.455 5.17565 153.485 5.16413 153.514 5.15256C153.539 5.14256 153.564 5.13253 153.589 5.1225C153.734 5.06466 153.879 5.0068 154.026 4.95479C154.103 4.92834 154.181 4.90157 154.258 4.87481L154.258 4.87475C154.543 4.7764 154.828 4.67813 155.117 4.59605C155.303 4.54374 155.492 4.49803 155.678 4.4558L155.681 4.45507C155.685 4.45391 155.69 4.45281 155.693 4.4517L155.878 4.41004C156.01 4.38034 156.142 4.35068 156.273 4.31973C156.291 4.31527 156.308 4.3108 156.325 4.30638L156.336 4.30325C156.4 4.28439 156.464 4.26877 156.529 4.25647C156.617 4.24061 156.705 4.22736 156.793 4.2141C156.926 4.19407 157.059 4.17405 157.19 4.14509L157.26 4.13001C157.675 4.04029 158.091 3.95039 158.5 3.8358C158.609 3.80533 158.72 3.78234 158.831 3.7594C159.055 3.71304 159.278 3.66687 159.479 3.55958C159.5 3.54801 159.518 3.53207 159.532 3.51285C159.546 3.49364 159.555 3.47161 159.56 3.44829C159.57 3.40662 159.578 3.36437 159.583 3.32176V3.32042C159.594 3.22419 159.572 3.13758 159.433 3.08812C159.435 2.97817 159.405 2.89013 159.348 2.83516C159.301 2.78704 159.234 2.76387 159.154 2.77198L159.075 2.78044C158.913 2.79747 158.75 2.81458 158.595 2.85716C158.117 2.98779 157.631 3.07164 157.142 3.14034C156.829 3.18493 156.514 3.21897 156.2 3.25303L156.199 3.25305C156.019 3.27255 155.839 3.29206 155.659 3.31356C155.455 3.33783 155.252 3.36495 155.049 3.39212L155.048 3.39217C154.906 3.41117 154.764 3.43019 154.621 3.44829C154.581 3.45401 154.541 3.45509 154.502 3.45616C154.484 3.45662 154.467 3.45708 154.45 3.45791C154.449 3.44276 154.448 3.42761 154.445 3.41113C154.488 3.39776 154.53 3.38361 154.573 3.36947C154.658 3.34146 154.742 3.31346 154.828 3.29155C155.192 3.19942 155.558 3.11007 155.924 3.02352C156.06 2.99055 156.199 2.96168 156.336 2.93442C156.556 2.8904 156.778 2.84923 156.998 2.80967C157.135 2.78539 157.27 2.75255 157.405 2.71971C157.629 2.6652 157.854 2.61069 158.086 2.59528C158.108 2.59384 158.131 2.59107 158.152 2.587C158.213 2.57403 158.274 2.56027 158.334 2.54652C158.582 2.49022 158.83 2.43391 159.088 2.43169C159.131 2.43026 159.174 2.40825 159.213 2.38767C159.22 2.38413 159.226 2.3806 159.233 2.37706C159.239 2.37374 159.246 2.37041 159.252 2.36709C159.274 2.35445 159.296 2.34182 159.317 2.32996L159.348 2.31211C159.383 2.29193 159.409 2.25893 159.421 2.21997C159.44 2.15573 159.448 2.08888 159.446 2.02198C159.444 1.95462 159.395 1.89724 159.331 1.87496C159.301 1.86534 159.274 1.85295 159.254 1.83094C159.188 1.75262 159.112 1.75262 159.028 1.75538C158.987 1.75685 158.947 1.75826 158.907 1.75964L158.842 1.76185C158.715 1.76613 158.589 1.77041 158.464 1.77596C158.458 1.77596 158.453 1.7763 158.447 1.77663C158.441 1.77697 158.435 1.7773 158.43 1.7773C158.326 1.78142 158.222 1.78485 158.118 1.78828C157.807 1.7986 157.495 1.80892 157.184 1.8378C156.804 1.87322 156.425 1.92501 156.046 1.97674L156.045 1.97687C155.91 1.99538 155.775 2.01387 155.639 2.03161C155.479 2.05257 155.322 2.07855 155.164 2.10468L155.164 2.10472L155.14 2.10859C155.109 2.11393 155.078 2.12137 155.046 2.12882L155.046 2.12889C155.021 2.13486 154.996 2.14084 154.971 2.14575C154.89 2.16332 154.808 2.1806 154.727 2.19789C154.643 2.21568 154.56 2.23348 154.476 2.25161C154.539 2.1911 154.61 2.15671 154.684 2.13203C154.866 2.06698 155.05 2.00473 155.233 1.94247L155.233 1.94238C155.326 1.91085 155.419 1.87932 155.512 1.84743L155.546 1.836L155.546 1.83592C155.723 1.77513 155.901 1.71398 156.077 1.64676C156.201 1.5987 156.325 1.5529 156.45 1.50712C156.749 1.39705 157.048 1.28712 157.332 1.14635C157.343 1.1419 157.354 1.13687 157.365 1.13129C157.388 1.11965 157.408 1.10275 157.423 1.08196C157.439 1.06117 157.449 1.03708 157.453 1.01162C157.466 0.949781 157.477 0.892041 157.467 0.838489C157.43 0.659745 157.207 0.51682 157.046 0.505771C156.852 0.494327 156.657 0.49662 156.463 0.512632C156.336 0.523681 156.208 0.53874 156.081 0.557986C156.04 0.565154 155.998 0.569767 155.957 0.571798C155.915 0.573423 155.875 0.559285 155.843 0.532234C155.812 0.505183 155.792 0.46723 155.787 0.426022C155.785 0.410512 155.783 0.395002 155.782 0.379492L155.782 0.376569C155.78 0.357063 155.777 0.33795 155.774 0.319024L155.774 0.318341C155.772 0.301446 155.77 0.284698 155.768 0.26795C155.764 0.235109 155.749 0.204338 155.727 0.179597C155.705 0.154857 155.676 0.137278 155.644 0.129124C155.61 0.1195 155.58 0.108541 155.563 0.0878682C155.477 -0.0176771 155.377 -0.0045124 155.274 0.00904432C155.257 0.0112017 155.241 0.013369 155.225 0.0150693C155.165 0.0205048 155.108 0.0246927 155.05 0.0274549C155.019 0.028763 154.988 0.0279748 154.956 0.0271871C154.889 0.0255063 154.823 0.0238275 154.763 0.0425137C154.576 0.100254 154.396 0.153895 154.206 0.0617604C154.184 0.0521371 154.154 0.0576616 154.128 0.0631862C154.06 0.0779664 153.992 0.0914435 153.924 0.104937C153.77 0.135372 153.616 0.16589 153.466 0.211635L153.194 0.298245C152.987 0.367183 152.782 0.438551 152.576 0.509925L152.575 0.510372C152.473 0.545587 152.372 0.580802 152.27 0.615727C152.21 0.636302 152.15 0.659004 152.089 0.681769L152.016 0.709198L151.289 0.980077C151.229 1.00276 151.17 1.02768 151.111 1.05255C150.973 1.11055 150.835 1.16836 150.692 1.19723C150.545 1.22743 150.429 1.28633 150.314 1.36653C150.261 1.40333 150.203 1.43205 150.142 1.45171C150.107 1.46261 150.07 1.46492 150.033 1.46724C149.967 1.47135 149.902 1.47548 149.844 1.52736C149.801 1.56584 149.746 1.56825 149.691 1.57069C149.641 1.57287 149.591 1.57507 149.548 1.60292C149.539 1.6088 149.529 1.61451 149.519 1.62024C149.491 1.63728 149.461 1.65454 149.44 1.67715C149.358 1.76099 149.227 1.81597 149.097 1.81873C149.045 1.82016 148.996 1.84074 148.964 1.88057C148.941 1.90899 148.912 1.93448 148.883 1.95988L148.883 1.95997C148.817 2.01809 148.752 2.0757 148.759 2.16651C148.76 2.2016 148.751 2.23626 148.731 2.26544C148.711 2.29463 148.683 2.31681 148.65 2.32877C148.578 2.35682 148.505 2.38063 148.43 2.40006C148.349 2.42022 148.298 2.47038 148.243 2.52408L148.228 2.53888C148.183 2.58443 148.152 2.63892 148.121 2.69363C148.075 2.77271 148.03 2.85224 147.942 2.9059C147.825 2.97719 147.853 3.19318 147.966 3.22481C147.967 3.22592 147.969 3.22672 147.971 3.22719C147.972 3.22737 147.973 3.2275 147.974 3.22757C148.066 3.24552 148.158 3.25793 148.252 3.26473C148.325 3.27064 148.399 3.27245 148.473 3.27017H148.489C148.592 3.2674 148.625 3.41175 148.531 3.45443L148.483 3.47476C148.428 3.49813 148.373 3.52129 148.319 3.54354C148.17 3.6046 148.021 3.66443 147.872 3.72427L147.872 3.72453L147.872 3.72459C147.601 3.83311 147.331 3.94168 147.064 4.05768C146.874 4.14036 146.692 4.23897 146.51 4.3379L146.51 4.338C146.465 4.36238 146.42 4.38679 146.375 4.41098C146.246 4.47968 146.121 4.66938 146.172 4.75849C146.227 4.8492 146.22 4.91888 146.183 4.98802C146.152 5.04576 146.152 5.11455 146.19 5.1681C146.222 5.21728 146.256 5.26556 146.292 5.31543L146.293 5.31689L146.301 5.32849C146.265 5.34628 146.24 5.3586 146.216 5.37001L146.216 5.37014L146.199 5.37804C146.141 5.40595 146.082 5.43206 146.022 5.45818C145.845 5.53617 145.668 5.61424 145.516 5.74087C145.44 5.80414 145.367 5.87702 145.399 5.96497C145.431 6.05292 145.479 6.15877 145.597 6.18212L145.628 6.18776C145.675 6.19647 145.724 6.20522 145.769 6.22337C145.846 6.25367 145.85 6.31961 145.78 6.36772C145.771 6.37366 145.761 6.37718 145.75 6.38066C145.744 6.38259 145.739 6.3845 145.733 6.38681C145.73 6.38809 145.728 6.38949 145.725 6.39107C145.672 6.42646 145.618 6.46134 145.564 6.49626C145.478 6.55188 145.392 6.60761 145.308 6.66569C145.239 6.71105 145.188 6.77012 145.226 6.86226C145.259 6.94058 145.308 6.99012 145.4 6.99289C145.436 6.99378 145.471 7.0058 145.511 7.01982C145.531 7.02673 145.552 7.03412 145.576 7.04091C145.555 7.05778 145.537 7.07322 145.521 7.08738C145.483 7.11944 145.453 7.14495 145.419 7.16566C145.401 7.17877 145.378 7.18603 145.355 7.19324C145.34 7.19813 145.325 7.20301 145.311 7.20968C145.265 7.23227 145.22 7.25896 145.179 7.28943C145.106 7.34289 145.063 7.41729 145.081 7.50934C145.099 7.60281 145.246 7.73344 145.33 7.74306C145.44 7.75513 145.551 7.76769 145.671 7.78128L145.672 7.78137L145.941 7.81176C145.911 7.8294 145.885 7.84488 145.863 7.85857C145.825 7.88118 145.796 7.89892 145.765 7.91352C145.646 7.9685 145.526 8.02214 145.405 8.07569C145.118 8.20765 144.831 8.33686 144.543 8.46606C144.448 8.51008 144.384 8.56648 144.373 8.68054C144.359 8.82903 144.339 8.97695 144.32 9.12432L144.32 9.12458C144.309 9.20907 144.298 9.29338 144.288 9.37751C144.281 9.43383 144.277 9.49023 144.274 9.55074C144.273 9.56084 144.275 9.57096 144.279 9.58033C144.283 9.5897 144.288 9.59807 144.296 9.60482C144.304 9.61157 144.313 9.61651 144.322 9.61928C144.332 9.62204 144.342 9.62255 144.352 9.62077C144.362 9.61925 144.372 9.61733 144.381 9.61544C144.389 9.6139 144.397 9.61239 144.404 9.61115C144.558 9.58228 144.7 9.55617 144.85 9.52873C144.852 9.52846 144.853 9.52836 144.855 9.52843C144.857 9.52852 144.86 9.52896 144.862 9.52974C144.866 9.53105 144.869 9.53329 144.872 9.53626C144.875 9.53923 144.877 9.54284 144.878 9.54679C144.879 9.55074 144.88 9.55491 144.879 9.55893C144.838 9.74789 144.958 9.79259 145.084 9.83918C145.12 9.85259 145.156 9.86616 145.189 9.88336C145.17 9.89732 145.152 9.9095 145.135 9.92074L145.135 9.92093C145.101 9.94392 145.072 9.96296 145.047 9.98512C145.032 9.9984 145.016 10.0114 144.999 10.0246L144.999 10.0247C144.952 10.0618 144.903 10.1 144.89 10.1473C144.881 10.1828 144.867 10.2169 144.849 10.2491C144.762 10.419 144.597 10.4961 144.429 10.5743L144.405 10.5858C144.39 10.5928 144.375 10.5987 144.359 10.6047C144.332 10.6151 144.304 10.6256 144.281 10.6422C144.247 10.6669 144.203 10.704 144.197 10.7398C144.151 11.0683 144.123 11.3048 144.146 11.6402C144.153 11.7323 144.212 11.7405 144.236 11.735C144.334 11.7103 144.431 11.6828 144.527 11.6525C144.905 11.5407 145.273 11.4007 145.642 11.2607L145.643 11.2604C145.786 11.2059 145.929 11.1514 146.073 11.0986C146.25 11.0335 146.424 10.9657 146.599 10.8981L146.6 10.8975L146.6 10.8974C146.831 10.8078 147.062 10.7182 147.296 10.6352C147.852 10.4372 148.412 10.2475 148.971 10.0606C149.062 10.0293 149.157 10.0073 149.252 9.98528C149.295 9.97537 149.337 9.96547 149.379 9.95474L149.379 9.95962C149.378 9.96363 149.377 9.96712 149.375 9.96712C149.121 10.08 148.867 10.1913 148.612 10.3012C148.56 10.3238 148.506 10.3455 148.453 10.3671L148.452 10.3674C148.35 10.4088 148.247 10.4504 148.148 10.4991L148.115 10.5148C148.083 10.5303 148.05 10.5459 148.019 10.5623C147.771 10.6833 147.525 10.8098 147.28 10.9366C147.014 11.0743 146.75 11.216 146.485 11.3576L146.471 11.3654C146.407 11.3999 146.344 11.436 146.281 11.4721C146.192 11.5227 146.103 11.5733 146.013 11.6198C145.887 11.6834 145.761 11.7457 145.634 11.8079C145.412 11.9176 145.189 12.0274 144.97 12.1449C144.904 12.1792 144.851 12.2371 144.797 12.2953L144.797 12.2954C144.771 12.3235 144.745 12.3517 144.718 12.3772L144.675 12.4169C144.633 12.4548 144.591 12.4928 144.548 12.5287C144.522 12.5479 144.495 12.5653 144.467 12.5809C144.454 12.5876 144.444 12.5979 144.437 12.6103C144.431 12.6228 144.428 12.637 144.429 12.6511C144.446 12.7954 144.483 12.9163 144.544 13.0236C144.561 13.0529 144.589 13.0744 144.621 13.0838C144.654 13.0933 144.689 13.0899 144.719 13.0744C144.751 13.0593 144.781 13.0442 144.811 13.0291L144.812 13.0289L144.853 13.0085C145.173 12.8463 145.495 12.6868 145.872 12.6675C145.704 12.7523 145.537 12.8367 145.368 12.9217C145.213 12.9993 145.058 13.0775 144.901 13.1569L144.885 13.1652C144.814 13.201 144.759 13.2618 144.73 13.3357C144.701 13.4097 144.7 13.4918 144.728 13.5662L144.734 13.5813C144.752 13.6313 144.771 13.6814 144.79 13.7325C144.8 13.759 144.816 13.7831 144.836 13.8034C144.856 13.8237 144.879 13.8399 144.906 13.8509C144.932 13.8619 144.96 13.8676 144.988 13.8677C145.017 13.8677 145.045 13.862 145.071 13.851L145.107 13.8358C145.12 13.8299 145.134 13.824 145.148 13.8181C145.722 13.5718 146.288 13.3296 146.852 13.0882L146.865 13.0829L147.598 12.7692C147.562 12.8302 147.511 12.8809 147.449 12.9162C147.366 12.9656 147.282 13.0133 147.197 13.0611L147.196 13.0616C147.091 13.1215 146.985 13.1814 146.88 13.2448C146.847 13.2639 146.817 13.2896 146.787 13.3152C146.741 13.354 146.695 13.3926 146.641 13.4084C146.41 13.4804 146.224 13.6233 146.038 13.7664L145.999 13.7961C145.925 13.8524 145.883 13.9142 145.87 13.9775C145.852 14.0655 145.894 14.159 145.995 14.2469C146.002 14.2522 146.009 14.2581 146.014 14.2647C146.049 14.2939 146.077 14.3305 146.095 14.3717C146.104 14.3934 146.105 14.4176 146.097 14.4398C146.09 14.462 146.074 14.4807 146.054 14.4926C146.029 14.5072 146.005 14.5216 145.98 14.5359C145.957 14.5496 145.933 14.5631 145.909 14.5767L145.893 14.5861L145.738 14.6763C145.627 14.7405 145.516 14.8046 145.405 14.8692C145.343 14.9036 145.323 14.9517 145.354 15.0163C145.36 15.0267 145.365 15.0371 145.37 15.0475C145.376 15.0591 145.381 15.0707 145.387 15.0823C145.461 15.2348 145.535 15.3876 145.683 15.4907C145.733 15.5266 145.78 15.5653 145.83 15.6064L145.858 15.6295C145.881 15.6491 145.909 15.6618 145.939 15.6661C145.969 15.6705 145.999 15.6664 146.027 15.6542C146.041 15.6483 146.055 15.6425 146.069 15.6366C146.088 15.6287 146.107 15.6208 146.125 15.6129C146.251 15.5594 146.376 15.5044 146.5 15.4436C147.05 15.1714 147.608 14.9157 148.177 14.6862C148.34 14.6205 148.499 14.5459 148.659 14.4706C148.802 14.403 148.947 14.3349 149.097 14.2724C149.183 14.2368 149.263 14.3329 149.215 14.4112C149.176 14.4735 149.156 14.5455 149.156 14.6189C149.156 14.6312 149.156 14.6436 149.157 14.6559C149.161 14.7192 149.135 14.7824 149.08 14.814L148.938 14.8977C148.852 14.9482 148.767 14.998 148.682 15.0477C148.601 15.0953 148.52 15.1423 148.438 15.1892L148.436 15.1906C148.244 15.3019 148.052 15.413 147.864 15.5316C147.784 15.5797 147.703 15.6581 147.674 15.7419C147.658 15.7886 147.655 15.8399 147.659 15.8986C147.663 15.9541 147.652 16.0097 147.627 16.0595C147.602 16.1094 147.564 16.1518 147.518 16.1823C147.325 16.307 147.112 16.4147 146.895 16.4861C146.88 16.4913 146.867 16.4998 146.856 16.511C146.845 16.5222 146.837 16.5358 146.832 16.5507L146.809 16.6325L146.808 16.6333C146.795 16.6814 146.782 16.7265 146.769 16.7707V16.7721C146.751 16.844 146.83 16.8606 146.886 16.8725C146.903 16.8761 146.918 16.8793 146.928 16.8834C147.037 16.9301 147.09 16.9636 147.18 17.0388C147.239 17.0873 147.313 17.1131 147.39 17.1116C147.43 17.1101 147.47 17.1017 147.507 17.0868C147.629 17.0373 147.752 16.991 147.875 16.9445C147.954 16.9148 148.033 16.8851 148.112 16.8545C148.149 16.8408 148.149 16.8793 148.128 16.8876L147.818 17.0511L147.547 17.1941C147.508 17.215 147.48 17.2502 147.467 17.2921C147.454 17.3339 147.458 17.3792 147.478 17.4181C147.61 17.6624 147.711 17.6695 147.95 17.6866L147.963 17.6875C147.991 17.689 148.02 17.6903 148.048 17.6903C148.347 17.6987 148.635 17.6301 148.921 17.5621C148.962 17.5525 149.002 17.5429 149.042 17.5336C149.225 17.491 149.407 17.4401 149.585 17.3796C149.835 17.2979 150.089 17.2269 150.342 17.1559L150.49 17.1143C150.567 17.0951 150.466 17.1734 150.447 17.1845C150.352 17.2365 150.257 17.2881 150.161 17.3396L150.16 17.3403C149.995 17.4298 149.83 17.5191 149.665 17.6106C149.393 17.7591 149.122 17.9103 148.853 18.0642C148.816 18.0846 148.782 18.1071 148.748 18.1315C148.712 18.1557 148.68 18.1838 148.65 18.2154C148.613 18.258 148.577 18.3474 148.598 18.3859C148.66 18.5027 148.74 18.6155 148.9 18.6127C148.912 18.6124 148.924 18.6118 148.936 18.6112L148.936 18.6112C148.984 18.6088 149.034 18.6063 149.074 18.6251C149.211 18.6883 149.34 18.6773 149.467 18.6388C149.518 18.6227 149.569 18.6039 149.618 18.5824C150.011 18.4147 150.403 18.2406 150.792 18.0601C150.842 18.0381 150.888 18.0175 150.935 18.0079C151.013 17.9914 151.09 18.0408 151.116 18.1164L151.117 18.1165L151.117 18.1168L151.117 18.117L151.118 18.1178C151.127 18.1452 151.129 18.1745 151.124 18.2029C151.118 18.2313 151.106 18.2578 151.087 18.28C151.065 18.3048 151.043 18.3309 151.021 18.357C151.002 18.3791 150.989 18.406 150.984 18.4347C150.979 18.4634 150.981 18.4931 150.991 18.5206C150.998 18.5385 151.008 18.5552 151.02 18.57C151.029 18.5811 151.037 18.5912 151.045 18.6009C151.059 18.6176 151.072 18.6329 151.087 18.6497L151.128 18.6993C151.157 18.7597 151.126 18.7914 151.102 18.8147C150.94 18.9797 150.94 18.9798 151.073 19.1687L151.076 19.1735C151.141 19.2684 151.219 19.3192 151.337 19.2972C151.384 19.2863 151.432 19.2863 151.478 19.2972C151.479 19.2972 151.48 19.2975 151.481 19.2979L151.485 19.3C151.538 19.3178 151.562 19.3784 151.538 19.4306C151.534 19.4386 151.531 19.4469 151.528 19.4554C151.534 19.4635 151.54 19.4722 151.547 19.4815L151.559 19.4966C153.552 20.056 155.738 19.9929 157.812 19.1708C158.716 18.8139 159.561 18.3237 160.319 17.7164L160.319 17.7158C160.248 17.6447 160.175 17.5719 160.091 17.5212C160.048 17.4965 159.965 17.5212 159.904 17.5419C159.809 17.5775 159.717 17.5885 159.619 17.5597C159.659 17.5223 159.704 17.4925 159.754 17.4717C160.039 17.3553 160.323 17.2385 160.607 17.1217L160.613 17.1193C160.83 17.03 161.046 16.9407 161.264 16.8517C161.267 16.8505 161.271 16.8487 161.275 16.8463C161.357 16.8132 161.438 16.7803 161.521 16.746C161.673 16.6827 161.732 16.5521 161.684 16.3895C161.684 16.3853 161.683 16.3811 161.681 16.3772C161.64 16.2493 161.459 16.16 161.321 16.1751C161.283 16.1793 161.244 16.1887 161.205 16.1983C161.104 16.2228 161.001 16.2481 160.887 16.1888C160.915 16.1726 160.941 16.1565 160.966 16.1409C161.018 16.1091 161.066 16.0797 161.116 16.0569C161.184 16.027 161.252 15.9995 161.32 15.972L161.32 15.9719L161.32 15.9719C161.414 15.9338 161.508 15.8959 161.599 15.852L161.6 15.8506C161.664 15.8217 161.746 15.7695 161.757 15.7145C161.757 15.7112 161.758 15.7079 161.76 15.7049C161.763 15.6916 161.766 15.6777 161.77 15.6634C161.79 15.5805 161.814 15.4856 161.735 15.4258C161.718 15.4127 161.701 15.3986 161.684 15.3844C161.598 15.3135 161.508 15.2396 161.372 15.2705L161.365 15.2721C161.337 15.2784 161.309 15.2848 161.28 15.2912C161.169 15.3158 161.114 15.1605 161.217 15.1124L161.218 15.1112C161.219 15.1111 161.219 15.1111 161.22 15.1111C161.32 15.0622 161.421 15.0138 161.522 14.9654L161.606 14.9255C161.811 14.8274 162.016 14.7302 162.222 14.634C162.329 14.5832 162.354 14.5062 162.361 14.4112C162.363 14.3839 162.365 14.3563 162.365 14.3288C162.367 14.2009 162.321 14.1377 162.205 14.0992C162.179 14.091 162.157 14.0717 162.135 14.0497C162.115 14.0303 162.091 14.016 162.064 14.0081C162.038 14.0002 162.01 13.9989 161.982 14.0044C161.968 14.0075 161.954 14.0109 161.939 14.0143C161.922 14.0184 161.904 14.0226 161.886 14.0264C161.852 14.0331 161.817 14.0402 161.777 14.0486L161.691 14.0662C161.708 14.0302 161.742 14.0133 161.773 13.9982C161.82 13.9752 161.858 13.9566 161.812 13.882C161.849 13.8476 161.856 13.8119 161.848 13.7751C161.833 13.7009 161.861 13.6236 161.93 13.588C162.007 13.5482 162.08 13.511 162.158 13.4821C162.233 13.4547 162.308 13.4287 162.384 13.4038C162.43 13.3887 162.477 13.374 162.524 13.3592C162.617 13.3295 162.711 13.2999 162.804 13.2678C162.838 13.2557 162.871 13.2341 162.902 13.2133L162.916 13.2045C162.975 13.1632 163.007 13.0877 162.98 13.0189C162.96 12.9654 162.916 12.9227 162.862 12.8952C162.819 12.8712 162.77 12.8615 162.721 12.8677C162.67 12.8746 162.619 12.8801 162.568 12.8855L162.563 12.8629L162.56 12.8457C162.719 12.7903 162.879 12.7343 163.039 12.6782L163.039 12.678C163.209 12.6184 163.38 12.5586 163.551 12.4992C163.567 12.4933 163.584 12.4874 163.601 12.4817L163.637 12.4692C163.666 12.4592 163.695 12.4491 163.724 12.4387C163.744 12.431 163.761 12.4169 163.773 12.3985C163.784 12.3802 163.789 12.3586 163.787 12.337C163.787 12.3353 163.787 12.3336 163.787 12.3319C163.788 12.3294 163.789 12.3269 163.79 12.3247C163.861 12.2119 163.811 12.1102 163.73 12.0552C163.716 12.0456 163.701 12.0346 163.687 12.0236L163.683 12.0206C163.621 11.9734 163.556 11.9236 163.455 11.9425C163.325 11.9661 163.195 11.9829 163.064 11.9998C162.906 12.0202 162.747 12.0406 162.591 12.073C162.309 12.131 162.03 12.204 161.75 12.277C161.671 12.2976 161.592 12.3181 161.513 12.3384C161.396 12.3686 161.28 12.4017 161.164 12.4349C161.058 12.4653 160.951 12.4957 160.844 12.524C160.702 12.5619 160.56 12.598 160.417 12.6341L160.417 12.6343L160.416 12.6345C160.259 12.6743 160.103 12.7141 159.946 12.7563C159.725 12.8158 159.504 12.8767 159.283 12.9376L159.281 12.938C159.023 13.0093 158.765 13.0805 158.505 13.1494C158.369 13.1852 158.233 13.2177 158.096 13.2501C157.917 13.2924 157.739 13.3347 157.562 13.3845C157.345 13.4463 157.128 13.5141 156.912 13.582C156.744 13.6349 156.576 13.6878 156.406 13.7378C156.347 13.7558 156.284 13.7653 156.222 13.7749C156.193 13.7792 156.165 13.7835 156.137 13.7887C156.164 13.7323 156.199 13.7034 156.239 13.6869C156.264 13.6769 156.289 13.6667 156.314 13.6566L156.395 13.6237C156.449 13.6016 156.504 13.5794 156.558 13.5577L156.675 13.5097C156.998 13.3771 157.322 13.2447 157.649 13.1233C158.199 12.9212 158.753 12.7313 159.308 12.5487C159.628 12.4421 159.952 12.3494 160.277 12.2565L160.408 12.219C160.513 12.1889 160.618 12.1613 160.724 12.1338C160.889 12.0907 161.054 12.0477 161.216 11.9949C161.425 11.927 161.639 11.8888 161.855 11.8503L161.876 11.8464C161.919 11.8374 161.962 11.8296 162.004 11.8218L162.012 11.8203C162.072 11.8086 162.135 11.8032 162.198 11.7977C162.385 11.7815 162.575 11.7651 162.705 11.5797C162.705 11.5794 162.705 11.5791 162.705 11.5788C162.706 11.5786 162.706 11.5784 162.706 11.5784C162.717 11.5649 162.741 11.5609 162.765 11.5568C162.776 11.5551 162.786 11.5534 162.795 11.5509L163.072 11.4726C163.397 11.3791 163.727 11.2854 164.067 11.1894C164.088 11.1833 164.106 11.1703 164.119 11.1525C164.132 11.1347 164.138 11.1132 164.137 11.0914C164.129 10.9052 164.119 10.7194 164.109 10.5356L164.1 10.3607ZM149.379 9.95474C149.379 9.9528 149.38 9.95088 149.381 9.94921C149.384 9.94933 149.386 9.94887 149.389 9.94788C149.387 9.94987 149.385 9.95219 149.384 9.95474H149.379ZM160.974 10.4915L160.845 10.5231C160.936 10.1255 160.966 9.67159 160.926 9.19002L160.933 9.18834C160.965 9.18006 160.996 9.1732 161.029 9.16634C161.311 9.09897 161.596 9.03713 161.88 8.97797L162.069 8.93847C162.547 8.83876 163.024 8.739 163.504 8.64668C163.581 8.6319 163.663 8.63557 163.753 8.63958L163.758 8.63981C163.793 8.64172 163.826 8.65423 163.853 8.67563C163.88 8.69703 163.9 8.72629 163.91 8.75939C163.918 8.7888 163.927 8.81911 163.936 8.84943L163.938 8.85741C163.985 9.01682 164.032 9.17765 164.081 9.34535C164.087 9.36886 164.085 9.39391 164.074 9.41555C164.062 9.43719 164.044 9.45385 164.021 9.46225C164.01 9.46538 164.001 9.46894 163.991 9.47242L163.991 9.47263C163.984 9.47523 163.977 9.47778 163.97 9.48007L163.922 9.49739C163.82 9.53488 163.724 9.56989 163.626 9.59965C163.441 9.65753 163.256 9.71469 163.071 9.77185C162.891 9.82743 162.711 9.88301 162.532 9.93923L162.526 9.94084C162.49 9.95155 162.443 9.96526 162.43 9.99011C162.358 10.1366 162.225 10.1725 162.094 10.2079C162.045 10.221 161.997 10.2341 161.952 10.2526C161.842 10.2981 161.723 10.3213 161.604 10.3445L161.604 10.3445C161.551 10.3548 161.498 10.3651 161.446 10.3774C161.289 10.4159 161.132 10.4543 160.974 10.4915ZM160.983 8.79218L160.882 8.81425C160.853 8.62721 160.814 8.43726 160.765 8.24596C160.705 8.0175 160.634 7.79814 160.551 7.58984L160.655 7.56904C160.913 7.51771 161.173 7.47004 161.433 7.42603C161.79 7.36676 162.154 7.34578 162.516 7.32483L162.517 7.32482C162.625 7.31856 162.734 7.3123 162.842 7.30502C162.997 7.29406 163.057 7.33122 163.115 7.47138C163.123 7.48881 163.135 7.50369 163.151 7.51419C163.167 7.52469 163.185 7.53037 163.204 7.53055H163.428C163.443 7.5301 163.457 7.53341 163.47 7.54017C163.493 7.55132 163.51 7.57105 163.519 7.59515L163.581 7.77346L163.63 7.91539C163.643 7.94869 163.654 7.9827 163.666 8.01694C163.674 8.04034 163.683 8.06383 163.691 8.08727C163.695 8.09987 163.697 8.11325 163.696 8.12657C163.695 8.13988 163.691 8.15284 163.685 8.16459C163.679 8.17634 163.67 8.18664 163.659 8.19481C163.649 8.20298 163.637 8.20884 163.624 8.21202L163.568 8.22583C163.501 8.24262 163.438 8.2582 163.375 8.27119C163.151 8.32078 162.928 8.36902 162.705 8.41726L162.704 8.41742C162.476 8.46672 162.248 8.51602 162.019 8.56675C161.833 8.60763 161.646 8.64813 161.459 8.68867C161.301 8.72305 161.142 8.75747 160.983 8.79218ZM156.715 8.4845L156.817 8.45897C156.846 8.71178 156.894 8.97112 156.962 9.23298C157.002 9.38922 157.049 9.54119 157.1 9.68829C157.067 9.69864 157.034 9.70922 157.001 9.72003C156.84 9.76958 156.679 9.82456 156.522 9.88639C156.212 10.0069 155.902 10.1297 155.593 10.2548L155.487 10.2966C155.461 10.0104 155.41 9.71529 155.333 9.41705C155.285 9.23374 155.229 9.05629 155.166 8.8857L155.252 8.86008C155.254 8.85964 155.256 8.85908 155.258 8.85847L155.261 8.85749C155.264 8.85638 155.267 8.85527 155.27 8.85456C155.549 8.7737 155.831 8.70363 156.114 8.63319L156.114 8.63312L156.175 8.61816C156.346 8.57464 156.518 8.53274 156.689 8.49084L156.689 8.49077L156.715 8.4845ZM71.7024 18.7212C73.0266 19.5737 74.6953 20 76.7087 20C78.8854 20 80.6358 19.474 81.96 18.4219C83.2841 17.3699 83.9462 15.9097 83.9462 14.0414C83.9462 13.0982 83.7829 12.2819 83.4564 11.5926C83.1299 10.8852 82.6311 10.3139 81.96 9.87852C81.2888 9.42505 80.6721 9.08041 80.1098 8.8446C79.5475 8.6088 78.8038 8.35485 77.8787 8.08277C76.5909 7.70185 75.7202 7.36628 75.2667 7.07606C74.8314 6.78584 74.6137 6.43213 74.6137 6.01494C74.6137 5.65216 74.7588 5.35287 75.049 5.11706C75.3574 4.88126 75.8018 4.76335 76.3823 4.76335C77.7608 4.76335 78.7494 5.47077 79.348 6.8856L83.4292 4.49127C82.7762 3.07644 81.833 1.99717 80.5995 1.25348C79.3661 0.509787 77.9513 0.137939 76.355 0.137939C74.4686 0.137939 72.8905 0.682106 71.6208 1.77044C70.3692 2.85877 69.7434 4.28267 69.7434 6.04214C69.7434 7.67464 70.2513 8.95343 71.2671 9.87852C72.2829 10.7855 73.6614 11.4929 75.4028 12.0008C76.6362 12.3454 77.4343 12.5903 77.7971 12.7354C78.6496 13.08 79.0759 13.5335 79.0759 14.0958C79.0759 14.9483 78.3322 15.3746 76.8448 15.3746C75.049 15.3746 73.7975 14.5311 73.09 12.8442L68.9272 15.2658C69.4532 16.7169 70.3783 17.8687 71.7024 18.7212ZM19.4267 0.546064V19.5919H14.5837V9.33435L9.95824 16.9799H9.4685L4.87029 9.36156V19.5919H0V0.546064H4.87029L9.71337 8.68135L14.5837 0.546064H19.4267ZM31.8663 5.98773H36.3828V19.5919H31.8663V18.3403C30.9412 19.4286 29.6533 19.9728 28.0027 19.9728C26.1888 19.9728 24.6651 19.2926 23.4317 17.9322C22.2164 16.5536 21.6087 14.8395 21.6087 12.7898C21.6087 10.7401 22.2164 9.03506 23.4317 7.67464C24.6651 6.29609 26.1888 5.60681 28.0027 5.60681C29.6533 5.60681 30.9412 6.15098 31.8663 7.23931V5.98773ZM26.9415 14.9393C27.4676 15.4834 28.1569 15.7555 29.0094 15.7555C29.8619 15.7555 30.5512 15.4834 31.0772 14.9393C31.6032 14.3951 31.8663 13.6786 31.8663 12.7898C31.8663 11.901 31.6032 11.1845 31.0772 10.6403C30.5512 10.0962 29.8619 9.8241 29.0094 9.8241C28.1569 9.8241 27.4676 10.0962 26.9415 10.6403C26.4155 11.1845 26.1525 11.901 26.1525 12.7898C26.1525 13.6786 26.4155 14.3951 26.9415 14.9393ZM50.8912 7.13048C49.9662 6.1147 48.769 5.60681 47.2997 5.60681C45.5947 5.60681 44.334 6.18726 43.5178 7.34814V5.98773H39.0012V19.5919H43.5178V12.3545C43.5178 11.5564 43.7082 10.9487 44.0892 10.5315C44.4882 10.0962 45.0415 9.87852 45.7489 9.87852C46.3656 9.87852 46.8553 10.0599 47.2181 10.4227C47.599 10.7855 47.7895 11.3206 47.7895 12.028V19.5919H52.3061V11.4566C52.3061 9.57016 51.8345 8.12812 50.8912 7.13048ZM58.7579 14.4495C59.2113 15.556 60.2271 16.1092 61.8052 16.1092C62.7847 16.1092 63.61 15.7918 64.2811 15.1569L67.5461 17.4424C66.2039 19.1293 64.2539 19.9728 61.6964 19.9728C59.3927 19.9728 57.5425 19.3017 56.1459 17.9594C54.7673 16.599 54.078 14.8848 54.078 12.817C54.078 10.7673 54.7582 9.0532 56.1186 7.67464C57.4791 6.29609 59.2113 5.60681 61.3154 5.60681C63.347 5.60681 65.0248 6.28702 66.349 7.64744C67.6731 9.00785 68.3352 10.7129 68.3352 12.7626C68.3352 13.3612 68.2717 13.9235 68.1447 14.4495H58.7579ZM58.7034 11.3206H63.9274C63.5647 10.0508 62.7121 9.41598 61.3699 9.41598C59.9732 9.41598 59.0844 10.0508 58.7034 11.3206ZM98.3783 0.546064V5.2531H93.6712V19.5919H88.8009V5.2531H84.0939V0.546064H98.3783ZM107.491 20C109.704 20 111.509 19.3924 112.905 18.1771C114.32 16.9618 115.028 15.3474 115.028 13.334V0.546064H110.157V12.8714C110.157 14.4677 109.269 15.2658 107.491 15.2658C105.713 15.2658 104.825 14.4677 104.825 12.8714V0.546064H99.9542V13.334C99.9542 15.3474 100.653 16.9618 102.049 18.1771C103.464 19.3924 105.278 20 107.491 20ZM125.595 0.546064C128.225 0.546064 130.42 1.46208 132.18 3.2941C133.957 5.10799 134.846 7.36628 134.846 10.069C134.846 12.7717 133.957 15.039 132.18 16.8711C130.42 18.6849 128.225 19.5919 125.595 19.5919H117.841V0.546064H125.595ZM125.595 14.8848C126.919 14.8848 127.998 14.4495 128.833 13.5788C129.667 12.69 130.084 11.5201 130.084 10.069C130.084 8.61787 129.667 7.45698 128.833 6.58631C127.998 5.69751 126.919 5.2531 125.595 5.2531H122.847V14.8848H125.595ZM141.975 0.546064H137.104V19.5919H141.975V0.546064Z" fill="black"/>
</svg>
