<svg viewBox="0 0 38 37" fill="none" xmlns="http://www.w3.org/2000/svg">
<path fill-rule="evenodd" clip-rule="evenodd" d="M36.9896 18.8799C37.0193 18.9242 37.0368 18.9755 37.0401 19.0288C37.0455 19.1338 37.0511 19.2392 37.0567 19.345C37.0743 19.6785 37.0922 20.0154 37.1066 20.3531C37.1084 20.3927 37.0969 20.4317 37.0738 20.4639C37.0508 20.4962 37.0176 20.5197 36.9795 20.5307C36.3642 20.7048 35.7661 20.8746 35.1757 21.044L34.675 21.186C34.658 21.1905 34.6392 21.1936 34.6205 21.1967C34.5765 21.2041 34.5328 21.2114 34.5135 21.2359C34.5129 21.2359 34.5123 21.2361 34.5118 21.2366C34.5114 21.237 34.5111 21.2376 34.5111 21.2383C34.2759 21.5742 33.9318 21.604 33.5917 21.6334C33.4777 21.6432 33.3642 21.6531 33.2554 21.6743L33.2408 21.677C33.1634 21.6911 33.0861 21.7053 33.0086 21.7217L32.9698 21.7286C32.5793 21.7984 32.1915 21.8677 31.8127 21.9907C31.5183 22.0864 31.2192 22.1645 30.9205 22.2424C30.7289 22.2924 30.5376 22.3424 30.3477 22.3969C30.2685 22.4196 30.1894 22.4423 30.1102 22.4649C29.5218 22.6332 28.9342 22.8013 28.3545 22.9945C27.348 23.3254 26.3439 23.6697 25.3473 24.036C24.7537 24.256 24.168 24.496 23.5815 24.7363C23.5107 24.7653 23.4399 24.7943 23.369 24.8233C23.271 24.8628 23.1723 24.9029 23.0736 24.943C22.9792 24.9814 22.8847 25.0198 22.791 25.0575C22.7186 25.0874 22.6563 25.1397 22.6066 25.2419C22.6577 25.2327 22.709 25.2248 22.7602 25.217C22.8738 25.1996 22.9867 25.1823 23.0949 25.1497C23.4016 25.0591 23.7068 24.9633 24.012 24.8674C24.4037 24.7444 24.7954 24.6214 25.1903 24.5094C25.5104 24.4191 25.8338 24.3425 26.1571 24.2658C26.4051 24.207 26.653 24.1482 26.8995 24.0833C27.37 23.9583 27.8391 23.8289 28.3083 23.6995C28.7087 23.589 29.1091 23.4786 29.5107 23.3708C29.7951 23.294 30.0796 23.2218 30.3638 23.1496C30.6221 23.084 30.8801 23.0185 31.1376 22.9497C31.3328 22.8985 31.5256 22.8434 31.7181 22.7883C31.9287 22.7281 32.1388 22.668 32.351 22.6133C32.4941 22.5766 32.6371 22.5393 32.78 22.502C33.2872 22.3697 33.7939 22.2375 34.3052 22.1324C34.5878 22.0735 34.8748 22.0365 35.1619 21.9996C35.3987 21.9691 35.6356 21.9385 35.8698 21.8958C36.0529 21.8616 36.1713 21.9517 36.2839 22.0374L36.2909 22.0427C36.3157 22.0628 36.3432 22.0826 36.3681 22.1001C36.5152 22.1997 36.6069 22.3841 36.4777 22.5885C36.4734 22.5951 36.4717 22.6031 36.4727 22.6109C36.4764 22.6499 36.4671 22.689 36.4465 22.7223C36.4258 22.7556 36.3948 22.7812 36.3582 22.7952C36.3057 22.814 36.2528 22.8322 36.1999 22.8505C36.148 22.8684 36.096 22.8863 36.0443 22.9048C35.7339 23.0125 35.425 23.1209 35.1171 23.2289C34.8266 23.3308 34.5369 23.4323 34.2479 23.5328C34.2517 23.5519 34.2556 23.5696 34.2593 23.588C34.2605 23.5936 34.2616 23.5992 34.2627 23.605C34.3549 23.5951 34.4471 23.5852 34.5394 23.5727C34.628 23.5616 34.7179 23.579 34.796 23.6226C34.8931 23.6725 34.9728 23.7498 35.0103 23.8467C35.0576 23.9714 35.0003 24.1084 34.8931 24.1831C34.885 24.1884 34.8769 24.1937 34.8688 24.1991C34.8115 24.2369 34.7524 24.2759 34.6913 24.2978C34.5216 24.356 34.3518 24.4098 34.1821 24.4636C34.0977 24.4904 34.0133 24.5171 33.9289 24.5444C33.7919 24.5895 33.6548 24.6366 33.5203 24.6864C33.3783 24.7387 33.2462 24.806 33.1067 24.8782C32.9822 24.9428 32.9298 25.0829 32.9571 25.2174C32.9723 25.2841 32.9599 25.3489 32.8925 25.4112C32.9752 25.5464 32.9066 25.5801 32.8221 25.6217C32.7665 25.649 32.704 25.6797 32.6734 25.745C32.731 25.7333 32.7821 25.7227 32.8291 25.713C32.902 25.6979 32.965 25.6849 33.0271 25.6728C33.0598 25.666 33.0918 25.6584 33.1233 25.6509C33.1496 25.6447 33.1755 25.6386 33.2015 25.6329C33.2508 25.623 33.3018 25.6253 33.35 25.6397C33.3982 25.654 33.4422 25.6799 33.4781 25.7151C33.518 25.755 33.5578 25.7899 33.6052 25.8048C33.8144 25.8746 33.8992 25.9892 33.8942 26.221C33.8943 26.2709 33.8918 26.3207 33.8867 26.3704C33.8743 26.5425 33.8289 26.6821 33.6351 26.7741C33.2617 26.9485 32.8903 27.1247 32.5188 27.3024C32.4683 27.3266 32.4178 27.3507 32.3673 27.3748C32.1837 27.4626 32.0005 27.5501 31.8187 27.6388C31.8173 27.6388 31.8167 27.6388 31.8159 27.6393C31.8154 27.6396 31.8148 27.6402 31.8137 27.6412C31.6268 27.7284 31.7265 28.0099 31.9283 27.9652C31.9857 27.9526 32.0404 27.9402 32.0953 27.9277C32.3423 27.8718 32.5044 28.0058 32.6597 28.1342C32.6909 28.1599 32.7219 28.1855 32.7531 28.2092C32.8955 28.3177 32.8529 28.4896 32.8156 28.6399C32.8092 28.6658 32.803 28.6909 32.7979 28.7151C32.7954 28.7206 32.7937 28.7265 32.7929 28.7325C32.773 28.8322 32.6235 28.9268 32.509 28.9791L32.5064 28.9817C32.3416 29.0613 32.1714 29.1301 32.0007 29.1991C31.8774 29.249 31.7538 29.299 31.6318 29.3532C31.5398 29.3944 31.4533 29.4477 31.3596 29.5054C31.3139 29.5336 31.2664 29.5628 31.2158 29.5922C31.422 29.6997 31.61 29.6538 31.792 29.6094C31.863 29.5921 31.9332 29.575 32.0031 29.5673C32.2522 29.54 32.5811 29.7018 32.6559 29.9336C32.6587 29.9408 32.6604 29.9484 32.6609 29.9561C32.7481 30.2506 32.6409 30.4874 32.3644 30.6021C32.2149 30.6642 32.0679 30.724 31.9183 30.7839C31.9123 30.7882 31.9056 30.7915 31.8985 30.7938C31.5014 30.9565 31.1047 31.1198 30.708 31.2831C30.1936 31.4947 29.679 31.7065 29.1628 31.9175C29.0722 31.9551 28.9894 32.0091 28.9186 32.0769C29.0951 32.1292 29.2624 32.1092 29.4343 32.0446C29.5441 32.0071 29.6961 31.9624 29.7734 32.0071C29.925 32.0991 30.0569 32.2311 30.1858 32.3599L30.1869 32.361C28.8121 33.4616 27.2803 34.3502 25.6423 34.997C21.8829 36.4871 17.921 36.6016 14.3084 35.5875C14.3015 35.5781 14.2946 35.569 14.288 35.5601C14.2753 35.5433 14.2634 35.5275 14.2536 35.5129C14.2582 35.4975 14.264 35.4825 14.2709 35.468C14.3136 35.3733 14.2709 35.2635 14.174 35.2312C14.169 35.2288 14.1666 35.2262 14.1616 35.2262C14.078 35.2063 13.9909 35.2063 13.9074 35.2262C13.6924 35.2661 13.5511 35.1739 13.434 35.0021L13.4279 34.9933C13.1874 34.6508 13.1873 34.6507 13.4813 34.3517C13.5236 34.3094 13.581 34.252 13.5286 34.1425C13.5 34.1084 13.4755 34.0795 13.4526 34.0524C13.4119 34.0044 13.3764 33.9624 13.3318 33.9082C13.3097 33.8813 13.292 33.851 13.2794 33.8186C13.2616 33.7687 13.2572 33.715 13.2668 33.6629C13.2765 33.6108 13.2998 33.5622 13.3344 33.522C13.3743 33.4747 13.4141 33.4274 13.4539 33.3825C13.4874 33.3423 13.5101 33.2942 13.5197 33.2427C13.5293 33.1912 13.5256 33.1382 13.5088 33.0886C13.5088 33.0879 13.5085 33.0872 13.508 33.0867C13.5075 33.0862 13.5069 33.086 13.5062 33.086C13.4589 32.949 13.3193 32.8594 13.1774 32.8893C13.0932 32.9067 13.0086 32.944 12.919 32.9839C12.213 33.3111 11.5037 33.6267 10.7912 33.9306C10.7015 33.9695 10.6099 34.0036 10.5166 34.0329C10.2873 34.1026 10.0531 34.1225 9.80407 34.008C9.73195 33.9739 9.64222 33.9784 9.55422 33.9829C9.53265 33.984 9.51118 33.985 9.49011 33.9855C9.20037 33.9906 9.05405 33.7861 8.94196 33.5744C8.9045 33.5046 8.96926 33.3426 9.03661 33.2654C9.0899 33.2082 9.1495 33.1572 9.21426 33.1134C9.27495 33.069 9.33821 33.0283 9.4037 32.9913C9.89209 32.7124 10.3829 32.4383 10.8761 32.1691C11.1751 32.003 11.4751 31.8407 11.7755 31.6781C11.9482 31.5847 12.121 31.4912 12.2938 31.3968C12.3287 31.3768 12.5107 31.2348 12.3712 31.2697C12.2818 31.2949 12.1924 31.32 12.103 31.345C11.6438 31.4737 11.1842 31.6025 10.7316 31.7505C10.4078 31.8602 10.0789 31.9524 9.74754 32.0296C9.67447 32.0466 9.60135 32.064 9.52814 32.0814C9.01009 32.2046 8.48754 32.329 7.94614 32.3137C7.89381 32.3137 7.84148 32.3113 7.79158 32.3087L7.76693 32.3069C7.33385 32.276 7.15173 32.263 6.9122 31.8203C6.8758 31.7498 6.86845 31.6678 6.89172 31.5919C6.91499 31.516 6.96704 31.4523 7.03671 31.4143C7.19988 31.3281 7.36358 31.2419 7.52782 31.1554C7.71473 31.057 7.90234 30.9582 8.09068 30.8587C8.12799 30.8437 8.12799 30.7739 8.06064 30.7988C7.91778 30.8542 7.77489 30.9081 7.63213 30.962C7.40905 31.0462 7.18631 31.1302 6.96452 31.2198C6.89701 31.2469 6.82532 31.2621 6.75263 31.2647C6.61392 31.2675 6.47876 31.2207 6.37148 31.1328C6.2095 30.9965 6.11227 30.9359 5.91556 30.8511C5.89772 30.8437 5.87048 30.8379 5.83965 30.8314C5.73679 30.8098 5.59392 30.7797 5.62647 30.6494V30.6468C5.6508 30.5663 5.67405 30.4842 5.69894 30.3963C5.71238 30.3489 5.7263 30.2997 5.74114 30.2482C5.74991 30.2212 5.76481 30.1966 5.78467 30.1762C5.80453 30.1559 5.82882 30.1405 5.85564 30.1311C6.24939 30.0016 6.63554 29.8065 6.98439 29.5804C7.06878 29.5251 7.13695 29.4483 7.1819 29.3579C7.22685 29.2675 7.24697 29.1669 7.24021 29.0662C7.23262 28.9599 7.23763 28.8669 7.2675 28.7822C7.32064 28.6303 7.46599 28.4882 7.61134 28.4009C7.952 28.1861 8.30005 27.9847 8.64857 27.783C8.79706 27.6971 8.94564 27.6111 9.09378 27.524C9.24824 27.4339 9.40169 27.3438 9.55744 27.2523C9.64286 27.2021 9.72898 27.1516 9.81634 27.1004C9.91599 27.043 9.96331 26.9285 9.95588 26.8139C9.95386 26.7915 9.95306 26.7691 9.95346 26.7467C9.95307 26.6137 9.99018 26.4832 10.0605 26.3704C10.1477 26.2284 10.0032 26.0541 9.84622 26.1187C9.57496 26.232 9.31264 26.3554 9.05211 26.478C8.7623 26.6144 8.47471 26.7497 8.17951 26.8688C7.14799 27.2848 6.13634 27.7481 5.1397 28.2415C4.91554 28.3517 4.68879 28.4515 4.45961 28.5484C4.40163 28.5734 4.34188 28.5983 4.28196 28.6232C4.23177 28.6453 4.17637 28.6528 4.12211 28.6449C4.06784 28.637 4.0169 28.6139 3.9751 28.5784C3.958 28.5644 3.94114 28.5505 3.92446 28.5367C3.83418 28.4622 3.7491 28.392 3.65872 28.3268C3.39087 28.1401 3.2562 27.863 3.12185 27.5866C3.10245 27.5467 3.08305 27.5068 3.06326 27.4671C3.00593 27.35 3.04323 27.2628 3.15532 27.2005C3.35573 27.0834 3.55607 26.9674 3.75721 26.851C3.85122 26.7965 3.94541 26.742 4.03987 26.6872L4.06915 26.6703C4.15695 26.6197 4.24417 26.5694 4.33138 26.5178C4.36799 26.4963 4.39566 26.4623 4.40938 26.4221C4.4231 26.3819 4.42196 26.3381 4.40616 26.2987C4.37218 26.2239 4.32197 26.1577 4.25919 26.1049C4.24876 26.0929 4.23706 26.082 4.2243 26.0726C4.04051 25.9132 3.9659 25.7437 3.9982 25.5842C4.02065 25.4695 4.09785 25.3574 4.23238 25.2553C4.25569 25.2375 4.27896 25.2195 4.30224 25.2016C4.63913 24.9423 4.97569 24.6832 5.3952 24.5526C5.49276 24.5241 5.57586 24.4541 5.6592 24.3837C5.71422 24.3373 5.76936 24.2908 5.82884 24.2561C6.01888 24.141 6.21128 24.032 6.40344 23.9232C6.55633 23.8366 6.70907 23.7501 6.86035 23.6607C6.97153 23.5965 7.06423 23.5047 7.12942 23.3942C6.68657 23.5838 6.24395 23.7731 5.80075 23.9627C4.77021 24.4035 3.73651 24.8457 2.68938 25.2952C2.66387 25.306 2.6391 25.3167 2.61428 25.3274C2.59307 25.3366 2.57181 25.3458 2.55 25.355C2.50246 25.3749 2.45142 25.3852 2.39987 25.3851C2.34833 25.3851 2.29731 25.3747 2.2498 25.3547C2.20229 25.3347 2.15925 25.3055 2.12319 25.2686C2.08714 25.2318 2.05879 25.1881 2.03982 25.1402C2.00592 25.0475 1.97189 24.9566 1.93797 24.866L1.92773 24.8387C1.87734 24.7038 1.87844 24.5551 1.93082 24.421C1.98321 24.2869 2.08319 24.1769 2.21165 24.1119L2.24169 24.0969C2.52619 23.953 2.80756 23.8114 3.08708 23.6707C3.39325 23.5166 3.6972 23.3636 4.00062 23.2099C3.3173 23.2448 2.73492 23.5339 2.15448 23.8278C2.12939 23.8402 2.10444 23.8526 2.0795 23.865C2.02417 23.8925 1.96889 23.92 1.91223 23.9473C1.85735 23.9754 1.79382 23.9816 1.73459 23.9645C1.67535 23.9474 1.62487 23.9083 1.59342 23.8553C1.48344 23.6608 1.41641 23.4417 1.38654 23.18C1.3839 23.1546 1.38889 23.1289 1.40089 23.1062C1.41288 23.0836 1.43132 23.0651 1.45388 23.0529C1.50487 23.0246 1.55396 22.993 1.60085 22.9583C1.68026 22.8933 1.75559 22.8244 1.83092 22.7555C1.85716 22.7315 1.88339 22.7076 1.90981 22.6837C1.95935 22.6375 2.00626 22.5864 2.05311 22.5354C2.14995 22.4299 2.24654 22.3247 2.36573 22.2627C2.76321 22.0496 3.16695 21.8507 3.57076 21.6518C3.79978 21.539 4.02882 21.4262 4.25677 21.3108C4.42084 21.2266 4.58156 21.1348 4.74185 21.0432C4.85657 20.9777 4.97107 20.9123 5.08641 20.8499L5.11282 20.8357C5.5924 20.579 6.07203 20.3222 6.55398 20.0726C6.99747 19.8427 7.44354 19.6136 7.89187 19.3942C7.9496 19.3645 8.00859 19.3362 8.06695 19.3081C8.0868 19.2986 8.10658 19.2891 8.12621 19.2796C8.30593 19.1914 8.49203 19.116 8.67755 19.0409C8.77496 19.0014 8.87221 18.962 8.96829 18.9209C9.42922 18.7218 9.89015 18.52 10.3511 18.3154C10.3547 18.3154 10.3557 18.3091 10.3568 18.3018C10.3573 18.2989 10.3578 18.2958 10.3585 18.293H10.3661C10.3687 18.2883 10.372 18.2841 10.3759 18.2805C10.3712 18.2823 10.3662 18.2832 10.3611 18.2829C10.3593 18.286 10.3584 18.2894 10.3585 18.293C10.2819 18.3124 10.2047 18.3304 10.1273 18.3483C9.95556 18.3882 9.78354 18.4281 9.6185 18.4848C8.60458 18.8237 7.59051 19.1675 6.58144 19.5264C6.15862 19.6768 5.74004 19.8392 5.32082 20.0018C5.00376 20.1248 4.68634 20.2479 4.36643 20.3662C4.10495 20.4621 3.84446 20.5611 3.58396 20.6601C2.9161 20.9138 2.24818 21.1676 1.56338 21.3702C1.38896 21.425 1.21292 21.4749 1.03527 21.5196C0.993438 21.5296 0.8862 21.5148 0.873764 21.3478C0.83145 20.7399 0.881193 20.3113 0.965982 19.7158C0.975996 19.651 1.05562 19.5837 1.11796 19.539C1.1591 19.5089 1.20931 19.4898 1.25897 19.471C1.28747 19.4602 1.3158 19.4494 1.34212 19.4367C1.35695 19.4298 1.37179 19.4229 1.38662 19.4159C1.69064 19.2741 1.99013 19.1344 2.14689 18.8264C2.17927 18.7682 2.20439 18.7063 2.22167 18.642C2.24562 18.5562 2.33324 18.4871 2.41861 18.4198C2.44892 18.3958 2.47896 18.3722 2.50575 18.348C2.55223 18.3077 2.60346 18.2731 2.66537 18.2313C2.69553 18.211 2.72823 18.1889 2.76416 18.1636C2.70402 18.1324 2.6379 18.1078 2.57255 18.0835C2.34553 17.9991 2.12767 17.918 2.20116 17.5756C2.20266 17.5683 2.20237 17.5607 2.20032 17.5536C2.19826 17.5464 2.1945 17.5398 2.18935 17.5345C2.18421 17.5291 2.17783 17.525 2.17077 17.5226C2.16371 17.5203 2.15618 17.5196 2.14883 17.5208C1.87702 17.5706 1.62039 17.6179 1.34131 17.6702C1.32781 17.6725 1.31385 17.6752 1.29963 17.678C1.28223 17.6814 1.26445 17.6849 1.24667 17.6876C1.22861 17.6909 1.21005 17.6899 1.1924 17.6849C1.17475 17.6799 1.15847 17.671 1.14479 17.6587C1.13111 17.6465 1.1204 17.6313 1.11345 17.6143C1.10651 17.5974 1.10352 17.579 1.10471 17.5607C1.10972 17.451 1.11715 17.3488 1.12958 17.2467C1.14776 17.0943 1.16791 16.9414 1.18811 16.7883C1.22335 16.521 1.25872 16.2528 1.28398 15.9835C1.30401 15.7767 1.4211 15.6745 1.5931 15.5947C2.11378 15.3606 2.63447 15.1264 3.15515 14.8872C3.37447 14.7901 3.59121 14.6929 3.80795 14.5933C3.86388 14.5668 3.91686 14.5346 3.98439 14.4937C4.02527 14.4688 4.07149 14.4408 4.12692 14.4088C3.95228 14.3893 3.79121 14.3711 3.63828 14.3537C3.42025 14.329 3.21878 14.3062 3.0182 14.2843C2.86623 14.2669 2.59958 14.0301 2.56728 13.8607C2.53498 13.6938 2.61283 13.559 2.74494 13.4621C2.82019 13.4069 2.90024 13.3585 2.98412 13.3175C3.00934 13.3055 3.03699 13.2966 3.06478 13.2877C3.10567 13.2747 3.14686 13.2615 3.18099 13.2378C3.24149 13.2002 3.29593 13.154 3.36436 13.0959C3.39457 13.0702 3.42752 13.0422 3.46492 13.0117C3.42218 12.9993 3.38349 12.9859 3.34735 12.9734C3.27394 12.948 3.21104 12.9262 3.14611 12.9246C2.97912 12.9196 2.88948 12.8298 2.82956 12.6878C2.76238 12.5208 2.8546 12.4138 2.97912 12.3316C3.13182 12.2263 3.28758 12.1253 3.44305 12.0245C3.54063 11.9612 3.6381 11.898 3.73463 11.8338C3.74845 11.8257 3.76441 11.8204 3.78054 11.8149C3.79927 11.8086 3.81822 11.8023 3.83427 11.7915C3.96138 11.7043 3.95395 11.5848 3.81441 11.5299C3.73223 11.497 3.645 11.4811 3.55825 11.4653C3.5398 11.462 3.52138 11.4586 3.50303 11.4551C3.28872 11.4128 3.20151 11.2209 3.14417 11.0615C3.08684 10.9021 3.21895 10.77 3.3559 10.6553C3.63224 10.4258 3.95326 10.2843 4.27394 10.1429C4.38133 10.0956 4.48868 10.0483 4.59431 9.99769C4.60415 9.99295 4.614 9.98822 4.62402 9.98341C4.66729 9.96266 4.71394 9.94028 4.77858 9.90789L4.76373 9.88686C4.69925 9.79553 4.63687 9.7072 4.57686 9.61719C4.50952 9.52012 4.50952 9.39544 4.56443 9.29079C4.63161 9.16546 4.64405 9.03917 4.5444 8.87476C4.45218 8.71325 4.67893 8.36941 4.91311 8.2449C4.99489 8.20105 5.07637 8.15682 5.1578 8.11262C5.48821 7.93327 5.81762 7.75445 6.16137 7.60454C6.64614 7.39425 7.13615 7.19744 7.62594 7.00071C7.89637 6.89209 8.16675 6.78349 8.43614 6.67267C8.53471 6.63233 8.63348 6.59035 8.73313 6.548C8.76196 6.53574 8.79087 6.52345 8.81987 6.51116C8.99187 6.4338 8.93195 6.17217 8.74509 6.17717H8.71521C8.58146 6.18132 8.44759 6.17803 8.3142 6.16732C8.1452 6.15499 7.9771 6.1325 7.8108 6.09998C7.80552 6.09949 7.80043 6.09778 7.79594 6.09497C7.59196 6.03764 7.54173 5.64615 7.75346 5.51695C7.91259 5.41968 7.99504 5.27553 8.07702 5.13221C8.13374 5.03304 8.19023 4.93428 8.27173 4.85172C8.28091 4.84275 8.29 4.8338 8.29903 4.8249C8.39779 4.72757 8.49004 4.63665 8.63802 4.6001C8.7733 4.56488 8.90639 4.52174 9.03661 4.4709C9.09646 4.44922 9.14783 4.40901 9.18324 4.35611C9.21865 4.30321 9.23625 4.2404 9.23348 4.1768C9.22146 4.01221 9.33957 3.90779 9.45874 3.80245C9.51087 3.75636 9.5632 3.7101 9.60493 3.65854C9.66291 3.58635 9.75255 3.54904 9.84719 3.54645C10.0814 3.54145 10.3206 3.4418 10.4677 3.28983C10.5068 3.24886 10.5599 3.21757 10.6123 3.18669C10.6299 3.17629 10.6475 3.16595 10.6644 3.15529C10.7418 3.10481 10.8327 3.10082 10.9224 3.09687C11.0231 3.09245 11.1224 3.08808 11.2001 3.01834C11.3052 2.9243 11.4243 2.91682 11.5429 2.90938C11.6099 2.90517 11.6767 2.90098 11.7408 2.88122C11.8517 2.84558 11.9567 2.79354 12.0522 2.72683C12.2615 2.58147 12.4708 2.47472 12.7374 2.41997C12.9974 2.36764 13.2465 2.26288 13.4965 2.15776C13.6037 2.11266 13.7111 2.0675 13.8195 2.02639L15.1375 1.53542C15.1818 1.51899 15.2259 1.50234 15.27 1.48571C15.3794 1.44444 15.4884 1.4033 15.5985 1.366C15.7834 1.30244 15.968 1.23834 16.1527 1.17425C16.5253 1.04488 16.8979 0.915521 17.2728 0.790569L17.7662 0.633588C18.0369 0.550676 18.3164 0.495361 18.5951 0.440199C18.7187 0.415741 18.8421 0.391314 18.9645 0.364525C19.0118 0.354512 19.0667 0.344498 19.1066 0.361941C19.4505 0.528935 19.7765 0.43171 20.1157 0.327056C20.2242 0.293187 20.3455 0.29623 20.4669 0.299277C20.5238 0.300704 20.5807 0.302133 20.6364 0.299762C20.741 0.294755 20.8457 0.287165 20.9528 0.277313C20.9826 0.274231 21.0124 0.270303 21.0421 0.266393C21.2286 0.241821 21.4096 0.21796 21.5665 0.409261C21.5964 0.44673 21.6513 0.466595 21.7136 0.484037C21.7718 0.498816 21.8243 0.530677 21.8642 0.57552C21.9042 0.620363 21.9298 0.676135 21.9378 0.735658C21.9413 0.766016 21.9453 0.796374 21.9494 0.826998C21.954 0.861704 21.9587 0.896753 21.9627 0.93253L21.9631 0.937763C21.9655 0.965897 21.9679 0.994031 21.9727 1.02216C21.9809 1.09685 22.0171 1.16564 22.0741 1.21467C22.131 1.2637 22.2044 1.28933 22.2795 1.28638C22.3553 1.2827 22.4308 1.27434 22.5056 1.26135C22.735 1.22647 22.9666 1.19917 23.1983 1.17915C23.5497 1.15012 23.9027 1.14597 24.2547 1.16671C24.5462 1.18674 24.95 1.44579 25.0172 1.76976C25.0346 1.86682 25.0147 1.97148 24.9923 2.08356C24.9846 2.1297 24.9661 2.17337 24.9384 2.21105C24.9107 2.24873 24.8745 2.27936 24.8327 2.30046C24.8133 2.31058 24.7933 2.31969 24.773 2.32775C24.2574 2.58291 23.7158 2.78215 23.1734 2.98165C22.9479 3.06463 22.7222 3.14765 22.4982 3.23475C22.1793 3.35665 21.856 3.46753 21.5346 3.57777L21.4743 3.59846C21.306 3.65626 21.1375 3.71341 20.9689 3.77056C20.636 3.88346 20.3031 3.99635 19.9723 4.1143C19.8382 4.15904 19.7107 4.22138 19.596 4.33104C19.7478 4.2982 19.8994 4.26594 20.051 4.23369C20.1983 4.20235 20.3456 4.17101 20.493 4.13917C20.5385 4.13028 20.584 4.11944 20.6294 4.10861C20.6862 4.09506 20.743 4.08152 20.7998 4.07182L20.8424 4.0648C21.1294 4.0174 21.4146 3.9703 21.7042 3.93229C21.9502 3.90007 22.1961 3.86646 22.4421 3.83285C23.1283 3.73908 23.8152 3.64521 24.5047 3.58102C25.0674 3.52867 25.6328 3.50996 26.1979 3.49126C26.386 3.48504 26.5741 3.47882 26.762 3.47136C26.7719 3.47136 26.7825 3.47075 26.7931 3.47015C26.8037 3.46954 26.8143 3.46893 26.8244 3.46893C27.0516 3.45886 27.2799 3.45111 27.5087 3.44335C27.621 3.43954 27.7334 3.43572 27.8459 3.43163C27.9985 3.42662 28.1374 3.42662 28.2569 3.56858C28.2918 3.60847 28.3417 3.63092 28.3964 3.64836C28.5111 3.68874 28.6007 3.79275 28.6033 3.91484C28.6076 4.03609 28.5925 4.15725 28.5584 4.2737C28.5375 4.3443 28.4902 4.40412 28.4263 4.4407C28.4084 4.45095 28.3895 4.46179 28.37 4.47302C28.3327 4.49451 28.2929 4.51743 28.2521 4.54034C28.2412 4.54637 28.2297 4.5524 28.2182 4.55843C28.206 4.56484 28.1938 4.57124 28.1823 4.57765C28.1106 4.61496 28.0334 4.65485 27.9562 4.65743C27.4882 4.66146 27.0386 4.76352 26.5892 4.86556C26.4793 4.8905 26.3695 4.91543 26.2594 4.93893C26.2199 4.94632 26.1799 4.95133 26.1398 4.95395C25.7185 4.98187 25.3116 5.08068 24.9048 5.17948C24.6598 5.239 24.4147 5.29851 24.1665 5.34253C23.7679 5.41424 23.3668 5.48885 22.968 5.56863C22.719 5.61805 22.4673 5.67038 22.2206 5.73013C21.5565 5.88701 20.8943 6.04894 20.2341 6.21594C20.0789 6.25564 19.9256 6.30639 19.7722 6.35716C19.6948 6.3828 19.6173 6.40845 19.5396 6.43267C19.5445 6.46255 19.5471 6.49001 19.5495 6.51746C19.5803 6.51595 19.6114 6.51512 19.6425 6.51428C19.7146 6.51234 19.7872 6.5104 19.8584 6.50002C20.1176 6.46721 20.3756 6.43274 20.6332 6.39832C21.0019 6.34903 21.3699 6.29985 21.7396 6.25583C22.0662 6.21684 22.3931 6.18147 22.7199 6.14612C23.2906 6.08438 23.8608 6.02269 24.428 5.94187C25.315 5.81735 26.1945 5.66537 27.0615 5.42861C27.342 5.35143 27.6374 5.32042 27.9315 5.28954C27.9796 5.28449 28.0276 5.27945 28.0755 5.27421C28.2201 5.25952 28.3422 5.30151 28.4268 5.38872C28.529 5.48837 28.5838 5.64793 28.5814 5.84722C28.833 5.93686 28.8729 6.09384 28.8529 6.26826V6.27068C28.8434 6.34791 28.8293 6.4245 28.8105 6.50002C28.8021 6.54228 28.7846 6.58221 28.7592 6.61705C28.7339 6.65188 28.7012 6.68077 28.6636 6.70174C28.3002 6.8962 27.8956 6.97988 27.4893 7.06391C27.2882 7.10549 27.0867 7.14717 26.8896 7.2024C26.1491 7.41008 25.3949 7.57301 24.6421 7.73563C24.5999 7.74474 24.5577 7.75385 24.5155 7.76297C24.2785 7.81546 24.0371 7.85175 23.7955 7.88806C23.6357 7.91208 23.4758 7.93611 23.317 7.96485C23.1994 7.98715 23.0829 8.01545 22.9682 8.04964C22.961 8.05153 22.9538 8.05343 22.9466 8.05534C22.9164 8.06334 22.8859 8.07143 22.8537 8.07952C22.6156 8.13561 22.3764 8.18938 22.1369 8.24322C22.0254 8.26829 21.9138 8.29336 21.8023 8.3187C21.7982 8.32 21.7935 8.3213 21.7884 8.32262C21.7841 8.32377 21.7795 8.32493 21.7748 8.32613C21.4366 8.40268 21.0946 8.48554 20.7583 8.58034C20.2333 8.72914 19.7176 8.9073 19.2014 9.0856C19.061 9.1341 18.9206 9.18261 18.7799 9.23055C18.5133 9.32482 18.2507 9.4297 17.9883 9.53454C17.8901 9.57375 17.792 9.61295 17.6936 9.65159C17.6205 9.68028 17.5503 9.71505 17.4797 9.75001C17.4589 9.7603 17.4381 9.77061 17.4172 9.78079L17.4186 9.78815C17.423 9.81113 17.4277 9.83578 17.4346 9.86057C17.5229 9.8461 17.6122 9.83163 17.7013 9.8172C17.7504 9.80925 17.7995 9.80131 17.8482 9.79339C18.0455 9.76243 18.2428 9.72978 18.4403 9.69709C18.657 9.66122 18.874 9.6253 19.0918 9.59151C19.5579 9.51901 20.0243 9.44787 20.4908 9.37672C21.2911 9.25465 22.0917 9.13254 22.8913 9.00347C23.1145 8.96665 23.3358 8.91732 23.5567 8.86804C23.8291 8.8073 24.1012 8.74663 24.3763 8.70954C25.1619 8.60961 25.9247 8.40539 26.6855 8.20169C26.7571 8.18252 26.8287 8.16335 26.9003 8.14428C27.2615 8.04779 27.6216 7.94691 27.982 7.84599C28.4219 7.72277 28.8621 7.59948 29.3046 7.48406C29.5837 7.41429 29.8702 7.3668 30.1567 7.3744C30.2387 7.37563 30.3219 7.37131 30.4052 7.36699C30.661 7.35371 30.9189 7.34032 31.1557 7.48648C31.1932 7.50634 31.2504 7.50634 31.2953 7.50392C31.7163 7.45159 32.0028 7.63345 32.1772 8.00975C32.1972 8.05206 32.2171 8.09438 32.2396 8.1467C32.7588 8.07925 32.9839 8.39709 33.2278 8.74154C33.2543 8.77895 33.2811 8.81667 33.3084 8.85425C33.3236 8.87572 33.3339 8.90034 33.3383 8.92629C33.3428 8.95224 33.3414 8.97886 33.3343 9.0042C33.3271 9.02953 33.3144 9.05295 33.297 9.07272C33.2796 9.0925 33.258 9.10813 33.2338 9.11846C33.2324 9.1183 33.231 9.11843 33.2297 9.11885C33.2284 9.11926 33.2272 9.11996 33.2262 9.12089C33.1017 9.17079 33.0768 9.34021 33.1863 9.41741C33.2687 9.47975 33.306 9.53207 33.3284 9.61428C33.3381 9.65231 33.3552 9.68806 33.3787 9.71945C33.4023 9.75084 33.4318 9.77726 33.4656 9.79719C33.4994 9.81711 33.5369 9.83014 33.5757 9.83553C33.6146 9.84092 33.6542 9.83856 33.6921 9.82859C33.6931 9.82763 33.6943 9.8269 33.6955 9.82645C33.6968 9.826 33.6982 9.82585 33.6996 9.82601C33.9039 9.75705 34.0061 9.85928 34.1082 10.0037C34.227 10.1731 34.3478 10.3396 34.4686 10.5062C34.5379 10.6017 34.6073 10.6973 34.6763 10.7936C34.7884 10.953 34.9005 11.1125 35.0077 11.277C35.1084 11.4358 35.1872 11.6108 35.2724 11.8001C35.2821 11.8215 35.2918 11.8432 35.3017 11.865C35.3169 11.8969 35.3217 11.9327 35.3155 11.9675C35.3092 12.0023 35.2922 12.0342 35.2668 12.0588C35.2472 12.0788 35.2233 12.0941 35.197 12.1037C35.1224 12.1292 35.0457 12.1483 34.9678 12.1609C34.449 12.2352 33.9303 12.3044 33.4124 12.3735C33.0449 12.4225 32.6779 12.4715 32.3118 12.5221C32.271 12.5272 32.2308 12.5329 32.1907 12.5386C32.1524 12.5441 32.1141 12.5496 32.0752 12.5544C31.9258 12.5752 31.7765 12.5955 31.6272 12.6158C31.1712 12.6778 30.7155 12.7398 30.2613 12.8128C30.1927 12.823 30.1244 12.8337 30.0562 12.8449C28.9858 10.9495 27.4165 9.8456 26.021 10.2078C24.6379 10.5668 23.8061 12.267 23.7782 14.4162C23.7137 14.4358 23.6465 14.4567 23.5785 14.4791C23.2353 14.5868 22.8535 14.716 22.5893 14.8129C22.1078 14.9888 21.6277 15.169 21.1478 15.3491C21.0021 15.4038 20.8564 15.4585 20.7107 15.513C20.6485 15.5361 20.5863 15.5591 20.5241 15.5821C20.0469 14.5687 19.4279 13.7304 18.7478 13.1464C18.8373 13.1209 18.9267 13.0953 19.016 13.0693C19.1481 13.032 19.2801 12.9945 19.4122 12.9548C19.9189 12.8044 20.4196 12.6395 20.9209 12.4743C21.1419 12.4016 21.363 12.3287 21.5847 12.2571C21.6294 12.2421 21.6722 12.2226 21.715 12.2032C21.7361 12.1936 21.7572 12.184 21.7785 12.1749C20.7869 12.3916 19.8127 12.6483 18.841 12.9099C18.7757 12.9269 18.7114 12.9446 18.6475 12.9623C18.6162 12.971 18.585 12.9796 18.5539 12.9881C17.7487 12.3643 16.8711 12.0963 16.049 12.3097C15.2041 12.5289 14.5553 13.2209 14.1576 14.1988C14.0593 14.2302 13.9611 14.2624 13.8631 14.2953C13.1532 14.5295 12.453 14.7985 11.7604 15.075C11.709 15.0961 11.6616 15.1277 11.6046 15.1657C11.5739 15.1861 11.5404 15.2085 11.5019 15.232C11.5501 15.2366 11.59 15.239 11.629 15.2414L11.6391 15.242C11.6971 15.2465 11.7554 15.2473 11.8135 15.2444C11.842 15.2429 11.8704 15.2388 11.8981 15.232C11.9161 15.2305 11.9337 15.2263 11.9504 15.2196C11.965 15.217 11.9792 15.2128 11.9929 15.2071C12.0054 15.2021 12.0202 15.1971 12.0352 15.1921C12.0926 15.1697 12.1597 15.1398 12.247 15.0999C12.2818 15.0824 12.3167 15.0676 12.3542 15.0526C12.3566 15.0526 12.3597 15.0513 12.3628 15.0501C12.3659 15.0488 12.3691 15.0476 12.3716 15.0476C12.3949 15.0383 12.4204 15.0269 12.4419 15.0172L12.4463 15.0153C12.4625 15.0084 12.4792 15.0025 12.4962 14.9978C12.5024 14.9953 12.5092 14.9922 12.5161 14.9891C12.523 14.986 12.5298 14.9829 12.536 14.9804L12.5684 14.9729C12.5982 14.9629 12.6283 14.9529 12.6606 14.9431C12.6677 14.9402 12.6753 14.9385 12.683 14.9381C12.8682 14.8829 13.0535 14.8285 13.2384 14.7742C13.4142 14.7226 13.5897 14.6711 13.7646 14.6191C13.8538 14.594 13.9428 14.5688 14.0317 14.5434C13.6193 15.8058 13.5857 17.4579 14.0291 19.1662C14.8795 22.4427 17.1626 24.6852 19.1286 24.1749C20.6831 23.7714 21.5739 21.7676 21.4581 19.3266C21.5238 19.3074 21.5896 19.2885 21.6553 19.2701C21.6661 19.2668 21.6768 19.2636 21.6875 19.2605C21.7435 19.2437 21.7982 19.2274 21.8548 19.2127C22.2259 19.1113 22.5996 19.0116 22.9783 18.922C23.4674 18.8057 23.9573 18.6903 24.448 18.5756C24.5109 18.5607 24.5738 18.5458 24.6367 18.5309C25.0287 19.4199 25.5268 20.1829 26.0796 20.7682C26.0034 20.7954 25.9271 20.8228 25.8507 20.8504L25.7343 20.8917C25.4716 20.9851 25.2092 21.0785 24.9487 21.1719C24.914 21.1818 24.882 21.1991 24.8549 21.2228C24.8277 21.2465 24.8062 21.2759 24.7917 21.3089C24.9017 21.2826 25.0116 21.2557 25.1215 21.2287C25.3496 21.1729 25.578 21.117 25.8082 21.0666C25.8168 21.0647 25.8254 21.0628 25.834 21.0608C25.8922 21.0478 25.949 21.0351 26.0077 21.0241C26.0972 21.0047 26.1867 20.9856 26.2762 20.9667C27.1556 21.812 28.153 22.2122 29.0746 21.973C29.9725 21.74 30.6381 20.9415 31.0022 19.8219C31.0129 19.8195 31.0236 19.817 31.0344 19.8145C31.1104 19.7971 31.1863 19.7796 31.2623 19.7615C31.5612 19.692 31.8599 19.6218 32.1585 19.5516C32.8556 19.3878 33.5527 19.2241 34.2521 19.0688C34.8252 18.9417 35.4007 18.8346 35.9813 18.7574C36.2014 18.7285 36.4276 18.7353 36.6631 18.7423C36.6915 18.7432 36.7199 18.744 36.7486 18.7448C36.7911 18.7465 36.8328 18.7575 36.8707 18.7771C36.9187 18.8002 36.9598 18.8357 36.9896 18.8799ZM31.1396 19.3231C31.2178 19.304 31.2961 19.2849 31.3744 19.2659C31.6609 19.1985 31.945 19.1287 32.2289 19.059C32.3232 19.0368 32.4191 19.0181 32.515 18.9994C32.731 18.9574 32.947 18.9153 33.1459 18.8329C33.2273 18.7992 33.3149 18.7756 33.4029 18.7518C33.6408 18.6876 33.8819 18.6225 34.0129 18.3571C34.0365 18.312 34.1212 18.2872 34.1874 18.2678L34.1973 18.2649C34.5227 18.163 34.8488 18.0622 35.1749 17.9615C35.5103 17.8579 35.8458 17.7543 36.1806 17.6494C36.3578 17.5954 36.5314 17.532 36.7174 17.464C36.7458 17.4537 36.7745 17.4432 36.8035 17.4326C36.8164 17.4284 36.8294 17.4236 36.8426 17.4188C36.8598 17.4124 36.8773 17.406 36.8957 17.4003C36.9371 17.3851 36.9714 17.3549 36.9916 17.3157C37.0119 17.2765 37.0168 17.2311 37.0052 17.1884C36.9156 16.8845 36.8308 16.593 36.7468 16.3041L36.7425 16.2893C36.7265 16.2344 36.7105 16.1796 36.6945 16.1264C36.6766 16.0664 36.6406 16.0134 36.5915 15.9746C36.5423 15.9358 36.4824 15.9131 36.4199 15.9097L36.4104 15.9092C36.2471 15.902 36.0982 15.8953 35.959 15.9221C35.0897 16.0894 34.2243 16.2702 33.3594 16.4509C33.245 16.4748 33.1307 16.4987 33.0164 16.5226C32.5007 16.6298 31.9849 16.7419 31.4742 16.864C31.4144 16.8764 31.3571 16.8889 31.2998 16.9039C31.2955 16.9049 31.2913 16.9059 31.287 16.9069C31.3588 17.7798 31.3048 18.6025 31.1396 19.3231ZM31.2067 16.2258L31.3897 16.1858C31.6777 16.1229 31.9652 16.0606 32.2523 15.9983C32.5913 15.9248 32.9299 15.8514 33.2685 15.7772C33.6825 15.6853 34.0959 15.5959 34.5093 15.5066C34.9144 15.4191 35.3194 15.3315 35.7251 15.2415C35.8396 15.218 35.953 15.1897 36.0752 15.1593C36.1081 15.1511 36.1417 15.1428 36.176 15.1343C36.1996 15.1285 36.2216 15.1179 36.2408 15.1031C36.2599 15.0883 36.2757 15.0696 36.2872 15.0483C36.2987 15.027 36.3057 15.0035 36.3075 14.9794C36.3094 14.9553 36.3062 14.931 36.2981 14.9082C36.283 14.8657 36.2683 14.8232 36.2536 14.7808C36.2321 14.7187 36.2107 14.657 36.1885 14.5966C36.1587 14.5106 36.1288 14.4249 36.099 14.3392C36.0615 14.2317 36.0241 14.1243 35.9868 14.0162C35.971 13.9725 35.9388 13.9368 35.897 13.9166C35.874 13.9043 35.8482 13.8983 35.8222 13.8991H35.4162C35.3818 13.8988 35.3482 13.8885 35.3195 13.8695C35.2908 13.8504 35.2683 13.8235 35.2547 13.7919C35.15 13.5378 35.0404 13.4705 34.7589 13.4903C34.5627 13.5035 34.3661 13.5149 34.1694 13.5263C33.5118 13.5642 32.8531 13.6023 32.205 13.7097C31.7341 13.7895 31.264 13.8759 30.7948 13.9689C30.7324 13.9814 30.6701 13.994 30.6077 14.0066C30.7566 14.3842 30.8866 14.7818 30.9941 15.1959C31.0841 15.5426 31.1547 15.8869 31.2067 16.2258ZM23.8389 15.5819C23.7773 15.5973 23.7157 15.6127 23.6541 15.6282L23.6074 15.6396C23.2966 15.7155 22.9857 15.7915 22.6749 15.8704C22.6386 15.8795 22.6023 15.8885 22.566 15.8975C22.0521 16.0252 21.541 16.1523 21.0355 16.2989C21.0255 16.3013 21.013 16.3063 21.0032 16.3089C20.9512 16.3243 20.8992 16.3398 20.8473 16.3554C20.9612 16.6646 21.0622 16.9862 21.1484 17.3184C21.2887 17.859 21.3812 18.3939 21.4291 18.9127C21.4929 18.8873 21.5566 18.862 21.6204 18.8367C22.1811 18.61 22.7425 18.3874 23.3047 18.1691C23.5888 18.057 23.8803 17.9574 24.1718 17.8676C24.232 17.848 24.2922 17.8288 24.3523 17.8101C24.259 17.5435 24.175 17.268 24.1015 16.9849C23.9783 16.5102 23.8914 16.0402 23.8389 15.5819Z" fill="black"/>
</svg>
