<?xml version="1.0" encoding="UTF-8"?>
<svg id="Layer_1" data-name="Layer 1" xmlns="http://www.w3.org/2000/svg" viewBox="0 0 1920 1920">
  <defs>
    <style>
      .cls-1 {
        fill: #fff;
      }
    </style>
  </defs>
  <path class="cls-1" d="M987.45,990.65c0,39.98-54.82,45.92-84.97,45.92-24.02,0-50.37-6.4-71.61-18.74v-13.08c20.41,13.73,47.21,20.69,71.61,20.69,22.45,0,73.84-3.34,73.84-35.06,0-15.77-15.4-21.61-37.57-23.65l-60.29-5.47c-22.26-2.04-49.16-6.4-49.16-34.04,0-32.37,46.47-41.37,72.35-41.37,22.08,0,46.01,3.25,63.45,11.04v12.43c-15.58-8.72-41.28-12.34-63.36-12.34-17.07,0-61.31,5.66-61.31,30.98,0,17.25,20.41,20.41,35.43,21.8l59,5.38c33.58,3.06,52.6,11.97,52.6,35.53Z"/>
  <path class="cls-1" d="M1151.1,901.74h-73.74v129.68h-11.13v-129.68h-73.74v-11.13h158.62v11.13Z"/>
  <path class="cls-1" d="M1176.17,970.71v-80.14h11.13v80.14c0,38.4,34.97,54.45,68.46,54.45s68.08-16.42,68.08-54.45v-80.14h11.13v80.14c0,48.14-44.52,65.58-79.4,65.58s-79.4-17.44-79.4-65.58Z"/>
  <path class="cls-1" d="M1534.52,961.01c0,57.51-47.4,70.41-91.18,70.41h-84.32v-140.81h84.32c43.78,0,91.18,12.8,91.18,70.4Zm-11.13,.09c0-48.51-39.52-59.37-80.05-59.37h-73.19v118.55h73.19c40.63,0,80.05-10.67,80.05-59.18Z"/>
  <path class="cls-1" d="M1562.37,890.61v140.81h-11.13v-140.81h11.13Z"/>
  <g>
    <path class="cls-1" d="M1796.26,1030.78c4.24-11.39,6.38-23.34,6.38-35.58,0-56.5-45.97-102.47-102.47-102.47s-102.47,45.97-102.47,102.47c0,12.24,2.15,24.19,6.38,35.58h-9.85c-3.87-11.48-5.83-23.44-5.83-35.58,0-61.63,50.14-111.77,111.77-111.77s111.77,50.14,111.77,111.77c0,12.14-1.96,24.1-5.83,35.58h-9.85Z"/>
    <path class="cls-1" d="M1772.94,964.49c-5.21-20.09-18.98-33.9-30.75-30.85-11.77,3.05-17.08,21.82-11.87,41.9,5.21,20.09,18.98,33.9,30.75,30.85,11.77-3.05,17.08-21.82,11.87-41.9Z"/>
    <path class="cls-1" d="M1680.53,946.64c-12.16,3.15-17.75,22.14-12.49,42.4,5.26,20.26,19.37,34.13,31.53,30.97,12.16-3.15,17.75-22.14,12.49-42.4-5.26-20.26-19.37-34.13-31.53-30.97Z"/>
  </g>
  <path class="cls-1" d="M315.11,885.83v141.13h-35.33v-87.76l-50,87.76h-36.49l-50.37-88.52v88.52h-34.86v-141.13h45.56l58.2,102.18,58.2-102.18h45.09Z"/>
  <path class="cls-1" d="M407.57,916.7h.19c32.26,0,56.9,10.13,63.87,26.68,1.95,4.65,2.6,9.95,2.6,20.73v62.85h-31.61l-1.86-14.04c-8.18,10.51-31.24,18.87-58.11,18.87s-53.74-8.65-53.74-34.68c0-16.46,10.6-25.57,23.71-30.4,19.62-7.34,52.71-8.09,88.14-8.09v-1.02c0-9.2-12.64-14.97-36.63-14.97-21.2,0-42.39,4.56-60.8,12.27v-27.7c14.78-5.86,42.21-10.51,64.24-10.51Zm33.19,63.31h-7.16c-13.48,0-51.78,0-63.87,7.34-2.51,1.58-5.39,4.37-5.39,8.55,0,8.92,13.39,10.51,20.17,10.51,33.84,0,56.25-12.74,56.25-26.4Z"/>
  <path class="cls-1" d="M644.72,976.11v50.85h-33.47v-50.85c0-25.57-21.2-32.91-35.7-32.91-25.94,0-47.79,12.83-47.79,31.05v52.71h-33.47v-105.43h31.61l1.86,15.75c13.92-13.32,34.73-20.58,54.11-20.58,32.91,0,62.85,11.62,62.85,59.41Z"/>
  <path class="cls-1" d="M812.35,974.87l-.65,9.2h-116.12c6.41,18.41,31.79,21.85,48.62,21.85,19.06,0,37.19-4.37,55.04-10.04v28.82c-18.59,5.21-38.21,7.72-56.99,7.72-39.7,0-81.63-11.16-81.63-57.46s44.81-57.64,75.86-57.64,75.86,9.86,75.86,57.55Zm-116.49-10.32h81.35c0-6.51-6.79-20.73-40.72-20.73s-40.63,14.23-40.63,20.73Z"/>
</svg>