<?xml version="1.0" encoding="UTF-8"?>
<svg id="Layer_1" data-name="Layer 1" xmlns="http://www.w3.org/2000/svg" viewBox="0 0 1920 1920">
  <path d="M1360.12,996.33v13.08h-165.46v-.11h-.44v-165.35h13.08v152.38h152.82Z"/>
  <path d="M1556.63,961.34h-120.53l-27.5,47.74h-15.09l95.32-165.46h15.09l95.32,165.46h-15.09l-27.5-47.74Zm-7.53-13.08l-52.73-91.54-52.73,91.54h105.46Z"/>
  <path d="M1798.34,963.2c0,37.82-35.32,45.89-65.51,45.89h-119.35v-165.46h119.35c26.81,0,53.84,13.41,53.84,42.18,0,20.17-10.92,31.42-25.85,36.92,20.45,3.86,37.52,14.18,37.52,40.47Zm-171.78-45.89h106.32c18.86,0,40.77-7.96,40.77-30.41s-21.25-30.19-40.77-30.19h-106.32v60.6Zm158.75,45.76c0-28.56-29.1-32.7-52.43-32.7h-106.32v65.62h106.32c22.24,0,52.43-3.81,52.43-32.92Z"/>
  <g>
    <path d="M377.74,843.63v163.81h-41.01v-101.87l-58.03,101.87h-42.35l-58.46-102.74v102.74h-40.47v-163.81h52.88l67.55,118.6,67.55-118.6h52.34Z"/>
    <path d="M492.26,879.45h.22c37.45,0,66.04,11.76,74.14,30.97,2.27,5.4,3.02,11.55,3.02,24.07v72.95h-36.69l-2.16-16.3c-9.5,12.19-36.26,21.91-67.44,21.91s-62.37-10.04-62.37-40.25c0-19.1,12.3-29.67,27.52-35.29,22.77-8.53,61.18-9.39,102.3-9.39v-1.19c0-10.68-14.67-17.37-42.52-17.37-24.6,0-49.21,5.29-70.57,14.24v-32.16c17.16-6.8,48.99-12.19,74.57-12.19Zm38.52,73.49h-8.31c-15.65,0-60.11,0-74.14,8.53-2.91,1.84-6.26,5.07-6.26,9.93,0,10.36,15.54,12.19,23.42,12.19,39.28,0,65.29-14.78,65.29-30.65Z"/>
    <path d="M777.66,948.41v59.03h-38.85v-59.03c0-29.67-24.6-38.2-41.44-38.2-30.11,0-55.47,14.89-55.47,36.04v61.18h-38.85v-122.37h36.69l2.16,18.28c16.16-15.45,40.31-23.89,62.8-23.89,38.2,0,72.95,13.49,72.95,68.95Z"/>
    <path d="M982.39,946.97l-.76,10.68h-134.78c7.44,21.37,36.9,25.36,56.44,25.36,22.12,0,43.17-5.07,63.88-11.65v33.45c-21.58,6.04-44.35,8.96-66.15,8.96-46.08,0-94.75-12.95-94.75-66.69s52.01-66.91,88.06-66.91,88.05,11.44,88.05,66.8Zm-135.21-11.98h94.42c0-7.55-7.88-24.07-47.27-24.07s-47.16,16.51-47.16,24.07Z"/>
    <path d="M1150.6,889.33v31.3c-20.5-9.07-46.18-11.22-64.31-11.22-11.87,0-38.74,.32-38.74,11.87,0,5.4,5.83,6.8,29.35,9.17l32.05,3.24c37.12,3.78,59.57,8.85,59.57,35.29v.21c0,37.55-45.75,43.92-82.01,43.92s-62.48-10.04-76.62-17.16v-34.53c30.97,18.56,61.29,21.04,73.92,21.04,28.6,0,45.86-3.99,45.86-12.52,0-5.4-6.8-6.26-32.59-8.85l-27.73-2.8c-27.95-2.81-60.65-7.01-60.65-35.94,0-27.08,28.6-42.62,75.86-42.62,37.66,0,61.29,7.55,66.04,9.6Z"/>
  </g>
</svg>