<?xml version="1.0" encoding="UTF-8"?>
<svg id="Layer_1" data-name="Layer 1" xmlns="http://www.w3.org/2000/svg" viewBox="0 0 1920 1920">
  <path d="M335.82,897.61v141.13h-35.33v-87.76l-50,87.76h-36.49l-50.37-88.52v88.52h-34.86v-141.13h45.56l58.2,102.18,58.2-102.18h45.09Z"/>
  <path d="M428.28,928.47h.19c32.26,0,56.9,10.13,63.87,26.68,1.95,4.65,2.6,9.95,2.6,20.73v62.85h-31.61l-1.86-14.04c-8.18,10.51-31.24,18.87-58.11,18.87s-53.74-8.65-53.74-34.68c0-16.46,10.6-25.57,23.71-30.4,19.62-7.34,52.71-8.09,88.14-8.09v-1.02c0-9.2-12.64-14.97-36.63-14.97-21.2,0-42.39,4.56-60.8,12.27v-27.7c14.78-5.86,42.21-10.51,64.24-10.51Zm33.19,63.31h-7.16c-13.48,0-51.78,0-63.87,7.34-2.51,1.58-5.39,4.37-5.39,8.55,0,8.92,13.39,10.51,20.17,10.51,33.84,0,56.25-12.74,56.25-26.4Z"/>
  <path d="M665.43,987.88v50.85h-33.47v-50.85c0-25.57-21.2-32.91-35.7-32.91-25.94,0-47.79,12.83-47.79,31.05v52.71h-33.47v-105.43h31.61l1.86,15.75c13.92-13.32,34.73-20.58,54.11-20.58,32.91,0,62.85,11.62,62.85,59.41Z"/>
  <path d="M833.06,986.65l-.65,9.2h-116.12c6.41,18.41,31.79,21.85,48.62,21.85,19.06,0,37.19-4.37,55.04-10.04v28.82c-18.59,5.21-38.21,7.72-56.99,7.72-39.7,0-81.63-11.16-81.63-57.46s44.81-57.64,75.86-57.64,75.86,9.86,75.86,57.55Zm-116.49-10.32h81.35c0-6.51-6.79-20.73-40.72-20.73s-40.63,14.23-40.63,20.73Z"/>
  <polygon points="1261.82 997.92 1260.61 1000.02 1373.46 1000.02 1372.25 997.92 1261.82 997.92"/>
  <path d="M935.82,896.9c-3.18,0-7.24,.18-11.78,.63h28.43c-5.64-.42-11.25-.63-16.66-.63Z"/>
  <path d="M881.56,910.34h-17.54c-2.75,3.75-4.71,8-5.63,12.81h12.59c1.82-5.18,5.63-9.4,10.57-12.81Z"/>
  <path d="M1025.25,1012.83h-13.83c-3.81,5.49-9.68,9.66-16.61,12.81h21.62c3.77-3.64,6.8-7.88,8.83-12.81Z"/>
  <path d="M924.04,897.53h-44.75c-6.16,3.41-11.46,7.63-15.26,12.81h17.54c11.46-7.9,29.06-11.5,42.48-12.81Z"/>
  <path d="M935.82,896.9c5.41,0,11.02,.2,16.66,.63h51.55v-.73c-18.78-8.39-44.54-11.88-68.31-11.88-16.05,0-39.47,3.22-56.43,12.61h44.75c4.54-.44,8.6-.63,11.78-.63Z"/>
  <path d="M869.8,930.26c0-2.55,.42-4.92,1.19-7.11h-12.59c-.38,2.01-.58,4.11-.58,6.31,0,2.32,.2,4.47,.53,6.5h12.26c-.52-1.72-.81-3.61-.81-5.7Z"/>
  <path d="M1004.03,910.18v-12.66h-51.55c19.14,1.43,38.59,5.41,51.55,12.66Z"/>
  <path d="M1028.04,1000.02h-12.04c-.42,4.92-2.04,9.16-4.57,12.81h13.83c1.58-3.84,2.55-8.09,2.78-12.81Z"/>
  <path d="M1028.1,997.77c0-3.88-.48-7.39-1.43-10.56h-13.19c1.71,2.89,2.63,6.28,2.63,10.27,0,.87-.05,1.71-.12,2.54h12.04c.04-.74,.06-1.49,.06-2.25Z"/>
  <path d="M1018.66,974.39h-27.18c10.41,2.39,18.19,6.34,22,12.81h13.19c-1.51-5.08-4.2-9.31-8.01-12.81Z"/>
  <path d="M936.61,1047.21c16.37,0,39.48-1.63,58.39-8.76h-110.2c16.85,5.78,34.86,8.76,51.81,8.76Z"/>
  <path d="M859.51,1012.95v12.69h24.88c-8.85-3.36-17.28-7.58-24.88-12.69Z"/>
  <path d="M987.36,961.58h-103.27c8.45,2.58,17.88,3.72,26.66,4.53l64.92,5.89c5.74,.53,11.05,1.3,15.82,2.39h27.18c-6.91-6.36-17.48-10.36-31.3-12.81Z"/>
  <path d="M994.81,1025.64c-18.24,8.3-43.77,9.58-58.2,9.58-17.18,0-35.47-3.23-52.22-9.58h-24.88v1.39c7.88,4.58,16.43,8.38,25.29,11.42h110.2c8.25-3.11,15.7-7.28,21.43-12.81h-21.62Z"/>
  <path d="M870.61,935.96h-12.26c.85,5.11,2.71,9.33,5.33,12.81h20.02c-6.24-2.6-11.22-6.57-13.09-12.81Z"/>
  <path d="M971.47,959.52l-63.52-5.79c-7.78-.72-16.88-1.88-24.25-4.96h-20.02c4.8,6.36,12.12,10.28,20.41,12.81h103.27c-4.9-.87-10.2-1.54-15.89-2.06Z"/>
  <rect x="1059.4" y="1000.02" width="11.99" height="12.81"/>
  <rect x="1059.4" y="961.58" width="11.99" height="12.81"/>
  <polygon points="1071.38 993.53 1071.38 987.2 1059.4 987.2 1059.4 1000.02 1071.38 1000.02 1071.38 993.53"/>
  <path d="M1205.8,987.2h-134.42v6.32h96.97c13.3,0,26.07-.53,37.45-6.32Z"/>
  <rect x="1059.4" y="923.15" width="11.99" height="12.81"/>
  <path d="M1231.85,935.96c-.47-4.37-1.46-8.69-2.96-12.81h-13.02c1.99,4,3.29,8.35,3.9,12.81h12.07Z"/>
  <polygon points="1071.38 981.54 1071.38 974.39 1059.4 974.39 1059.4 987.2 1071.38 987.2 1071.38 981.54"/>
  <rect x="1059.4" y="948.77" width="11.99" height="12.81"/>
  <rect x="1059.4" y="935.96" width="11.99" height="12.81"/>
  <path d="M1071.38,910.34v-8.29h96.97c12.38,0,24.27,.5,33.86,6.09v.1c1.1,.64,2.13,1.35,3.12,2.1h16.71c-3.64-4.94-8.23-9.24-13.74-12.49-.19-.11-.39-.21-.58-.32h-148.33v12.81h11.99Z"/>
  <path d="M1208.3,985.84c5.11-3.02,9.43-6.94,12.93-11.44h-17.26c-.48,.32-.96,.65-1.46,.95-10.19,6.09-22.97,6.19-34.15,6.19h-96.97v5.66h134.42c.84-.43,1.68-.88,2.5-1.37Z"/>
  <rect x="1059.4" y="1012.83" width="11.99" height="12.81"/>
  <path d="M1168.36,890.06h-108.96v7.47h148.33c-11.85-6.78-25.31-7.47-39.37-7.47Z"/>
  <path d="M1231.72,948.77h-12.1c-.73,4.51-2.16,8.86-4.26,12.81h13.11c1.6-4.11,2.69-8.43,3.25-12.81Z"/>
  <rect x="1059.4" y="1038.45" width="11.99" height="3.21"/>
  <path d="M1215.36,961.58c-2.71,5.1-6.53,9.54-11.39,12.81h17.26c3.03-3.89,5.45-8.22,7.23-12.81h-13.11Z"/>
  <rect x="1059.4" y="1025.64" width="11.99" height="12.81"/>
  <path d="M1215.87,923.15h13.02c-1.66-4.57-3.96-8.89-6.84-12.81h-16.71c4.53,3.39,8.06,7.82,10.54,12.81Z"/>
  <rect x="1059.4" y="910.34" width="11.99" height="12.81"/>
  <path d="M1219.62,948.77h12.1c.3-2.31,.46-4.65,.46-6.98,0-1.95-.12-3.9-.33-5.83h-12.07c.27,1.93,.41,3.88,.41,5.83,0,2.35-.2,4.68-.57,6.98Z"/>
  <polygon points="1222.79 1041.66 1236.62 1041.66 1238.47 1038.45 1224.64 1038.45 1222.79 1041.66"/>
  <polygon points="1365.15 961.58 1357.77 948.77 1343.94 948.77 1351.32 961.58 1365.15 961.58"/>
  <polygon points="1290.13 948.77 1297.51 935.96 1283.68 935.96 1276.3 948.77 1290.13 948.77"/>
  <polygon points="1261.54 974.39 1275.37 974.39 1282.75 961.58 1268.92 961.58 1261.54 974.39"/>
  <polygon points="1282.75 961.58 1290.13 948.77 1276.3 948.77 1268.92 961.58 1282.75 961.58"/>
  <polygon points="1323.95 890.06 1310.12 890.06 1305.82 897.53 1328.25 897.53 1323.95 890.06"/>
  <polygon points="1397.45 1041.66 1411.28 1041.66 1409.43 1038.45 1395.6 1038.45 1397.45 1041.66"/>
  <polygon points="1365.35 985.93 1268.72 985.93 1275.37 974.39 1261.54 974.39 1254.16 987.2 1379.91 987.2 1372.53 974.39 1358.7 974.39 1365.35 985.93"/>
  <polygon points="1358.7 974.39 1372.53 974.39 1365.15 961.58 1351.32 961.58 1358.7 974.39"/>
  <polygon points="1254.16 987.2 1246.78 1000.02 1260.61 1000.02 1261.82 997.92 1372.25 997.92 1373.46 1000.02 1387.29 1000.02 1379.91 987.2 1254.16 987.2"/>
  <polygon points="1239.4 1012.83 1232.02 1025.64 1245.85 1025.64 1253.23 1012.83 1239.4 1012.83"/>
  <polygon points="1304.89 923.15 1312.27 910.34 1298.44 910.34 1291.06 923.15 1304.89 923.15"/>
  <polygon points="1380.84 1012.83 1388.22 1025.64 1402.05 1025.64 1394.67 1012.83 1380.84 1012.83"/>
  <polygon points="1232.02 1025.64 1224.64 1038.45 1238.47 1038.45 1245.85 1025.64 1232.02 1025.64"/>
  <polygon points="1388.22 1025.64 1395.6 1038.45 1409.43 1038.45 1402.05 1025.64 1388.22 1025.64"/>
  <polygon points="1343.01 923.15 1335.63 910.34 1321.8 910.34 1329.18 923.15 1343.01 923.15"/>
  <polygon points="1312.27 910.34 1317.03 902.06 1321.8 910.34 1335.63 910.34 1328.25 897.53 1305.82 897.53 1298.44 910.34 1312.27 910.34"/>
  <polygon points="1343.94 948.77 1357.77 948.77 1350.39 935.96 1336.56 935.96 1343.94 948.77"/>
  <polygon points="1246.78 1000.02 1239.4 1012.83 1253.23 1012.83 1260.61 1000.02 1246.78 1000.02"/>
  <polygon points="1373.46 1000.02 1380.84 1012.83 1394.67 1012.83 1387.29 1000.02 1373.46 1000.02"/>
  <polygon points="1350.39 935.96 1343.01 923.15 1329.18 923.15 1336.56 935.96 1350.39 935.96"/>
  <polygon points="1297.51 935.96 1304.89 923.15 1291.06 923.15 1283.68 935.96 1297.51 935.96"/>
  <path d="M1417.71,961.58h12c.24-4.52,.88-8.79,1.85-12.81h-12.34c-.79,4.04-1.3,8.31-1.5,12.81Z"/>
  <path d="M1419.22,948.77h12.34c1.12-4.59,2.69-8.86,4.66-12.81h-13.3c-1.56,3.99-2.81,8.26-3.7,12.81Z"/>
  <path d="M1417.61,965.91c0,2.92,.13,5.75,.38,8.48h12.07c-.3-2.73-.46-5.55-.46-8.48,0-1.47,.04-2.91,.12-4.33h-12c-.06,1.42-.1,2.86-.1,4.33Z"/>
  <path d="M1591.98,1025.64h-12.37c-20.74,6.11-42.11,9.38-63.83,9.38-16.34,0-32.87-2.95-47.03-9.38h-23.26c6.91,5.36,14.71,9.58,22.93,12.81h109.76c4.63-1.25,9.23-2.63,13.8-4.13v-8.69Z"/>
  <path d="M1591.98,909.98v-12.46h-57.35c19.51,1.69,38.75,5.95,57.35,12.46Z"/>
  <path d="M1515.78,1047.01c21.16,0,42.05-3.05,62.4-8.56h-109.76c15.31,6,32.09,8.56,47.35,8.56Z"/>
  <path d="M1420.15,987.2h12.58c-1.27-3.99-2.18-8.26-2.68-12.81h-12.07c.41,4.52,1.14,8.78,2.17,12.81Z"/>
  <path d="M1500.85,897.53c4.91-.55,9.9-.82,14.93-.82,6.31,0,12.59,.28,18.85,.82h57.35v-.23c-24.57-8.09-50.23-12.59-76.2-12.59-18.47,0-39.16,3.74-56.77,12.81h41.84Z"/>
  <path d="M1436.22,935.96c2.35-4.72,5.28-8.98,8.68-12.81h-15.34c-2.59,3.92-4.83,8.18-6.65,12.81h13.3Z"/>
  <path d="M1432.6,1012.83h16.5c-4.06-3.75-7.62-8.01-10.54-12.81h-13.83c2.2,4.67,4.85,8.93,7.87,12.81Z"/>
  <path d="M1460.53,910.34c11.59-6.97,25.56-11.16,40.32-12.81h-41.84c-6.72,3.46-13,7.7-18.52,12.81h20.04Z"/>
  <path d="M1424.73,1000.02h13.83c-2.38-3.91-4.35-8.17-5.82-12.81h-12.58c1.16,4.57,2.7,8.84,4.57,12.81Z"/>
  <path d="M1579.61,1025.64h12.37v-4c-4.1,1.45-8.22,2.77-12.37,4Z"/>
  <path d="M1429.57,923.15h15.34c4.46-5.01,9.73-9.27,15.62-12.81h-20.04c-4.09,3.78-7.77,8.04-10.92,12.81Z"/>
  <path d="M1432.6,1012.83c3.77,4.84,8.12,9.1,12.9,12.81h23.26c-7.3-3.32-13.97-7.56-19.65-12.81h-16.5Z"/>
  <polygon points="1639.96 910.34 1639.96 902.05 1791.23 902.05 1791.23 897.53 1627.97 897.53 1627.97 910.34 1639.96 910.34"/>
  <rect x="1627.97" y="910.34" width="11.99" height="12.81"/>
  <rect x="1627.97" y="890.06" width="163.25" height="7.47"/>
  <rect x="1627.97" y="923.15" width="11.99" height="12.81"/>
  <path d="M881.56,859.09h-17.54c-2.75,3.75-4.71,8-5.63,12.81h12.59c1.82-5.18,5.63-9.4,10.57-12.81Z"/>
  <path d="M924.04,846.28h-44.75c-6.16,3.41-11.46,7.63-15.26,12.81h17.54c11.46-7.9,29.06-11.5,42.48-12.81Z"/>
  <path d="M935.82,845.66c5.41,0,11.02,.2,16.66,.63h51.55v-.73c-18.78-8.39-44.54-11.88-68.31-11.88-16.05,0-39.47,3.22-56.43,12.61h44.75c4.54-.44,8.6-.63,11.78-.63Z"/>
  <path d="M869.8,879.01c0-2.55,.42-4.92,1.19-7.11h-12.59c-.38,2.01-.58,4.11-.58,6.31,0,2.32,.2,4.47,.53,6.5h12.26c-.52-1.72-.81-3.61-.81-5.7Z"/>
  <path d="M1004.03,858.94v-12.66h-51.55c19.14,1.43,38.59,5.41,51.55,12.66Z"/>
  <rect x="1059.4" y="871.9" width="11.99" height="12.81"/>
  <path d="M1231.85,884.72c-.47-4.37-1.46-8.69-2.96-12.81h-13.02c1.99,4,3.29,8.35,3.9,12.81h12.07Z"/>
  <path d="M1071.38,859.09v-8.29h96.97c12.38,0,24.27,.5,33.86,6.09v.1c1.1,.64,2.13,1.35,3.12,2.1h16.71c-3.64-4.94-8.23-9.24-13.74-12.49-.19-.11-.39-.21-.58-.32h-148.33v12.81h11.99Z"/>
  <path d="M1168.36,838.81h-108.96v7.47h148.33c-11.85-6.78-25.31-7.47-39.37-7.47Z"/>
  <path d="M1215.87,871.9h13.02c-1.66-4.57-3.96-8.89-6.84-12.81h-16.71c4.53,3.39,8.06,7.82,10.54,12.81Z"/>
  <rect x="1059.4" y="859.09" width="11.99" height="12.81"/>
  <polygon points="1323.95 838.81 1310.12 838.81 1305.82 846.28 1328.25 846.28 1323.95 838.81"/>
  <polygon points="1304.89 871.9 1312.27 859.09 1298.44 859.09 1291.06 871.9 1304.89 871.9"/>
  <polygon points="1343.01 871.9 1335.63 859.09 1321.8 859.09 1329.18 871.9 1343.01 871.9"/>
  <polygon points="1312.27 859.09 1317.03 850.82 1321.8 859.09 1335.63 859.09 1328.25 846.28 1305.82 846.28 1298.44 859.09 1312.27 859.09"/>
  <polygon points="1350.39 884.72 1343.01 871.9 1329.18 871.9 1336.56 884.72 1350.39 884.72"/>
  <polygon points="1297.51 884.72 1304.89 871.9 1291.06 871.9 1283.68 884.72 1297.51 884.72"/>
  <path d="M1591.98,858.74v-12.46h-57.35c19.51,1.69,38.75,5.95,57.35,12.46Z"/>
  <path d="M1500.85,846.28c4.91-.55,9.9-.82,14.93-.82,6.31,0,12.59,.28,18.85,.82h57.35v-.23c-24.57-8.09-50.23-12.59-76.2-12.59-18.47,0-39.16,3.74-56.77,12.81h41.84Z"/>
  <path d="M1436.22,884.72c2.35-4.72,5.28-8.98,8.68-12.81h-15.34c-2.59,3.92-4.83,8.18-6.65,12.81h13.3Z"/>
  <path d="M1460.53,859.09c11.59-6.97,25.56-11.16,40.32-12.81h-41.84c-6.72,3.46-13,7.7-18.52,12.81h20.04Z"/>
  <path d="M1429.57,871.9h15.34c4.46-5.01,9.73-9.27,15.62-12.81h-20.04c-4.09,3.78-7.77,8.04-10.92,12.81Z"/>
  <polygon points="1639.96 859.09 1639.96 850.8 1791.23 850.8 1791.23 846.28 1627.97 846.28 1627.97 859.09 1639.96 859.09"/>
  <rect x="1627.97" y="859.09" width="11.99" height="12.81"/>
  <rect x="1627.97" y="838.81" width="163.25" height="7.47"/>
  <path d="M881.56,820.86h-17.54c-2.75,3.75-4.71,8-5.63,12.81h12.59c1.82-5.18,5.63-9.4,10.57-12.81Z"/>
  <path d="M924.04,808.05h-44.75c-6.16,3.41-11.46,7.63-15.26,12.81h17.54c11.46-7.9,29.06-11.5,42.48-12.81Z"/>
  <path d="M935.82,807.42c5.41,0,11.02,.2,16.66,.63h51.55v-.73c-18.78-8.39-44.54-11.88-68.31-11.88-16.05,0-39.47,3.22-56.43,12.61h44.75c4.54-.44,8.6-.63,11.78-.63Z"/>
  <path d="M1004.03,820.71v-12.66h-51.55c19.14,1.43,38.59,5.41,51.55,12.66Z"/>
  <path d="M1071.38,820.86v-8.29h96.97c12.38,0,24.27,.5,33.86,6.09v.1c1.1,.64,2.13,1.35,3.12,2.1h16.71c-3.64-4.94-8.23-9.24-13.74-12.49-.19-.11-.39-.21-.58-.32h-148.33v12.81h11.99Z"/>
  <path d="M1168.36,800.58h-108.96v7.47h148.33c-11.85-6.78-25.31-7.47-39.37-7.47Z"/>
  <path d="M1215.87,833.67h13.02c-1.66-4.57-3.96-8.89-6.84-12.81h-16.71c4.53,3.39,8.06,7.82,10.54,12.81Z"/>
  <rect x="1059.4" y="820.86" width="11.99" height="12.81"/>
  <polygon points="1323.95 800.58 1310.12 800.58 1305.82 808.05 1328.25 808.05 1323.95 800.58"/>
  <polygon points="1304.89 833.67 1312.27 820.86 1298.44 820.86 1291.06 833.67 1304.89 833.67"/>
  <polygon points="1343.01 833.67 1335.63 820.86 1321.8 820.86 1329.18 833.67 1343.01 833.67"/>
  <polygon points="1312.27 820.86 1317.03 812.59 1321.8 820.86 1335.63 820.86 1328.25 808.05 1305.82 808.05 1298.44 820.86 1312.27 820.86"/>
  <path d="M1591.98,820.51v-12.46h-57.35c19.51,1.69,38.75,5.95,57.35,12.46Z"/>
  <path d="M1500.85,808.05c4.91-.55,9.9-.82,14.93-.82,6.31,0,12.59,.28,18.85,.82h57.35v-.23c-24.57-8.09-50.23-12.59-76.2-12.59-18.47,0-39.16,3.74-56.77,12.81h41.84Z"/>
  <path d="M1460.53,820.86c11.59-6.97,25.56-11.16,40.32-12.81h-41.84c-6.72,3.46-13,7.7-18.52,12.81h20.04Z"/>
  <path d="M1429.57,833.67h15.34c4.46-5.01,9.73-9.27,15.62-12.81h-20.04c-4.09,3.78-7.77,8.04-10.92,12.81Z"/>
  <polygon points="1639.96 820.86 1639.96 812.57 1791.23 812.57 1791.23 808.05 1627.97 808.05 1627.97 820.86 1639.96 820.86"/>
  <rect x="1627.97" y="820.86" width="11.99" height="12.81"/>
  <rect x="1627.97" y="800.58" width="163.25" height="7.47"/>
  <path d="M924.04,782.63h-44.75c-6.16,3.41-11.46,7.63-15.26,12.81h17.54c11.46-7.9,29.06-11.5,42.48-12.81Z"/>
  <path d="M935.82,782c5.41,0,11.02,.2,16.66,.63h51.55v-.73c-18.78-8.39-44.54-11.88-68.31-11.88-16.05,0-39.47,3.22-56.43,12.61h44.75c4.54-.44,8.6-.63,11.78-.63Z"/>
  <path d="M1004.03,795.29v-12.66h-51.55c19.14,1.43,38.59,5.41,51.55,12.66Z"/>
  <path d="M1071.38,795.44v-8.29h96.97c12.38,0,24.27,.5,33.86,6.09v.1c1.1,.64,2.13,1.35,3.12,2.1h16.71c-3.64-4.94-8.23-9.24-13.74-12.49-.19-.11-.39-.21-.58-.32h-148.33v12.81h11.99Z"/>
  <path d="M1168.36,775.16h-108.96v7.47h148.33c-11.85-6.78-25.31-7.47-39.37-7.47Z"/>
  <polygon points="1323.95 775.16 1310.12 775.16 1305.82 782.63 1328.25 782.63 1323.95 775.16"/>
  <polygon points="1312.27 795.44 1317.03 787.17 1321.8 795.44 1335.63 795.44 1328.25 782.63 1305.82 782.63 1298.44 795.44 1312.27 795.44"/>
  <path d="M1591.98,795.09v-12.46h-57.35c19.51,1.69,38.75,5.95,57.35,12.46Z"/>
  <path d="M1500.85,782.63c4.91-.55,9.9-.82,14.93-.82,6.31,0,12.59,.28,18.85,.82h57.35v-.23c-24.57-8.09-50.23-12.59-76.2-12.59-18.47,0-39.16,3.74-56.77,12.81h41.84Z"/>
  <path d="M1460.53,795.44c11.59-6.97,25.56-11.16,40.32-12.81h-41.84c-6.72,3.46-13,7.7-18.52,12.81h20.04Z"/>
  <polygon points="1639.96 795.44 1639.96 787.15 1791.23 787.15 1791.23 782.63 1627.97 782.63 1627.97 795.44 1639.96 795.44"/>
  <rect x="1627.97" y="775.16" width="163.25" height="7.47"/>
  <path d="M935.82,765.16c5.41,0,11.02,.2,16.66,.63h51.55v-.73c-18.78-8.39-44.54-11.88-68.31-11.88-16.05,0-39.47,3.22-56.43,12.61h44.75c4.54-.44,8.6-.63,11.78-.63Z"/>
  <path d="M1168.36,758.32h-108.96v7.47h148.33c-11.85-6.78-25.31-7.47-39.37-7.47Z"/>
  <polygon points="1323.95 758.32 1310.12 758.32 1305.82 765.79 1328.25 765.79 1323.95 758.32"/>
  <path d="M1500.85,765.79c4.91-.55,9.9-.82,14.93-.82,6.31,0,12.59,.28,18.85,.82h57.35v-.23c-24.57-8.09-50.23-12.59-76.2-12.59-18.47,0-39.16,3.74-56.77,12.81h41.84Z"/>
  <rect x="1627.97" y="758.32" width="163.25" height="7.47"/>
  <rect x="1627.97" y="871.9" width="11.99" height="12.81"/>
  <rect x="1627.97" y="1038.45" width="163.25" height="3.21"/>
  <rect x="1627.97" y="935.96" width="11.99" height="12.81"/>
  <rect x="1627.97" y="1000.02" width="11.99" height="12.81"/>
  <polygon points="1627.97 1038.45 1791.23 1038.45 1791.23 1029.68 1639.96 1029.68 1639.96 1025.64 1627.97 1025.64 1627.97 1038.45"/>
  <rect x="1627.97" y="987.2" width="11.99" height="12.81"/>
  <rect x="1627.97" y="1012.83" width="11.99" height="12.81"/>
  <path d="M1025.25,1060.02h-13.83c-3.81,5.49-9.68,9.66-16.61,12.81h21.62c3.77-3.64,6.8-7.88,8.83-12.81Z"/>
  <path d="M1028.04,1047.21h-12.04c-.42,4.92-2.04,9.16-4.57,12.81h13.83c1.58-3.84,2.55-8.09,2.78-12.81Z"/>
  <path d="M936.61,1094.4c16.37,0,39.48-1.63,58.39-8.76h-110.2c16.85,5.78,34.86,8.76,51.81,8.76Z"/>
  <path d="M859.51,1060.14v12.69h24.88c-8.85-3.36-17.28-7.58-24.88-12.69Z"/>
  <path d="M994.81,1072.83c-18.24,8.3-43.77,9.58-58.2,9.58-17.18,0-35.47-3.23-52.22-9.58h-24.88v1.39c7.88,4.58,16.43,8.38,25.29,11.42h110.2c8.25-3.11,15.7-7.28,21.43-12.81h-21.62Z"/>
  <rect x="1059.4" y="1047.21" width="11.99" height="12.81"/>
  <rect x="1059.4" y="1060.02" width="11.99" height="12.81"/>
  <rect x="1059.4" y="1085.64" width="11.99" height="3.21"/>
  <rect x="1059.4" y="1072.83" width="11.99" height="12.81"/>
  <polygon points="1222.79 1088.85 1236.62 1088.85 1238.47 1085.64 1224.64 1085.64 1222.79 1088.85"/>
  <polygon points="1397.45 1088.85 1411.28 1088.85 1409.43 1085.64 1395.6 1085.64 1397.45 1088.85"/>
  <polygon points="1239.4 1060.02 1232.02 1072.83 1245.85 1072.83 1253.23 1060.02 1239.4 1060.02"/>
  <polygon points="1380.84 1060.02 1388.22 1072.83 1402.05 1072.83 1394.67 1060.02 1380.84 1060.02"/>
  <polygon points="1232.02 1072.83 1224.64 1085.64 1238.47 1085.64 1245.85 1072.83 1232.02 1072.83"/>
  <polygon points="1388.22 1072.83 1395.6 1085.64 1409.43 1085.64 1402.05 1072.83 1388.22 1072.83"/>
  <polygon points="1246.78 1047.21 1239.4 1060.02 1253.23 1060.02 1260.61 1047.21 1246.78 1047.21"/>
  <polygon points="1373.46 1047.21 1380.84 1060.02 1394.67 1060.02 1387.29 1047.21 1373.46 1047.21"/>
  <path d="M1591.98,1072.83h-12.37c-20.74,6.11-42.11,9.38-63.83,9.38-16.34,0-32.87-2.95-47.03-9.38h-23.26c6.91,5.36,14.71,9.58,22.93,12.81h109.76c4.63-1.25,9.23-2.63,13.8-4.13v-8.69Z"/>
  <path d="M1515.78,1094.2c21.16,0,42.05-3.05,62.4-8.56h-109.76c15.31,6,32.09,8.56,47.35,8.56Z"/>
  <path d="M1432.6,1060.02h16.5c-4.06-3.75-7.62-8.01-10.54-12.81h-13.83c2.2,4.67,4.85,8.93,7.87,12.81Z"/>
  <path d="M1579.61,1072.83h12.37v-4c-4.1,1.45-8.22,2.77-12.37,4Z"/>
  <path d="M1432.6,1060.02c3.77,4.84,8.12,9.1,12.9,12.81h23.26c-7.3-3.32-13.97-7.56-19.65-12.81h-16.5Z"/>
  <rect x="1627.97" y="1085.64" width="163.25" height="3.21"/>
  <rect x="1627.97" y="1047.21" width="11.99" height="12.81"/>
  <polygon points="1627.97 1085.64 1791.23 1085.64 1791.23 1076.87 1639.96 1076.87 1639.96 1072.83 1627.97 1072.83 1627.97 1085.64"/>
  <rect x="1627.97" y="1060.02" width="11.99" height="12.81"/>
  <path d="M1025.25,1094.4h-13.83c-3.81,5.49-9.68,9.66-16.61,12.81h21.62c3.77-3.64,6.8-7.88,8.83-12.81Z"/>
  <path d="M936.61,1128.78c16.37,0,39.48-1.63,58.39-8.76h-110.2c16.85,5.78,34.86,8.76,51.81,8.76Z"/>
  <path d="M859.51,1094.52v12.69h24.88c-8.85-3.36-17.28-7.58-24.88-12.69Z"/>
  <path d="M994.81,1107.21c-18.24,8.3-43.77,9.58-58.2,9.58-17.18,0-35.47-3.23-52.22-9.58h-24.88v1.39c7.88,4.58,16.43,8.38,25.29,11.42h110.2c8.25-3.11,15.7-7.28,21.43-12.81h-21.62Z"/>
  <rect x="1059.4" y="1094.4" width="11.99" height="12.81"/>
  <rect x="1059.4" y="1120.02" width="11.99" height="3.21"/>
  <rect x="1059.4" y="1107.21" width="11.99" height="12.81"/>
  <polygon points="1222.79 1123.23 1236.62 1123.23 1238.47 1120.02 1224.64 1120.02 1222.79 1123.23"/>
  <polygon points="1397.45 1123.23 1411.28 1123.23 1409.43 1120.02 1395.6 1120.02 1397.45 1123.23"/>
  <polygon points="1239.4 1094.4 1232.02 1107.21 1245.85 1107.21 1253.23 1094.4 1239.4 1094.4"/>
  <polygon points="1380.84 1094.4 1388.22 1107.21 1402.05 1107.21 1394.67 1094.4 1380.84 1094.4"/>
  <polygon points="1232.02 1107.21 1224.64 1120.02 1238.47 1120.02 1245.85 1107.21 1232.02 1107.21"/>
  <polygon points="1388.22 1107.21 1395.6 1120.02 1409.43 1120.02 1402.05 1107.21 1388.22 1107.21"/>
  <path d="M1591.98,1107.21h-12.37c-20.74,6.11-42.11,9.38-63.83,9.38-16.34,0-32.87-2.95-47.03-9.38h-23.26c6.91,5.36,14.71,9.58,22.93,12.81h109.76c4.63-1.25,9.23-2.63,13.8-4.13v-8.69Z"/>
  <path d="M1515.78,1128.58c21.16,0,42.05-3.05,62.4-8.56h-109.76c15.31,6,32.09,8.56,47.35,8.56Z"/>
  <path d="M1579.61,1107.21h12.37v-4c-4.1,1.45-8.22,2.77-12.37,4Z"/>
  <path d="M1432.6,1094.4c3.77,4.84,8.12,9.1,12.9,12.81h23.26c-7.3-3.32-13.97-7.56-19.65-12.81h-16.5Z"/>
  <rect x="1627.97" y="1120.02" width="163.25" height="3.21"/>
  <polygon points="1627.97 1120.02 1791.23 1120.02 1791.23 1111.25 1639.96 1111.25 1639.96 1107.21 1627.97 1107.21 1627.97 1120.02"/>
  <path d="M936.61,1155.13c16.37,0,39.48-1.63,58.39-8.76h-110.2c16.85,5.78,34.86,8.76,51.81,8.76Z"/>
  <path d="M994.81,1133.56c-18.24,8.3-43.77,9.58-58.2,9.58-17.18,0-35.47-3.23-52.22-9.58h-24.88v1.39c7.88,4.58,16.43,8.38,25.29,11.42h110.2c8.25-3.11,15.7-7.28,21.43-12.81h-21.62Z"/>
  <rect x="1059.4" y="1146.37" width="11.99" height="3.21"/>
  <rect x="1059.4" y="1133.56" width="11.99" height="12.81"/>
  <polygon points="1222.79 1149.58 1236.62 1149.58 1238.47 1146.37 1224.64 1146.37 1222.79 1149.58"/>
  <polygon points="1397.45 1149.58 1411.28 1149.58 1409.43 1146.37 1395.6 1146.37 1397.45 1149.58"/>
  <polygon points="1232.02 1133.56 1224.64 1146.37 1238.47 1146.37 1245.85 1133.56 1232.02 1133.56"/>
  <polygon points="1388.22 1133.56 1395.6 1146.37 1409.43 1146.37 1402.05 1133.56 1388.22 1133.56"/>
  <path d="M1591.98,1133.56h-12.37c-20.74,6.11-42.11,9.38-63.83,9.38-16.34,0-32.87-2.95-47.03-9.38h-23.26c6.91,5.36,14.71,9.58,22.93,12.81h109.76c4.63-1.25,9.23-2.63,13.8-4.13v-8.69Z"/>
  <path d="M1515.78,1154.93c21.16,0,42.05-3.05,62.4-8.56h-109.76c15.31,6,32.09,8.56,47.35,8.56Z"/>
  <path d="M936.61,1167.03c16.37,0,39.48-1.63,58.39-8.76h-110.2c16.85,5.78,34.86,8.76,51.81,8.76Z"/>
  <rect x="1059.4" y="1158.27" width="11.99" height="3.21"/>
  <polygon points="1222.79 1161.48 1236.62 1161.48 1238.47 1158.27 1224.64 1158.27 1222.79 1161.48"/>
  <polygon points="1397.45 1161.48 1411.28 1161.48 1409.43 1158.27 1395.6 1158.27 1397.45 1161.48"/>
  <path d="M1515.78,1166.82c21.16,0,42.05-3.05,62.4-8.56h-109.76c15.31,6,32.09,8.56,47.35,8.56Z"/>
  <rect x="1627.97" y="1146.37" width="163.25" height="3.21"/>
  <polygon points="1627.97 1146.37 1791.23 1146.37 1791.23 1137.6 1639.96 1137.6 1639.96 1133.56 1627.97 1133.56 1627.97 1146.37"/>
  <polygon points="1627.97 1166.28 1791.23 1166.28 1791.23 1157.51 1639.96 1157.51 1639.96 1153.47 1627.97 1153.47 1627.97 1166.28"/>
  <rect x="1627.97" y="1094.4" width="11.99" height="12.81"/>
  <polygon points="1627.97 961.58 1781.24 961.58 1781.24 959.87 1639.96 959.87 1639.96 948.77 1627.97 948.77 1627.97 961.58"/>
  <rect x="1627.97" y="974.39" width="11.99" height="12.81"/>
  <polygon points="1627.97 974.39 1639.96 974.39 1639.96 971.85 1781.24 971.85 1781.24 961.58 1627.97 961.58 1627.97 974.39"/>
</svg>