<svg viewBox="0 0 399 37" fill="none" xmlns="http://www.w3.org/2000/svg">
<path fill-rule="evenodd" clip-rule="evenodd" d="M396.271 26.4746C396.271 29.3345 395.771 32.1267 394.78 34.788H397.082C397.986 32.1057 398.444 29.3112 398.444 26.4746C398.444 12.0745 386.728 0.359131 372.328 0.359131C357.928 0.359131 346.213 12.0745 346.213 26.4746C346.213 29.3112 346.671 32.1057 347.575 34.788H349.877C348.888 32.1267 348.386 29.3345 348.386 26.4746C348.386 13.2732 359.127 2.53211 372.328 2.53211C385.53 2.53211 396.271 13.2732 396.271 26.4746ZM382.146 12.0909C384.897 11.3783 388.114 14.605 389.331 19.2991C390.549 23.9909 389.308 28.3766 386.558 29.0892C383.808 29.8019 380.59 26.5751 379.373 21.881C378.156 17.1892 379.396 12.8036 382.146 12.0909ZM367.739 15.1284C364.898 15.8644 363.592 20.3015 364.821 25.0353C366.05 29.7691 369.347 33.0099 372.188 32.2716C375.029 31.5356 376.336 27.0985 375.107 22.3646C373.878 17.6308 370.581 14.39 367.739 15.1284ZM185.945 36.1409C192.99 36.1409 205.799 34.753 205.799 25.4115L205.801 25.4162C205.801 19.9113 201.357 17.8294 193.511 17.1144L179.725 15.8574C176.216 15.5326 171.447 14.7943 171.447 10.7637C171.447 4.84762 181.784 3.52513 185.772 3.52513C190.931 3.52513 196.936 4.37096 200.576 6.40842V3.50411C196.501 1.68394 190.91 0.924561 185.751 0.924561C179.704 0.924561 168.846 3.02744 168.846 10.5908C168.846 17.049 175.131 18.0678 180.333 18.5444L194.42 19.8225C199.6 20.2991 203.198 21.6637 203.198 25.3484C203.198 32.7599 191.191 33.5403 185.945 33.5403C180.244 33.5403 173.982 31.9141 169.213 28.706V31.7622C174.176 34.6455 180.333 36.1409 185.945 36.1409ZM226.806 4.63731H244.036H244.038V2.03674H206.976V4.63731H224.206V34.9376H226.806V4.63731ZM249.894 20.7525V2.02747H252.494V20.7525C252.494 29.7248 260.665 33.4749 268.49 33.4749C276.315 33.4749 284.397 29.6383 284.397 20.7525V2.02747H286.998V20.7525C286.998 32.0006 276.595 36.0755 268.446 36.0755C260.296 36.0755 249.894 32.0006 249.894 20.7525ZM312.319 34.9376C322.548 34.9376 333.623 31.9234 333.623 18.486C333.623 5.02752 322.548 2.03674 312.319 2.03674H292.617V34.9376H312.319ZM312.319 4.63497C321.789 4.63497 331.023 7.17245 331.023 18.507C331.023 29.8415 321.812 32.3346 312.319 32.3346H295.218V4.63497H312.319ZM340.131 2.03674V34.9376H337.53V2.03674H340.131ZM48.7037 0.919922V33.8955H40.4487V13.39L28.766 33.8955H20.24L8.47086 13.2124V33.8955H0.325684V0.919922H10.971L24.5696 24.7947L38.1683 0.919922H48.7037ZM70.3518 8.13283H70.3074V8.13049C65.16 8.13049 58.7509 9.21699 55.2975 10.5862V17.0584C59.5991 15.2569 64.5502 14.1915 69.5037 14.1915C75.109 14.1915 78.0624 15.5396 78.0624 17.6893V17.9276C69.784 17.9276 62.0524 18.1028 57.4682 19.8179C54.405 20.9464 51.9282 23.075 51.9282 26.9209C51.9282 33.0029 58.2065 35.0241 64.4848 35.0241C70.7631 35.0241 76.1511 33.0707 78.0624 30.615L78.497 33.8955H85.8828V19.2104C85.8828 16.6916 85.7309 15.4532 85.2753 14.3667C83.6467 10.4997 77.8895 8.13283 70.3518 8.13283ZM76.3894 22.9255H78.0624C78.0624 26.1172 72.8262 29.0939 64.9194 29.0939C63.3352 29.0939 60.2066 28.7224 60.2066 26.6382C60.2066 25.6615 60.8795 25.0096 61.466 24.6405C64.2908 22.9254 73.2398 22.9255 76.3894 22.9255ZM125.718 22.0142V33.8955H117.898V22.0142C117.898 16.0397 112.945 14.3246 109.557 14.3246C103.496 14.3246 98.3902 17.3224 98.3902 21.5796V33.8955H90.5698V9.26136H97.9556L98.3902 12.9414C101.643 9.82914 106.505 8.13281 111.033 8.13281C118.723 8.13281 125.718 10.8479 125.718 22.0142ZM164.734 23.8741L164.885 21.7245H164.883C164.883 10.5815 154.413 8.27771 147.158 8.27771C139.903 8.27771 129.433 10.9273 129.433 21.7455C129.433 32.5637 139.23 35.1713 148.506 35.1713C152.894 35.1713 157.479 34.5848 161.822 33.3674V26.6336C157.651 27.9584 153.415 28.9794 148.962 28.9794C145.03 28.9794 139.099 28.1757 137.602 23.8741H164.734ZM156.675 19.3132H137.667C137.667 17.7944 139.233 14.4695 147.16 14.4695C155.088 14.4695 156.675 17.7921 156.675 19.3132Z" fill="currentColor"/>
</svg>
