<svg viewBox="0 0 391 100" fill="none" xmlns="http://www.w3.org/2000/svg">
<path d="M48.5047 34.8842V67.9461H40.2281V47.3869L28.5148 67.9461H19.9665L8.1665 47.2089V67.9461H0V34.8842H10.6731L24.3074 58.8214L37.9417 34.8842H48.5047Z" fill="currentcolor"/>
<path d="M70.1651 42.1137H70.2096C77.767 42.1137 83.5393 44.4868 85.1722 48.3639C85.629 49.4532 85.7813 50.6948 85.7813 53.2202V67.9438H78.3761L77.9404 64.6547C76.0241 67.1168 70.6219 69.0753 64.3272 69.0753C58.0325 69.0753 51.7378 67.0489 51.7378 60.951C51.7378 57.095 54.221 54.9608 57.2922 53.8293C61.8885 52.1098 69.6404 51.9341 77.9404 51.9341V51.6951C77.9404 49.5399 74.9793 48.1882 69.3592 48.1882C64.3928 48.1882 59.4287 49.2564 55.1159 51.0626V44.5735C58.5783 43.2007 65.0043 42.1113 70.1651 42.1113V42.1137ZM77.9404 56.9474H76.2631C73.1052 56.9474 64.1328 56.9474 61.3005 58.6669C60.7125 59.037 60.0378 59.6906 60.0378 60.6698C60.0378 62.7595 63.1746 63.132 64.763 63.132C72.6905 63.132 77.9404 60.1474 77.9404 56.9474V56.9474Z" fill="currentcolor"/>
<path d="M125.721 56.0314V67.9438H117.88V56.0314C117.88 50.0412 112.914 48.3217 109.517 48.3217C103.44 48.3217 98.3213 51.3273 98.3213 55.5956V67.9438H90.4805V43.2452H97.8856L98.3213 46.9348C101.582 43.8144 106.457 42.1136 110.997 42.1136C118.707 42.1136 125.721 44.8358 125.721 56.0314Z" fill="currentcolor"/>
<path d="M164.991 55.7432L164.839 57.8985H137.636C139.137 62.2113 145.083 63.0172 149.026 63.0172C153.491 63.0172 157.738 61.9934 161.92 60.6651V67.4167C157.565 68.6372 152.968 69.2252 148.569 69.2252C139.269 69.2252 129.446 66.6108 129.446 55.7643C129.446 44.9178 139.943 42.2612 147.217 42.2612C154.491 42.2612 164.989 44.5711 164.989 55.7432H164.991V55.7432ZM137.701 53.3256H156.759C156.759 51.8005 155.168 48.4693 147.22 48.4693C139.271 48.4693 137.701 51.8029 137.701 53.3256Z" fill="currentcolor"/>
<path d="M211.333 55.8744H211.336C210.982 54.682 210.352 53.691 209.459 52.8711C207.84 51.3812 205.364 50.4441 202.127 49.8702C200.979 49.6664 199.737 49.5094 198.404 49.3876L183.524 48.0312C181.701 47.8625 179.569 47.5908 177.843 46.8692C176.381 46.2601 175.214 45.3301 174.776 43.8683C174.654 43.4654 174.586 43.0226 174.586 42.533C174.586 41.9356 174.685 41.3804 174.865 40.8673C175.291 39.6539 176.184 38.6653 177.341 37.8664H177.346C180.031 36.0157 184.154 35.1724 187.298 34.8655H193.955C192.634 34.7671 191.32 34.7179 190.052 34.7179C191.32 34.7179 192.634 34.7647 193.955 34.8655H193.983C198.458 35.2028 203.003 36.1352 206.032 37.8289V34.8631V34.6945C201.632 32.729 195.598 31.9114 190.029 31.9114C186.269 31.9114 180.783 32.6657 176.809 34.8655C175.366 35.6643 174.125 36.6529 173.235 37.8664C172.59 38.7449 172.131 39.7405 171.916 40.8673C171.827 41.3382 171.78 41.8302 171.78 42.3456C171.78 42.8891 171.827 43.3927 171.904 43.8683C172.103 45.0654 172.539 46.054 173.153 46.8692C174.277 48.3592 175.992 49.2775 177.934 49.8702C179.913 50.4746 182.123 50.7416 184.179 50.9314L199.388 52.3112C200.733 52.4354 201.977 52.6158 203.094 52.8711C205.533 53.431 207.355 54.3564 208.248 55.8721H208.25L208.248 55.8744C208.648 56.5514 208.864 57.3456 208.864 58.2803C208.864 58.4841 208.852 58.6809 208.836 58.8753H208.838C208.74 60.0279 208.36 61.0212 207.768 61.8763H207.765C206.873 63.1624 205.498 64.1393 203.874 64.8772C199.601 66.8216 193.62 67.1215 190.24 67.1215C186.215 67.1215 181.931 66.3648 178.007 64.8772C175.933 64.0901 173.958 63.1015 172.178 61.9044V65.2029C174.024 66.2758 176.027 67.166 178.103 67.8782C182.05 69.2322 186.269 69.9303 190.24 69.9303C194.211 69.9303 199.489 69.5485 203.919 67.8782C205.851 67.1496 207.597 66.1727 208.939 64.8772C209.822 64.0245 210.532 63.0312 211.008 61.8763C211.378 60.9767 211.605 59.9811 211.659 58.8753H211.656C211.666 58.702 211.671 58.5263 211.671 58.3482H211.673C211.673 57.4393 211.56 56.617 211.338 55.8744H211.336H211.333Z" fill="currentcolor"/>
<path d="M256.916 52.8711C257.626 51.9598 258.193 50.9454 258.61 49.8702H258.613C258.987 48.9073 259.243 47.8953 259.374 46.8692C259.444 46.3281 259.482 45.7799 259.482 45.234C259.482 44.7772 259.454 44.3204 259.404 43.8683C259.294 42.8445 259.062 41.8325 258.711 40.8673C258.322 39.7967 257.783 38.7847 257.109 37.8664H257.106C256.254 36.7091 255.178 35.7018 253.887 34.9404C253.843 34.9146 253.796 34.8912 253.752 34.8654C250.976 33.2771 247.822 33.1155 244.529 33.1155H219.003V68.6301H221.812V57.3549L221.809 57.3526H244.526C247.642 57.3526 250.633 57.2284 253.299 55.872H253.302C253.499 55.7713 253.695 55.6659 253.887 55.5511H253.885C255.082 54.846 256.094 53.9276 256.914 52.8734L256.916 52.8711ZM256.539 46.8669C256.368 47.9234 256.033 48.9425 255.541 49.8678C254.906 51.0626 254.012 52.1027 252.873 52.8688H252.88L252.873 52.8711C252.761 52.9461 252.648 53.0234 252.531 53.0936C250.144 54.5203 247.15 54.5437 244.531 54.5437H221.812V35.922H244.529C247.429 35.922 250.214 36.0391 252.461 37.3487V37.3721C252.718 37.522 252.96 37.6883 253.192 37.864H253.194C254.255 38.6582 255.082 39.696 255.663 40.865H255.661C256.127 41.802 256.432 42.8211 256.574 43.8659H256.577C256.64 44.3181 256.673 44.7749 256.673 45.2317C256.673 45.7822 256.626 46.3281 256.539 46.8669V46.8669Z" fill="currentcolor"/>
<path d="M277.741 33.1155L257.282 68.6301H260.522L266.142 58.8753H292.579L298.199 68.6301H301.439L280.981 33.1155H277.741ZM283.935 43.8683L285.664 46.8692L287.392 49.8702L289.121 52.8711L290.679 55.5745H268.042L269.6 52.8711L271.329 49.8702L273.058 46.8692L274.787 43.8683L276.515 40.8673L278.244 37.8664L279.359 35.9267L280.477 37.8664L282.206 40.8673L283.935 43.8683V43.8683Z" fill="currentcolor"/>
<path d="M343.771 63.9402C342.81 64.2799 341.845 64.5891 340.873 64.8772C336.014 66.3086 331.008 67.0746 325.92 67.0746C322.092 67.0746 318.219 66.3836 314.902 64.8772H314.904C313.194 64.0995 311.632 63.1062 310.301 61.8763H310.299C309.348 60.9978 308.514 59.9998 307.83 58.8753C307.272 57.9594 306.811 56.9614 306.466 55.8744H306.459L306.464 55.8721C306.166 54.9373 305.953 53.937 305.836 52.8711H305.838C305.768 52.2316 305.731 51.5709 305.731 50.8845C305.731 50.5402 305.74 50.2028 305.759 49.8702H305.756C305.813 48.8113 305.963 47.811 306.19 46.8692C306.452 45.794 306.82 44.7936 307.281 43.8683C307.832 42.7626 308.518 41.7646 309.315 40.8673C310.36 39.6937 311.594 38.6957 312.974 37.8664C315.689 36.2336 318.962 35.252 322.42 34.8655C323.57 34.7366 324.739 34.6734 325.917 34.6734C327.395 34.6734 328.867 34.739 330.333 34.8655H330.359C334.92 35.2637 339.42 36.2593 343.768 37.7821V34.8655V34.8116C338.012 32.9164 332.001 31.8622 325.917 31.8622C321.59 31.8622 316.743 32.7383 312.618 34.8631C311.044 35.676 309.573 36.6693 308.279 37.8664C307.321 38.7519 306.459 39.7499 305.721 40.8673C305.114 41.7857 304.59 42.7836 304.163 43.8683C303.798 44.803 303.505 45.8033 303.297 46.8692C303.112 47.8157 302.992 48.816 302.945 49.8702C302.931 50.2028 302.922 50.5402 302.922 50.8845H302.919C302.919 51.5686 302.95 52.2316 303.008 52.8688C303.104 53.93 303.276 54.928 303.517 55.8721H303.519C303.791 56.945 304.152 57.9453 304.59 58.8753C305.105 59.9694 305.726 60.9673 306.433 61.8763C307.317 63.0101 308.336 64.0081 309.455 64.8772H309.453C311.072 66.1329 312.899 67.1215 314.825 67.8782C318.411 69.2838 322.342 69.8835 325.917 69.8835H325.92C330.877 69.8835 335.77 69.169 340.538 67.8782C341.622 67.5853 342.7 67.2621 343.771 66.9107V64.8749V63.9402V63.9402Z" fill="currentcolor"/>
<path d="M390.448 35.9243L390.446 33.1155H352.202V68.6301H390.446L390.448 67.8781V65.8236H355.011V52.2761H388.108V49.8702V49.4696H355.011V35.9243H390.448Z" fill="currentcolor"/>
<path d="M171.906 31.8622H174.779C174.657 31.4592 174.589 31.0165 174.589 30.5269C174.589 29.9295 174.687 29.3743 174.868 28.8612C175.294 27.6477 176.187 26.6591 177.344 25.8603H177.348C180.026 24.0143 184.137 23.1709 187.279 22.8617H187.298C188.361 22.7586 189.312 22.7141 190.057 22.7141C191.325 22.7141 192.639 22.7609 193.96 22.8617H193.988C198.463 23.199 203.008 24.1314 206.037 25.8251V22.8593V22.6907C201.637 20.7252 195.602 19.9076 190.034 19.9076C186.276 19.9076 180.792 20.6619 176.819 22.8593H176.814C175.371 23.6582 174.13 24.6468 173.239 25.8603C172.595 26.7388 172.136 27.7344 171.921 28.8612C171.832 29.3321 171.785 29.8241 171.785 30.3394C171.785 30.8829 171.832 31.3866 171.909 31.8622H171.906Z" fill="currentcolor"/>
<path d="M256.575 31.8645H259.404C259.294 30.8408 259.062 29.8287 258.711 28.8636C258.322 27.7906 257.783 26.7786 257.109 25.8603H257.106C256.254 24.703 255.178 23.6957 253.888 22.9343C253.843 22.9085 253.796 22.8851 253.752 22.8593H253.754C250.978 21.271 247.825 21.1094 244.531 21.1094H219.005V31.8622H221.814V23.9182H244.529C247.429 23.9182 250.214 24.0354 252.461 25.3449V25.3683C252.719 25.5183 252.96 25.6846 253.192 25.8603H253.194C254.255 26.6544 255.082 27.6922 255.663 28.8612H255.668H255.661C256.127 29.7983 256.432 30.8173 256.575 31.8622V31.8645Z" fill="currentcolor"/>
<path d="M279.359 23.9229L283.934 31.8645H287.174L280.98 21.1094H277.74L271.546 31.8645H274.786L279.359 23.9229Z" fill="currentcolor"/>
<path d="M307.282 31.8645C307.832 30.7588 308.518 29.7608 309.315 28.8636C310.36 27.6876 311.594 26.6896 312.974 25.8603C315.689 24.2275 318.962 23.2459 322.42 22.8594H322.396L322.42 22.857C323.57 22.7305 324.739 22.6673 325.917 22.6673C327.396 22.6673 328.867 22.7329 330.333 22.8594C334.904 23.2553 339.411 24.2532 343.768 25.7783V22.8055C338.013 20.9103 332.001 19.8561 325.917 19.8561C321.59 19.8561 316.744 20.7322 312.618 22.857C311.044 23.6699 309.573 24.6632 308.28 25.8603C307.321 26.7458 306.459 27.7438 305.721 28.8612H305.728H305.719C305.112 29.7796 304.587 30.7775 304.161 31.8622H307.279L307.282 31.8645Z" fill="currentcolor"/>
<path d="M352.202 21.1094V31.8622H355.011V23.9182H390.448L390.446 21.1094H352.202Z" fill="currentcolor"/>
<path d="M177.341 16.9042H177.346C180.031 15.0536 184.154 14.2102 187.298 13.9033C188.361 13.8002 189.312 13.7557 190.057 13.7557C191.325 13.7557 192.639 13.8026 193.96 13.9033C198.444 14.2383 203 15.1707 206.037 16.8691V13.9033V13.7323C201.637 11.7668 195.602 10.9492 190.034 10.9492C186.274 10.9492 180.787 11.7036 176.814 13.9033C175.371 14.7022 174.13 15.6908 173.239 16.9042C172.595 17.7827 172.136 18.7784 171.92 19.9052H174.87C175.296 18.6917 176.189 17.7031 177.346 16.9042H177.341Z" fill="currentcolor"/>
<path d="M253.888 13.9784C253.843 13.9526 253.796 13.9292 253.752 13.9034H253.754C250.978 12.3151 247.825 12.1534 244.531 12.1534H219.005V19.9053H221.814V14.9623H244.529C247.429 14.9623 250.214 15.0794 252.461 16.389V16.4124C252.719 16.5623 252.96 16.7286 253.192 16.9043H253.194C254.255 17.6985 255.082 18.7363 255.663 19.9053H258.711C258.322 18.8347 257.783 17.8227 257.109 16.9043H257.106C256.254 15.7471 255.178 14.7397 253.888 13.9784V13.9784Z" fill="currentcolor"/>
<path d="M279.359 14.967L282.206 19.9053H285.445L280.98 12.1534H277.74L273.275 19.9053H276.515L279.359 14.967Z" fill="currentcolor"/>
<path d="M309.317 19.9052C310.362 18.7315 311.597 17.7336 312.976 16.9043C315.692 15.2714 318.964 14.2898 322.422 13.9033H322.394L322.422 13.901C323.572 13.7745 324.741 13.7112 325.92 13.7112C327.398 13.7112 328.869 13.7768 330.336 13.9033C334.906 14.2992 339.413 15.2972 343.771 16.8223V13.8494C338.015 11.9542 332.004 10.9 325.92 10.9C321.593 10.9 316.746 11.7762 312.62 13.901C311.046 14.7139 309.575 15.7072 308.282 16.9043C307.324 17.7898 306.462 18.7877 305.724 19.9052H309.317V19.9052Z" fill="currentcolor"/>
<path d="M352.202 12.1534V19.9053H355.011V14.9623H390.448L390.446 12.1534H352.202Z" fill="currentcolor"/>
<path d="M187.298 7.94835C188.361 7.84527 189.312 7.80076 190.057 7.80076C191.325 7.80076 192.639 7.84762 193.96 7.94835C198.444 8.28335 203 9.21573 206.036 10.9142V7.94835V7.77734C201.637 5.81185 195.602 4.99426 190.034 4.99426C186.274 4.99426 180.787 5.7486 176.814 7.94835C175.371 8.7472 174.129 9.7358 173.239 10.9493H177.348C180.033 9.0986 184.156 8.25524 187.3 7.94835H187.298Z" fill="currentcolor"/>
<path d="M221.812 9.00721H244.529C247.429 9.00721 250.214 9.12434 252.461 10.4339V10.4573C252.718 10.6072 252.96 10.7736 253.192 10.9493H257.106C256.254 9.792 255.178 8.78466 253.887 8.02329C253.843 7.99752 253.796 7.9741 253.752 7.94833C250.976 6.36001 247.822 6.19836 244.529 6.19836H219.003V10.9493H221.809V9.00721H221.812Z" fill="currentcolor"/>
<path d="M279.359 9.01189L280.477 10.9493H283.717L280.981 6.19836H277.741L275.004 10.9493H278.244L279.359 9.01189Z" fill="currentcolor"/>
<path d="M322.422 7.94835H322.408L322.422 7.94601C323.572 7.81951 324.741 7.75626 325.92 7.75626C327.398 7.75626 328.869 7.82185 330.336 7.94835C334.906 8.34426 339.413 9.34223 343.771 10.8673V7.89447C338.015 5.99926 332.003 4.94507 325.92 4.94507C321.593 4.94507 316.746 5.82122 312.62 7.94601C311.046 8.75891 309.575 9.7522 308.282 10.9493H312.976C315.692 9.31646 318.964 8.33489 322.422 7.94835V7.94835Z" fill="currentcolor"/>
<path d="M355.011 9.00721H390.448L390.446 6.19836H352.202V10.9493H355.011V9.00721Z" fill="currentcolor"/>
<path d="M190.055 3.8557C191.322 3.8557 192.637 3.90255 193.958 4.00328H206.034V3.83227C201.635 1.86678 195.6 1.04919 190.032 1.04919C186.272 1.04919 180.785 1.80353 176.812 4.00328H187.295C188.359 3.90021 189.31 3.8557 190.055 3.8557Z" fill="currentcolor"/>
<path d="M244.531 2.2533H219.005V4.00326H253.754C250.978 2.41494 247.825 2.2533 244.531 2.2533V2.2533Z" fill="currentcolor"/>
<path d="M280.98 2.2533H277.74L276.733 4.00326H281.987L280.98 2.2533Z" fill="currentcolor"/>
<path d="M322.422 4.00328C323.572 3.87444 324.741 3.81119 325.919 3.81119C327.398 3.81119 328.869 3.87678 330.335 4.00328H343.77V3.9494C338.014 2.0542 332.003 1 325.919 1C321.592 1 316.746 1.87615 312.62 4.00094H322.422V4.00328Z" fill="currentcolor"/>
<path d="M390.446 2.2533H352.202V4.00326H390.446V2.2533Z" fill="currentcolor"/>
<path d="M207.768 72.9312H207.766C206.873 74.2174 205.498 75.1942 203.874 75.9322C199.601 77.8766 193.621 78.1764 190.24 78.1764C186.215 78.1764 181.931 77.4198 178.007 75.9322C175.934 75.145 173.959 74.1565 172.178 72.9594V76.2578C174.024 77.3307 176.027 78.221 178.103 78.9331C182.05 80.2872 186.269 80.9853 190.24 80.9853C194.211 80.9853 199.489 80.6034 203.919 78.9331C205.852 78.2046 207.597 77.2277 208.939 75.9322C209.822 75.0795 210.532 74.0862 211.008 72.9312C211.378 72.0317 211.605 71.036 211.659 69.9303H208.838C208.74 71.0829 208.361 72.0762 207.768 72.9312V72.9312Z" fill="currentcolor"/>
<path d="M221.814 69.9303H219.005V79.6851H221.814V69.9303Z" fill="currentcolor"/>
<path d="M292.579 69.9303L298.199 79.6851H301.439L295.818 69.9303H292.579Z" fill="currentcolor"/>
<path d="M257.282 79.6851H260.522L266.142 69.9303H262.902L257.282 79.6851Z" fill="currentcolor"/>
<path d="M343.771 74.9951C342.81 75.3348 341.845 75.644 340.873 75.9322C336.014 77.3635 331.008 78.1296 325.92 78.1296C322.092 78.1296 318.219 77.4385 314.902 75.9322C313.192 75.1544 311.629 74.1611 310.299 72.9312H310.296C309.345 72.0527 308.511 71.0548 307.827 69.9303H304.587C305.103 71.0243 305.724 72.0223 306.431 72.9312C307.314 74.0651 308.333 75.0631 309.453 75.9322C311.072 77.1878 312.899 78.1765 314.825 78.9331C318.411 80.3387 322.342 80.9384 325.917 80.9384H325.92C330.877 80.9384 335.77 80.2239 340.538 78.9331C341.622 78.6403 342.7 78.317 343.771 77.9656V75.9298V74.9951V74.9951Z" fill="currentcolor"/>
<path d="M355.011 69.9303H352.202V79.6851H390.446L390.448 76.8786H355.011V69.9303Z" fill="currentcolor"/>
<path d="M207.766 80.9854C206.873 82.2715 205.498 83.2484 203.874 83.9863C199.601 85.9307 193.621 86.2306 190.24 86.2306C186.215 86.2306 181.931 85.4739 178.007 83.9863C175.934 83.1992 173.959 82.2106 172.178 81.0135V84.3119C174.024 85.3849 176.027 86.2751 178.103 86.9872C182.05 88.3413 186.269 89.0394 190.24 89.0394C194.211 89.0394 199.489 88.6575 203.919 86.9872C205.852 86.2587 207.597 85.2818 208.939 83.9863C209.822 83.1336 210.532 82.1403 211.008 80.9854H207.766V80.9854Z" fill="currentcolor"/>
<path d="M221.814 80.9854H219.005V87.7392H221.814V80.9854Z" fill="currentcolor"/>
<path d="M257.282 87.7392H260.522L264.413 80.9854H261.173L257.282 87.7392Z" fill="currentcolor"/>
<path d="M294.308 80.9854L298.199 87.7392H301.439L297.547 80.9854H294.308Z" fill="currentcolor"/>
<path d="M343.771 83.0492C342.81 83.3889 341.845 83.6981 340.873 83.9863C336.014 85.4177 331.008 86.1837 325.92 86.1837C322.092 86.1837 318.219 85.4926 314.902 83.9863C313.192 83.2085 311.63 82.2152 310.299 80.9854H306.431C307.314 82.1192 308.333 83.1172 309.453 83.9863C311.072 85.242 312.899 86.2306 314.825 86.9872C318.411 88.3928 322.342 88.9925 325.917 88.9925H325.92C330.877 88.9925 335.771 88.278 340.538 86.9872C341.623 86.6944 342.7 86.3711 343.771 86.0197V83.984V83.0492V83.0492Z" fill="currentcolor"/>
<path d="M355.011 80.9854H352.202V87.7392H390.446V86.9872H390.448V84.9327H355.011V80.9854Z" fill="currentcolor"/>
<path d="M190.24 92.4034C186.215 92.4034 181.931 91.6468 178.007 90.1592H172.178V90.4848C174.024 91.5577 176.027 92.448 178.103 93.1601C182.05 94.5142 186.269 95.2123 190.24 95.2123C194.211 95.2123 199.489 94.8304 203.919 93.1601C205.852 92.4316 207.597 91.4547 208.939 90.1592H203.874C199.601 92.1036 193.621 92.4034 190.24 92.4034V92.4034Z" fill="currentcolor"/>
<path d="M221.814 90.1592H219.005V93.9121H221.814V90.1592Z" fill="currentcolor"/>
<path d="M257.282 93.9121H260.522L260.956 93.1601L262.684 90.1592H259.444L257.282 93.9121Z" fill="currentcolor"/>
<path d="M299.277 90.1592H296.037L297.766 93.1601L298.199 93.9121H301.439L301.005 93.1601L299.277 90.1592Z" fill="currentcolor"/>
<path d="M340.873 90.1591C336.014 91.5904 331.008 92.3565 325.92 92.3565C322.092 92.3565 318.219 91.6654 314.902 90.1591H309.453C311.072 91.4147 312.899 92.4033 314.825 93.16C318.411 94.5656 322.342 95.1653 325.917 95.1653H325.92C330.877 95.1653 335.771 94.4508 340.538 93.16C341.622 92.8672 342.7 92.5439 343.771 92.1925V90.1567H340.873V90.1591Z" fill="currentcolor"/>
<path d="M190.24 98C194.075 98 199.489 97.6182 203.919 95.9479H178.103C182.05 97.3019 186.269 98 190.24 98V98Z" fill="currentcolor"/>
<path d="M221.814 95.9479H219.005V96.6999H221.814V95.9479Z" fill="currentcolor"/>
<path d="M257.282 96.6999H260.522L260.956 95.9479H257.716L257.282 96.6999Z" fill="currentcolor"/>
<path d="M297.766 95.9479L298.199 96.6999H301.439L301.006 95.9479H297.766Z" fill="currentcolor"/>
<path d="M325.917 97.9509H325.92C330.877 97.9509 335.77 97.2364 340.538 95.9456H314.825C318.411 97.3512 322.342 97.9509 325.917 97.9509Z" fill="currentcolor"/>
<path d="M355.011 90.1592H352.202V93.9121H390.446L390.448 91.1056H355.011V90.1592Z" fill="currentcolor"/>
<path d="M355.011 94.8234H352.202V97.8243H390.448V95.7698H355.011V94.8234Z" fill="currentcolor"/>
</svg>
